<?xml  version="1.0" encoding="UTF-8"?>
<!DOCTYPE svg PUBLIC "-//W3C//DTD SVG 1.0//EN" "http://www.w3.org/TR/2001/REC-SVG-20010904/DTD/svg10.dtd" >
<svg xmlns="http://www.w3.org/2000/svg" >
<metadata>
<version>1.0</version>
<id><![CDATA[Modern NAP Super Display]]></id>
<vendor>Monotype Imaging Inc.</vendor>
<credits>
<name>Fonts.com WebFonts</name>
<URL>http://webfonts.fonts.com</URL>
<role>Home of the Web fonts</role>
</credits>
<license>
<URL>http://webfonts.fonts.com/Legal</URL>
</license>
<copyright><![CDATA[Copyright 2012 Monotype Imaging Inc. All rights reserved.]]></copyright>
<trademark></trademark>
<licensee>
<name></name>
</licensee>
</metadata>
<defs >
<font horiz-adv-x="541" id="0243b22b-df2c-4d1b-8a9c-bc48cb521a05">
<font-face font-family="" panose-1="2 7 5 3 0 0 0 2 0 3" ascent="723" descent="-277" units-per-em="1000" alphabetic="0">
</font-face>
<missing-glyph horiz-adv-x="607" d="M107 700H607V0H107V700ZM527 650H187L357 395L527 650ZM557 95V605L387 350L557 95ZM527 50L357 305L187 50H527ZM157 95L327 350L157 605V95Z"  />

<glyph unicode="&#xA;" />
<glyph unicode="&#xD;" />
<glyph unicode=" " horiz-adv-x="250" />
<glyph unicode="!" horiz-adv-x="252" d="M124 157V186Q124 243 118 303T103 416T89 512T82 577Q82 618 94 641T126 665Q146 665 158 642T170 577Q170 554 164 512T149 417T135 303T128 186V157H124ZM179 39Q179 17 164 2T126 -14Q104 -14 89 1T73 39Q73 61 88 76T126 92Q148 92 163 77T179 39Z"  />
<glyph unicode="&quot;" horiz-adv-x="335" d="M83 392L46 600Q43 612 43 628Q43 677 84 677Q125 677 125 628Q125 621 125 614T123 600L87 392H83ZM250 392L212 600Q211 606 211 613T210 628Q210 677 251 677Q292 677 292 628Q292 621 292 614T290 600L254 392H250Z"  />
<glyph unicode="#" horiz-adv-x="637" d="M235 454L279 667H284L240 454H452L496 667H501L457 454H591L589 447H455L403 198H538L536 191H402L357 -23H353L397 191H185L140 -23H135L180 191H46L48 198H181L233 447H100L101 454H235ZM186 198H398L450 447H238L186 198Z"  />
<glyph unicode="$" horiz-adv-x="511" d="M450 162Q450 120 438 90T405 38T360 4T308 -15V-102H303V-16Q291 -18 279 -19T255 -21Q236 -21 217 -18V-102H213V-17Q183 -12 156 0T107 30T74 73T61 127Q61 158 76 178T115 198Q135 198 149 182T163 146Q163 125 153 116T129 100T106 89T95 73Q95 59 104 46T129 21T166 1T213 -12V293Q136 330 107 372T77 468Q77 538 116 584T213 646V715H217V646Q241 653 270 653Q278 653 286 653T303 651V715H308V650Q339 645 364 632T405 602T431 563T440 521Q440 493 427 476T391 459Q371 459 356 473T341 507Q341 526 349 537T368 554T386 566T395 581Q395 600 372 619T308 645V353Q350 332 377 311T420 266T443 218T450 162ZM217 291V-13Q235 -16 255 -16Q266 -16 278 -15T303 -11V253Q279 266 251 277L217 291ZM255 377Q268 372 280 366T303 355V646Q295 647 287 647T270 648Q256 648 243 647T217 640V395Q226 390 235 386T255 377ZM401 117Q401 158 382 189T308 250V-9Q326 -5 342 4T372 29T393 65T401 117ZM129 514Q129 476 146 449T213 396V639Q177 625 153 594T129 514Z"  />
<glyph unicode="%" horiz-adv-x="713" d="M181 682Q215 682 241 667T286 627T314 570T324 505Q324 472 315 440T287 384T242 344T181 328Q147 328 120 343T75 383T47 440T37 505Q37 538 46 570T74 626T120 666T181 682ZM247 564Q247 677 181 677Q115 677 115 564V448Q115 333 181 333Q247 333 247 448V564ZM586 682H627L128 -34H87L586 682ZM532 324Q566 324 593 309T638 268T666 211T676 146Q676 113 667 82T639 25T593 -15T532 -31Q498 -31 472 -16T427 25T399 81T389 146Q389 179 398 211T426 268T471 308T532 324ZM598 206Q598 319 532 319Q466 319 466 206V89Q466 -26 532 -26Q598 -26 598 89V206Z"  />
<glyph unicode="&amp;" horiz-adv-x="662" d="M20 142Q20 176 34 205T72 261T129 313T201 365Q181 411 168 449T155 517Q155 547 164 572T189 617T228 647T279 658Q301 658 321 651T358 631T383 600T393 558Q393 535 384 515T358 476T319 440T272 407L408 134Q440 189 456 240T473 329Q473 372 453 393T384 415H363V419H630V415H613Q589 415 569 403T531 370T499 321T472 261Q437 174 410 129Q440 69 466 40T534 11Q592 11 615 63T638 218H643Q643 165 637 121T614 46T569 -3T496 -21Q454 -21 420 -2T355 59Q320 17 280 -2T198 -21Q161 -21 129 -9T72 25T34 77T20 142ZM240 13Q266 13 295 24T353 62Q332 97 310 139T268 223T230 301T203 360Q152 322 125 279T97 177Q97 143 106 113T134 61T179 26T240 13ZM210 578Q210 544 227 504T270 411Q305 434 326 473T347 555Q347 612 329 632T279 653Q248 653 229 634T210 578Z"  />
<glyph unicode="&apos;" horiz-adv-x="169" d="M83 392L46 600Q43 612 43 628Q43 677 84 677Q125 677 125 628Q125 621 125 614T123 600L87 392H83Z"  />
<glyph unicode="(" horiz-adv-x="332" d="M267 -200Q168 -98 123 11T78 249Q78 376 123 486T267 698H271Q209 595 179 480T148 249Q148 134 178 19T271 -200H267Z"  />
<glyph unicode=")" horiz-adv-x="332" d="M64 698Q164 596 208 486T253 249Q253 121 209 12T64 -200H61Q123 -97 153 18T183 249Q183 364 153 479T61 698H64Z"  />
<glyph unicode="*" horiz-adv-x="488" d="M250 471Q266 480 280 495T308 525T334 555T358 575Q374 584 390 584Q404 584 414 575T425 551Q425 540 417 529T396 510Q385 504 367 500T328 492T288 482T251 467V463Q267 454 287 449T328 439T366 431T396 420Q409 413 417 402T425 379Q425 365 415 356T390 346Q382 346 374 348T358 355Q347 362 335 375T309 405T281 436T250 460L246 458Q246 440 251 420T264 380T276 343T282 312Q282 292 272 277T244 262Q226 262 217 277T207 312Q207 325 212 342T224 379T236 419T242 458L239 460Q223 451 209 436T180 405T154 376T130 355Q122 351 114 349T98 346Q84 346 74 355T63 379Q63 391 71 402T92 420Q103 427 121 431T160 439T200 448T237 463V467Q221 476 201 481T160 491T122 500T92 510Q79 518 71 529T63 551Q63 565 73 574T98 584Q115 584 130 575Q141 569 153 555T180 526T208 495T239 471L242 473Q242 491 237 511T225 550T213 588T207 619Q207 639 216 653T244 668Q262 668 272 654T282 619Q282 606 277 588T264 551T252 511T246 473L250 471Z"  />
<glyph unicode="+" horiz-adv-x="667" d="M71 322H331V583H335V322H596V317H335V59H331V317H71V322Z"  />
<glyph unicode="&#x2c;" horiz-adv-x="203" d="M51 -158Q103 -128 127 -92T151 -12Q151 9 136 9Q131 9 127 7T118 1T107 -5T90 -8Q71 -8 58 7T45 43Q45 64 58 78T93 92Q109 92 121 84T141 62T153 31T157 -4Q157 -54 132 -92T53 -162L51 -158Z"  />
<glyph unicode="-" horiz-adv-x="286" d="M37 270H249V241H37V270Z"  />
<glyph unicode="." horiz-adv-x="203" d="M154 39Q154 17 139 2T102 -14Q79 -14 64 1T49 39Q49 61 64 76T102 92Q123 92 138 77T154 39Z"  />
<glyph unicode="/" horiz-adv-x="333" d="M62 -246H57L284 683H289L62 -246Z"  />
<glyph unicode="0" horiz-adv-x="514" d="M257 -21Q210 -21 169 11T98 94T50 203T32 316Q32 370 49 429T97 538T169 620T257 653Q304 653 345 621T416 538T464 429T482 316Q482 262 465 203T417 94T345 12T257 -21ZM257 -16Q295 -16 317 3T352 58T368 144T372 255V378Q372 439 368 488T352 573T318 628T257 648Q219 648 197 629T162 574T146 489T142 378V255Q142 194 146 144T162 59T196 4T257 -16Z"  />
<glyph unicode="1" horiz-adv-x="373" d="M96 4Q126 4 136 13T147 48V585Q121 569 91 556T26 529L24 533Q82 554 137 584T238 653H241V46Q241 4 278 4H348V0H41V4H96H96Z"  />
<glyph unicode="2" horiz-adv-x="490" d="M17 0Q41 42 86 95T209 228Q240 260 262 288T300 347T322 410T330 484Q330 517 323 546T300 597T263 631T211 644Q180 644 151 631T98 596T61 545T47 482Q47 468 53 462T66 456Q72 456 77 461T88 473T102 484T124 490Q148 490 163 471T179 429Q179 403 162 386T118 369Q99 369 85 378T61 401T47 434T42 473Q42 513 57 546T99 603T161 640T237 653Q277 653 313 639T378 601T422 545T439 476Q439 449 430 427T406 384T368 344T319 303Q241 241 181 185T86 86H367Q398 86 409 101Q414 108 418 122T426 152T432 182T437 205H441L406 0H17Z"  />
<glyph unicode="3" horiz-adv-x="486" d="M419 487Q419 381 229 321Q277 315 316 303T383 273T426 228T442 166Q442 122 423 88T371 29T296 -8T206 -21Q170 -21 138 -13T83 11T46 50T32 104Q32 135 49 157T94 180Q117 180 134 164T152 120Q152 96 141 83T117 61T93 46T82 31Q82 20 93 12T122 -3T159 -12T194 -16Q263 -16 298 25T334 144Q334 177 328 208T309 263T275 301T223 316Q215 316 205 314T184 309T166 304T151 302Q142 302 142 309Q142 314 151 317T188 321Q254 323 287 363T320 488Q320 572 288 609T204 647Q182 647 160 641T121 626T93 604T82 580Q82 571 95 569T125 561T155 544T169 505Q169 479 152 460T108 440Q77 440 60 463T43 518Q43 548 57 573T95 615T149 643T212 653Q251 653 288 641T354 607T401 555T419 487Z"  />
<glyph unicode="4" horiz-adv-x="501" d="M342 653H347V197H477V193H347V45Q347 22 354 13T383 4H467V0H137V4H225Q256 4 256 39V193H10L342 653ZM256 197V526L19 197H256Z"  />
<glyph unicode="5" horiz-adv-x="472" d="M255 530Q206 530 173 535T102 551L71 301Q100 358 139 383T228 409Q273 409 311 393T378 350T423 285T440 205Q440 158 421 117T368 45T291 -3T199 -21Q164 -21 130 -11T69 18T24 63T7 120Q7 152 27 174T77 197Q102 197 119 180T137 138Q137 116 125 104T99 84T73 69T61 50Q61 38 72 26T103 5T147 -10T199 -16Q269 -16 299 36T330 195Q330 239 325 277T306 343T271 387T216 403Q168 403 128 370T72 286Q69 275 66 275Q64 275 64 278Q64 283 65 286L109 642Q175 622 223 612T304 601Q344 601 371 613T405 650H410Q393 587 357 559T255 530Z"  />
<glyph unicode="6" horiz-adv-x="491" d="M144 281Q171 346 202 374T283 403Q322 403 354 386T410 341T446 276T459 200Q459 155 444 115T402 45T337 -3T253 -21Q194 -21 153 10T84 88T45 192T32 301Q32 366 50 429T101 542T180 622T284 653Q311 653 336 645T381 623T413 587T425 540Q425 510 407 492T363 474Q341 474 326 488T311 528Q311 552 322 564T346 583T370 592T381 602Q381 619 354 633T284 648Q242 648 215 632T172 584T150 509T144 409V281ZM145 186Q145 -16 253 -16Q286 -16 306 -5T337 31T351 94T355 187Q355 234 352 273T340 339T315 382T272 397Q242 397 218 380T178 334T154 267T145 186Z"  />
<glyph unicode="7" horiz-adv-x="419" d="M264 333Q293 391 317 444T360 537H89Q69 537 58 533T40 519T32 492T26 447L23 415H20L36 653H38Q40 628 67 628H409Q376 563 348 499T296 370Q287 343 281 309T270 237T265 160T263 82Q263 63 260 44T250 10T230 -14T200 -24Q173 -24 160 -5T146 37Q146 72 176 145T264 333Z"  />
<glyph unicode="8" horiz-adv-x="505" d="M435 507Q435 455 404 422T313 355Q390 320 425 273T461 165Q461 123 444 89T397 31T328 -7T246 -21Q207 -21 171 -11T106 18T61 67T44 134Q44 162 53 184T81 224T126 259T186 293Q124 322 93 370T62 479Q62 514 76 545T115 601T175 639T252 653Q291 653 324 642T382 610T421 564T435 507ZM392 115Q392 144 380 166T344 209T281 248T191 291Q143 268 122 231T101 142Q101 68 139 26T251 -16Q317 -16 354 20T392 115ZM113 524Q113 495 127 472T168 429T231 392T309 358Q347 380 363 414T379 493Q379 568 343 608T246 648Q183 648 148 613T113 524Z"  />
<glyph unicode="9" horiz-adv-x="491" d="M208 -16Q250 -16 277 1T319 51T341 128T348 231V342Q333 312 319 291T288 256T252 236T208 229Q169 229 137 246T81 291T45 357T32 433Q32 477 47 517T89 587T154 635T238 653Q296 653 338 623T407 545T446 441T459 332Q459 267 441 204T390 90T311 10T207 -21Q180 -21 155 -13T110 9T78 45T66 93Q66 123 84 140T127 158Q149 158 165 144T181 104Q181 80 170 68T145 50T120 40T109 30Q109 13 136 -1T208 -16ZM347 447Q347 648 237 648Q204 648 185 637T154 601T140 539T136 446Q136 398 139 359T151 292T176 249T219 234Q249 234 273 251T313 297T338 365T347 447Z"  />
<glyph unicode=":" horiz-adv-x="203" d="M154 380Q154 358 139 343T102 327Q79 327 64 342T49 380Q49 402 64 417T102 433Q123 433 138 418T154 380ZM154 39Q154 17 139 2T102 -14Q79 -14 64 1T49 39Q49 61 64 76T102 92Q123 92 138 77T154 39Z"  />
<glyph unicode=";" horiz-adv-x="203" d="M51 -158Q103 -128 127 -92T151 -12Q151 9 136 9Q131 9 127 7T118 1T107 -5T90 -8Q71 -8 58 7T45 43Q45 64 58 78T93 92Q109 92 121 84T141 62T153 31T157 -4Q157 -54 132 -92T53 -162L51 -158ZM154 380Q154 358 139 343T102 327Q79 327 64 342T49 380Q49 402 64 417T102 433Q123 433 138 418T154 380Z"  />
<glyph unicode="&lt;" horiz-adv-x="667" d="M78 321L595 102V97L72 319V323L595 544V539L78 321Z"  />
<glyph unicode="=" horiz-adv-x="667" d="M72 437H595V433H72V437ZM72 211H595V207H72V211Z"  />
<glyph unicode="&gt;" horiz-adv-x="667" d="M72 102L588 319L72 539V544L595 322V317L72 97V102Z"  />
<glyph unicode="?" horiz-adv-x="344" d="M37 472Q37 519 48 554T79 612T123 646T175 658Q203 658 227 648T269 618T297 570T308 508Q308 466 292 430T238 363Q223 350 205 336T171 307T145 273T134 233Q134 209 145 193T178 176Q231 176 244 258H249Q235 171 177 171Q159 171 145 180T122 203T107 237T102 276Q102 312 114 337T144 381T183 417T222 452T252 493T264 549Q264 574 256 593T236 626T207 646T173 653Q147 653 123 642T81 609T52 552T41 472H37ZM220 39Q220 17 205 2T167 -14Q145 -14 130 1T115 39Q115 61 130 76T167 92Q189 92 204 77T220 39Z"  />
<glyph unicode="@" horiz-adv-x="917" d="M887 84Q862 19 822 -35T728 -127T611 -187T474 -209Q381 -209 303 -178T168 -91T79 44T47 217Q47 318 82 404T180 553T328 651T512 687Q592 687 657 662T767 591T838 480T863 335Q863 276 844 219T790 116T709 44T606 16Q565 16 541 39T517 104Q517 114 518 128T522 157Q499 115 478 89T437 46T399 24T365 18Q338 18 315 30T275 65T249 116T239 180Q239 245 265 296T331 384T413 439T492 459Q527 459 548 430T575 346L610 447H689L590 97Q585 75 585 62Q585 25 622 25Q668 25 711 50T786 119T838 218T858 335Q858 413 834 475T765 582T657 649T515 673Q421 673 343 635T207 533T119 384T87 204Q87 115 115 41T195 -88T318 -172T474 -203Q546 -203 609 -182T725 -123T817 -33T882 84H887ZM494 455Q476 455 461 444T430 416Q406 387 386 341T350 246T325 157T316 98Q316 63 329 43T365 22Q394 22 420 39T469 83T510 145T542 215T562 282T569 337Q569 393 548 424T494 455Z"  />
<glyph unicode="A" horiz-adv-x="694" d="M187 228Q168 177 158 140T147 87Q147 53 176 29T256 4H289V0H2V4H11Q40 4 61 15T99 46T129 92T153 149L352 685H385L586 97Q607 34 622 21Q630 14 643 9T675 4H691V0H378V4H464Q484 4 493 13T502 36Q502 52 498 64L439 234H189L187 228ZM190 239H438L319 586L190 239Z"  />
<glyph unicode="B" horiz-adv-x="642" d="M12 674H313Q367 674 415 665T500 636T558 587T579 517Q579 480 563 453T518 407T446 375T352 355Q402 352 449 340T532 305T590 251T612 179Q612 135 587 102T522 46T429 12T322 0H12V4H65Q115 4 115 62V609Q115 669 65 669H12V674ZM215 357H329Q393 357 432 397T471 510Q471 582 434 625T333 669H241Q215 669 215 636V357ZM215 353V39Q215 4 243 4H330Q367 4 398 17T452 54T487 110T500 180Q500 220 487 252T451 306T397 341T331 353H215Z"  />
<glyph unicode="C" horiz-adv-x="623" d="M326 687Q433 687 504 571Q533 594 551 624T575 687H578V383H575Q560 441 538 495T485 591T416 658T327 683Q243 683 196 584Q179 548 172 477T164 308Q164 142 206 65T341 -12Q392 -12 435 8T509 63T560 144T582 245H586Q584 190 565 142T513 59T437 4T342 -17Q283 -17 230 10T135 83T69 193T44 329Q44 396 66 460T126 575T216 656T326 687Z"  />
<glyph unicode="D" horiz-adv-x="718" d="M12 674H342Q412 674 473 646T580 571T652 463T679 333Q679 264 651 204T574 98T464 27T336 0H12V4H65Q115 4 115 62V612Q115 669 65 669H12V674ZM242 669Q215 669 215 639V44Q215 4 244 4H339Q401 4 443 32T512 108T550 218T562 349Q562 418 552 477T515 578T443 645T329 669H242Z"  />
<glyph unicode="E" horiz-adv-x="644" d="M12 674H589V430H586Q560 541 504 605T362 669H238Q215 669 215 637V343H250Q403 343 409 524H413V154H409Q409 246 365 292T255 338H215V38Q215 4 246 4H373Q418 4 455 22T521 72T570 148T601 244H604L599 0H12V4H64Q115 4 115 62V612Q115 669 66 669H12V674Z"  />
<glyph unicode="F" horiz-adv-x="604" d="M12 674H580V425H576Q521 669 352 669H238Q215 669 215 637V345H251Q406 345 412 526H416V152H412Q412 193 405 228T379 288T331 327T256 341H215V92Q215 50 224 27T261 4H336V0H12V4H64Q115 4 115 62V612Q115 669 66 669H12V674Z"  />
<glyph unicode="G" horiz-adv-x="712" d="M342 683Q403 683 451 655T535 571Q555 590 569 617T591 683H594L609 370H606Q592 437 570 493T516 591T442 655T346 678Q289 678 253 651T196 574T167 459T159 313Q159 242 166 183T194 80T247 12T334 -12Q370 -12 402 -1T458 32T495 88T509 166V237Q509 270 475 270H376V274H708V270H642Q605 270 605 232V-17H603Q592 33 575 66T541 118Q499 52 453 18T337 -17Q269 -17 214 14T120 94T60 202T39 318Q39 383 62 448T127 565T224 650T342 683Z"  />
<glyph unicode="H" horiz-adv-x="730" d="M12 674H315V669H265Q215 669 215 612V352H516V612Q516 669 466 669H413V674H718V669H666Q616 669 616 612V62Q616 4 666 4H718V0H413V4H466Q516 4 516 62V347H215V62Q215 4 265 4H315V0H12V4H65Q115 4 115 62V612Q115 669 65 669H12V674Z"  />
<glyph unicode="I" horiz-adv-x="330" d="M12 4H65Q115 4 115 62V612Q115 669 65 669H12V674H317V669H265Q215 669 215 612V62Q215 4 265 4H317V0H12V4Z"  />
<glyph unicode="J" horiz-adv-x="502" d="M498 674V669H445Q395 669 395 612V213Q395 162 380 119T338 45T273 -3T187 -21Q150 -21 117 -9T59 25T20 77T5 144Q5 179 22 205T72 232Q98 232 115 213T133 167Q133 139 120 125T90 101T61 86T47 67Q47 50 59 35T90 9T134 -9T185 -16Q246 -16 270 19T295 126V612Q295 669 245 669H192V674H498Z"  />
<glyph unicode="K" horiz-adv-x="763" d="M713 674V669H701Q640 669 592 642T494 564L370 440L617 90Q643 52 676 28T748 4H760V0H422V4H503Q517 4 523 10T530 27Q530 39 518 57L298 368L215 284V62Q215 4 265 4H317V0H12V4H65Q115 4 115 62V612Q115 669 65 669H12V674H317V669H265Q215 669 215 612V291L463 540Q486 562 497 582T508 619Q508 643 492 656T448 669H408V674H713Z"  />
<glyph unicode="L" horiz-adv-x="599" d="M12 4H60Q86 4 100 18T115 62V612Q115 641 101 655T60 669H14V674H310V669H265Q215 669 215 612V57Q215 4 257 4H328Q376 4 417 25T490 82T546 165T581 264H584L576 0H12V4Z"  />
<glyph unicode="M" horiz-adv-x="852" d="M587 4Q637 4 637 62V653L386 -4H382L129 648V161Q129 4 227 4H258V0H12V4H30Q81 4 103 43T125 161V597Q125 669 44 669H12V674H235L438 146L640 674H840V669H791Q766 669 752 654T737 610V62Q737 33 753 19T795 4H840V0H520V4H587H587Z"  />
<glyph unicode="N" horiz-adv-x="701" d="M194 674L576 119V463Q576 511 571 549T553 614T515 655T452 669H429V674H696V669H676Q640 669 621 650T592 601T582 535T580 463V-23H552L129 592V207Q129 156 134 118T154 55T191 17T250 4H287V0H12V4H32Q55 4 72 13T101 46T119 109T125 207V521Q125 561 122 589T109 635T82 661T35 669H12V674H194Z"  />
<glyph unicode="O" horiz-adv-x="698" d="M39 330Q39 397 62 460T128 573T227 653T350 683Q417 683 473 653T571 573T635 460T659 330Q659 263 636 201T571 90T473 12T350 -17Q278 -17 221 14T123 96T61 208T39 330ZM521 551Q505 613 461 645T350 678Q284 678 237 645T175 549Q167 518 164 460T160 331Q160 259 164 203T176 115Q192 50 236 19T349 -12Q420 -12 465 22T524 123Q531 155 534 213T538 341Q538 410 534 466T521 551Z"  />
<glyph unicode="P" horiz-adv-x="612" d="M215 318V144Q215 109 216 83T222 40T237 13T268 4H336V0H12V4H65Q115 4 115 62V612Q115 669 65 669H12V674H332Q387 674 434 663T517 629T572 572T592 492Q592 451 570 419T511 365T429 330T337 318H215ZM215 322H314Q402 322 440 368T479 492Q479 579 439 624T319 669H254Q232 669 224 662T215 631V322Z"  />
<glyph unicode="Q" horiz-adv-x="698" d="M39 330Q39 397 62 460T128 573T227 653T350 683Q417 683 473 653T571 573T635 460T659 330Q659 280 646 233T609 145T552 71T479 16Q479 11 481 3Q490 -59 501 -99T525 -163T554 -196T592 -206Q637 -206 663 -165T691 -49H696Q695 -91 688 -126T664 -186T622 -226T562 -240Q508 -240 470 -213T416 -120Q410 -96 407 -67T401 -12Q373 -17 350 -17Q278 -17 221 14T123 96T61 208T39 330ZM521 551Q505 613 461 645T350 678Q284 678 237 645T175 549Q167 518 164 460T160 331Q160 259 164 203T176 115Q189 63 219 33T297 -7Q280 10 272 32T263 76Q263 117 288 140T350 164Q405 164 434 127T476 31Q512 66 524 123Q531 155 534 213T538 341Q538 410 534 466T521 551ZM269 76Q269 55 277 33T305 -8Q316 -10 326 -11T349 -12Q377 -12 401 -6Q399 10 399 23T399 44Q399 100 387 125T341 151Q311 151 290 131T269 76Z"  />
<glyph unicode="R" horiz-adv-x="693" d="M12 4H65Q115 4 115 62V612Q115 669 65 669H12V674H328Q381 674 428 663T510 631T566 578T587 506Q587 470 566 442T511 392T432 358T340 338Q395 327 435 308T503 259T544 184T564 79Q566 50 575 34T604 17Q628 17 646 56T664 164V218H668V179Q668 91 648 43T572 -6Q510 -6 482 35T449 145Q446 197 436 234T407 294T357 327T284 338H215V62Q215 4 265 4H317V0H12V4ZM265 669Q215 669 215 612V343H314Q389 343 430 384T472 507Q472 588 427 628T304 669H265Z"  />
<glyph unicode="S" horiz-adv-x="569" d="M325 -17Q263 -17 213 9T122 101Q99 72 87 46T63 -14H60V295H63Q90 136 156 62T325 -12Q358 -12 385 -4T433 21T464 62T475 116Q475 151 460 177T417 224T352 262T272 295Q230 311 191 329T123 371T77 427T59 504Q59 541 73 574T113 631T172 669T245 683Q297 683 342 657T423 583Q446 607 460 630T481 677H485V416H481Q474 471 454 518T403 601T332 657T245 678Q218 678 193 669T149 642T117 603T105 555Q105 527 119 506T158 467T219 434T297 403Q347 385 388 365T458 319T504 256T520 169Q520 126 506 92T465 33T403 -4T325 -17Z"  />
<glyph unicode="T" horiz-adv-x="650" d="M622 421Q614 476 600 521T563 600T507 651T425 669Q398 669 387 663T376 638V62Q376 4 427 4H496V0H142V4H227Q276 4 276 62V638Q276 654 266 661T228 669Q178 669 144 649T86 595T49 516T28 421H24V674H625V421H622Z"  />
<glyph unicode="U" horiz-adv-x="728" d="M735 669Q613 669 613 515V253Q613 193 596 143T547 56T469 -1T363 -22Q263 -22 188 38Q115 98 115 236V612Q115 669 65 669H12V674H317V669H263Q215 669 215 608V197Q215 -11 382 -11Q436 -11 478 9T549 65T593 149T609 253V491Q609 590 571 630Q532 669 479 669H447V674H735V669Z"  />
<glyph unicode="V" horiz-adv-x="695" d="M204 637Q204 628 207 619L381 101L524 475Q532 496 538 511T547 540T552 564T554 586Q554 627 527 648T462 669H410V674H693V669H687Q650 669 613 632T552 534L339 -21H319L103 619Q86 669 40 669H2V674H327V669H245Q204 669 204 637Z"  />
<glyph unicode="W" horiz-adv-x="1009" d="M197 636Q197 628 200 619L349 108L491 520L468 602Q457 639 444 654T406 669H352V674H671V669H604Q560 669 560 636Q560 631 560 628T562 619L711 109L838 485Q848 513 851 536T855 582Q855 620 833 644T763 669H736V674H1006V669H995Q970 669 948 654T907 615T873 560T846 495L672 -21H648L494 513L310 -21H286L105 610Q88 669 38 669H2V674H291V669H254Q197 669 197 636Z"  />
<glyph unicode="X" horiz-adv-x="734" d="M283 669Q251 669 251 646Q251 635 260 622L408 394L515 539Q529 559 535 578T542 614Q542 638 524 653T474 669H420V674H715V669H699Q660 669 615 638T525 545L410 390L611 81Q624 60 634 46T656 22T681 8T715 4H731V0H409V4H489Q507 4 515 10T524 27Q524 36 518 45L345 312L219 143Q200 118 192 97T184 60Q184 36 203 20T258 4H335V0H2V4H14Q47 6 73 16T123 44T169 88T217 148L342 315L139 629Q125 651 112 660T75 669H22V674H356V669H283Z"  />
<glyph unicode="Y" horiz-adv-x="723" d="M206 646Q206 634 214 618L404 269L543 530Q553 549 557 568T561 603Q561 633 539 651T479 669H418V674H721V669H708Q684 669 664 662T625 639T586 594T545 525L406 263V62Q406 4 457 4H525V0H171V4H256Q306 4 306 62V241L92 633Q81 653 67 661T30 669H2V674H327V669H240Q206 669 206 646Z"  />
<glyph unicode="Z" horiz-adv-x="648" d="M161 4H354Q385 4 420 18T487 62T546 140T588 257H591L585 0H37L489 669H304Q255 669 216 649T148 597T101 522T75 435H71L76 674H611L161 4Z"  />
<glyph unicode="[" horiz-adv-x="338" d="M88 674H304V669H167V-176H303V-181H88V674Z"  />
<glyph unicode="\" horiz-adv-x="333" d="M44 683H49L277 -246H272L44 683Z"  />
<glyph unicode="]" horiz-adv-x="337" d="M34 674H250V-181H34V-176H170V669H34V674Z"  />
<glyph unicode="^" horiz-adv-x="469" d="M234 667L30 324H23L232 674H236L445 324H439L234 667Z"  />
<glyph unicode="_" horiz-adv-x="500" d="M509 -201H-8V-175H509V-201Z"  />
<glyph unicode="`" horiz-adv-x="316" d="M117 596Q94 613 84 625T74 652Q74 667 83 676T106 685Q126 685 140 670T176 617L238 505H234L117 596Z"  />
<glyph unicode="a" horiz-adv-x="506" d="M408 -6Q370 -6 343 16T307 98Q284 44 252 19T172 -6Q108 -6 70 24T32 101Q32 133 49 153T92 187T152 209T217 223Q272 233 305 250V330Q305 375 281 400T213 426Q199 426 182 422T149 411T124 393T114 371Q114 364 122 359T140 348T158 331T166 304Q166 284 153 272T120 259Q97 259 83 275T69 312Q69 339 83 361T119 399T171 424T230 433Q395 433 395 297V91Q395 11 432 11Q467 11 482 52T497 160H501Q501 71 480 33T408 -6ZM305 245Q281 234 250 225Q222 217 200 209T162 186T138 148T129 89Q129 54 145 29T198 4Q219 4 238 15T272 46T296 89T305 139V245Z"  />
<glyph unicode="b" horiz-adv-x="545" d="M164 304Q186 373 221 403T304 433Q351 433 390 415T456 365T499 295T514 212Q514 165 498 125T454 56T387 11T302 -6Q259 -6 222 21T157 114Q131 100 109 66T77 -10H73V620Q73 646 60 657T21 669H-23V674H10Q26 674 45 674T86 676T127 679T164 684V304ZM160 212Q160 164 169 125T197 58T241 15T300 -1Q355 -1 382 53T410 208Q410 322 383 375T302 428Q266 428 240 411T195 363T169 294T160 212Z"  />
<glyph unicode="c" horiz-adv-x="442" d="M406 160Q404 84 361 39T248 -6Q204 -6 165 10T96 56T49 124T32 208Q32 253 49 293T97 365T168 414T257 433Q288 433 315 423T361 394T392 353T403 305Q403 279 391 262T354 245Q331 245 319 260T307 293Q307 315 316 325T336 341T356 351T365 366Q365 377 357 388T334 408T300 422T257 428Q194 428 165 376T136 208Q136 107 166 54T256 0Q287 0 313 12T359 45T389 95T401 160H406Z"  />
<glyph unicode="d" horiz-adv-x="554" d="M510 0Q478 0 445 -2T379 -10V124Q360 59 324 26T239 -7Q192 -7 154 9T89 55T47 124T32 208Q32 253 47 293T90 365T156 414T241 433Q284 433 319 404T379 304V620Q379 646 366 657T326 669H278V674H316Q332 674 351 674T392 676T433 679T470 684V49Q470 26 480 15T517 4H548V0H510ZM133 208Q133 97 160 48T241 -2Q277 -2 303 16T348 63T374 130T383 208Q383 254 374 294T346 364T302 411T243 428Q188 428 161 376T133 208Z"  />
<glyph unicode="e" horiz-adv-x="491" d="M456 160Q448 121 430 91T386 39T326 6T255 -6Q207 -6 166 10T96 56T49 124T32 208Q32 253 48 293T94 365T163 414T250 433Q293 433 329 417T392 373T435 308T457 228H136V202Q136 101 170 51T263 0Q296 0 327 11T383 43T426 93T451 160H456ZM321 232Q338 232 344 241T350 283Q350 313 343 339T323 385T290 416T248 428Q198 428 167 377T136 232H321Z"  />
<glyph unicode="f" horiz-adv-x="328" d="M73 4Q96 4 105 15T114 53V415H17V419H114V468Q114 574 163 629T303 685Q326 685 348 681T387 667T415 643T426 610Q426 585 411 572T377 558Q353 558 340 573T327 605Q327 619 332 628T344 643T355 653T361 661Q361 669 349 674T307 680Q285 680 267 673T235 651T213 612T205 553V419H296V415H205V53Q205 27 213 16T245 4H277V0H38V4H73Z"  />
<glyph unicode="g" horiz-adv-x="510" d="M7 -130Q7 -98 43 -81T163 -54Q95 -46 63 -24T30 46Q30 67 40 81T66 105T104 118T147 122Q157 122 167 122T188 121Q150 128 122 143T74 178T46 222T36 271Q36 308 51 338T92 389T151 421T220 433Q274 433 316 407T387 325Q387 332 386 340T385 361Q385 391 400 411T448 432Q476 432 495 416T515 372Q515 352 504 343T478 333Q462 333 452 342T441 368Q441 375 443 379T449 388T455 396T458 406Q458 414 453 419T436 425Q416 425 403 408T389 361Q389 349 392 339T398 318T404 295T407 268Q407 232 391 204T346 156T281 126T204 116Q191 116 177 117T147 118Q112 118 88 107T64 73Q64 37 134 37Q153 37 169 38T202 40T237 42T276 43Q357 43 404 10T451 -92Q451 -131 433 -159T385 -205T316 -231T233 -240Q194 -240 154 -234T81 -215T28 -181T7 -130ZM233 -235Q278 -235 315 -227T378 -202T419 -165T434 -117Q434 -79 400 -65T307 -51Q205 -51 151 -60Q111 -67 92 -86T73 -131Q73 -158 86 -178T121 -210T172 -229T233 -235ZM220 428Q125 428 125 267Q125 201 149 162T218 122Q318 122 318 278Q318 351 294 389T220 428Z"  />
<glyph unicode="h" horiz-adv-x="560" d="M179 288Q219 433 331 433Q369 433 397 421T444 386T472 332T482 263V53Q482 26 491 15T523 4H555V0H316V4H351Q374 4 383 15T392 53V292Q392 353 373 388T316 424Q285 424 260 408T216 364T189 301T179 229V53Q179 27 187 16T219 4H251V0H13V4H48Q71 4 79 15T88 53V625Q88 648 78 658T41 669H10V674H48Q80 674 113 676T179 684V288Z"  />
<glyph unicode="i" horiz-adv-x="264" d="M179 53Q179 27 187 16T219 4H251V0H13V4H48Q71 4 79 15T88 53V372Q88 394 76 404T41 415H10V419H48Q79 419 111 421T179 430V53ZM76 573Q76 596 92 612T132 629Q155 629 171 613T188 573Q188 550 172 534T132 517Q109 517 93 533T76 573Z"  />
<glyph unicode="j" horiz-adv-x="251" d="M47 419Q78 419 110 421T179 430V-78Q179 -108 171 -137T145 -189T102 -226T41 -240Q23 -240 5 -235T-27 -219T-50 -192T-59 -156Q-59 -134 -47 -121T-11 -107Q9 -107 20 -118T31 -147Q31 -164 25 -174T10 -190T-4 -201T-11 -212Q-11 -222 5 -228T41 -235Q68 -235 78 -219T88 -154V372Q88 394 75 404T41 415H9V419H47ZM76 573Q76 596 92 612T132 629Q155 629 171 613T188 573Q188 550 172 534T132 517Q109 517 93 533T76 573Z"  />
<glyph unicode="k" horiz-adv-x="549" d="M179 156L346 323Q359 336 365 347T372 374Q372 391 354 403T295 415H260V419H527V415H513Q444 415 368 338L310 280L473 51Q488 29 506 17T544 4H555V0H305V4H353Q364 4 370 8T377 22Q377 32 368 43L246 216L179 149V53Q179 27 187 16T219 4H251V0H13V4H48Q71 4 79 15T88 53V626Q88 649 76 659T41 669H10V674H48Q79 674 111 676T179 684V156Z"  />
<glyph unicode="l" horiz-adv-x="264" d="M179 53Q179 27 187 16T219 4H251V0H13V4H48Q71 4 79 15T88 53V626Q88 649 76 659T41 669H10V674H48Q79 674 111 676T179 684V53Z"  />
<glyph unicode="m" horiz-adv-x="834" d="M328 433Q382 433 418 402T467 300Q487 364 525 398T613 433Q649 433 676 421T720 388T747 339T756 277V53Q756 27 765 16T797 4H829V0H590V4H625Q648 4 657 15T666 53V298Q666 365 651 394T601 424Q578 424 555 413T512 378T481 318T468 233V53Q468 26 476 15T508 4H541V0H301V4H336Q359 4 368 15T377 53V304Q377 424 313 424Q295 424 272 414T228 377T193 305T179 191V53Q179 27 187 16T219 4H251V0H13V4H48Q71 4 79 15T88 53V372Q88 394 76 404T41 415H10V419H48Q79 419 111 421T179 430V271Q196 353 234 393T328 433Z"  />
<glyph unicode="n" horiz-adv-x="560" d="M179 288Q219 433 331 433Q369 433 397 421T444 386T472 332T482 263V53Q482 26 491 15T523 4H555V0H316V4H351Q374 4 383 15T392 53V292Q392 353 373 388T316 424Q285 424 260 408T216 364T189 301T179 229V53Q179 27 187 16T219 4H251V0H13V4H48Q71 4 79 15T88 53V371Q88 393 78 404T41 415H10V419H48Q80 419 113 422T179 430V288Z"  />
<glyph unicode="o" horiz-adv-x="522" d="M261 -6Q212 -6 170 10T98 56T50 124T32 208Q32 253 50 293T99 365T171 414T261 433Q309 433 351 415T424 367T473 295T491 208Q491 163 473 124T424 56T351 11T261 -6ZM261 428Q195 428 166 376T136 208Q136 97 166 48T261 -1Q300 -1 324 13T363 54T382 119T387 208Q387 322 356 375T261 428Z"  />
<glyph unicode="p" horiz-adv-x="556" d="M312 -6Q270 -6 236 23T174 121V-181Q174 -207 182 -218T214 -229H246V-234H8V-229H43Q66 -229 74 -218T83 -181V366Q83 392 70 403T31 415H5V419H21Q36 419 56 419T96 421T137 425T174 430V306Q193 363 228 398T314 433Q360 433 399 415T465 367T508 295T524 208Q524 163 508 124T464 56T397 11T312 -6ZM170 212Q170 171 180 133T208 65T252 17T310 -1Q365 -1 392 53T420 208Q420 322 393 375T312 428Q276 428 250 410T206 361T179 292T170 212Z"  />
<glyph unicode="q" horiz-adv-x="542" d="M242 433Q284 433 320 404T382 315Q411 331 433 362T466 436H470V-181Q470 -207 478 -218T509 -229H542V-234H303V-229H338Q361 -229 370 -218T379 -181V125Q358 54 320 24T240 -6Q193 -6 155 12T89 61T47 132T32 214Q32 261 47 301T91 370T157 416T242 433ZM133 218Q133 104 159 52T241 -1Q276 -1 302 17T347 65T374 134T383 214Q383 262 374 301T346 369T302 412T244 428Q187 428 160 374T133 218Z"  />
<glyph unicode="r" horiz-adv-x="412" d="M179 292Q200 365 235 399T310 433Q328 433 344 426T373 408T393 381T401 348Q401 321 387 306T350 290Q327 290 311 304T295 339Q295 354 301 363T314 380T328 393T334 407Q334 415 327 421T306 427Q280 427 257 411T216 367T189 301T179 219V53Q179 27 187 16T219 4H251V0H13V4H48Q71 4 79 15T88 53V372Q88 394 76 404T41 415H10V419H48Q79 419 111 421T179 430V292Z"  />
<glyph unicode="s" horiz-adv-x="395" d="M229 -6Q194 -6 159 7T95 55Q78 44 66 27T47 -6H44V179H47Q66 91 110 45T229 -1Q268 -1 294 18T321 79Q321 97 312 109T285 132T244 150T192 167Q158 177 131 189T84 218T55 259T45 314Q45 339 55 361T82 399T123 424T175 433Q210 433 240 416T291 374Q310 386 320 399T335 428H338V260H335Q330 296 316 326T280 379T232 415T175 428Q139 428 111 407T83 347Q83 315 115 298T203 264Q239 252 268 240T319 210T351 169T363 115Q363 58 325 26T229 -6Z"  />
<glyph unicode="t" horiz-adv-x="374" d="M184 615V419H323V415H184V89Q184 54 198 30T245 5Q296 5 324 59T352 226H356Q356 108 326 51T219 -6Q159 -6 126 24T93 111V415H5V418Q76 434 122 484T180 615H184Z"  />
<glyph unicode="u" horiz-adv-x="544" d="M545 4V0H507Q475 0 442 -2T376 -10V143Q354 65 319 30T220 -6Q181 -6 154 6T110 41T86 95T78 164V371Q78 393 67 404T30 415H-1V419H37Q69 419 102 422T168 430V130Q168 70 183 35T237 0Q273 0 299 19T343 70T368 138T376 211V371Q376 393 366 404T329 415H297V419H335Q367 419 400 422T467 430V49Q467 26 477 15T514 4H545Z"  />
<glyph unicode="v" horiz-adv-x="531" d="M184 386Q184 381 187 375L307 76L399 291Q409 313 413 331T417 367Q417 390 402 402T358 415H316V419H536V415H527Q486 415 463 394T418 323L275 -10H245L103 340Q89 375 75 395T31 415H-5V419H266V415H218Q201 415 193 407T184 386Z"  />
<glyph unicode="w" horiz-adv-x="706" d="M420 396Q420 387 423 375L514 84L605 317Q619 353 619 375Q619 392 607 403T570 415H543V419H710V415H708Q648 415 615 331L482 -10H450L359 283L240 -10H209L89 328Q81 350 75 366T60 393T42 409T15 415H-5V419H216V415H189Q162 415 162 398Q162 388 166 376L271 79L357 290L327 388Q322 402 314 408T285 415H260V419H494V415H451Q420 415 420 396Z"  />
<glyph unicode="x" horiz-adv-x="533" d="M303 4Q341 4 341 23Q341 28 339 32T333 42L233 186L160 96Q133 62 133 37Q133 4 200 4H226V0H10V4H23Q53 4 86 28T154 95L231 190L105 373Q90 394 75 404T38 415H18V419H264V415H226Q202 415 202 401Q202 391 211 378L295 256L370 353Q384 372 384 387Q384 415 346 415H308V419H510V415H487Q458 415 424 393T353 323L298 252L430 61Q440 47 448 36T466 18T485 8T510 4H523V0H275V4H303Z"  />
<glyph unicode="y" horiz-adv-x="542" d="M547 419V415H535Q493 415 471 391T431 327L249 -111Q221 -178 188 -209T108 -240Q63 -240 36 -219T9 -163Q9 -138 23 -123T61 -108Q83 -108 96 -122T109 -157Q109 -170 104 -179T93 -195T82 -208T77 -219Q77 -235 109 -235Q154 -235 185 -205T243 -113L267 -57L102 340Q95 357 89 371T74 394T54 409T25 415H-5V419H266V415H218Q201 415 193 407T184 386Q184 380 187 374L315 62L411 292Q429 334 429 367Q429 390 414 402T370 415H327V419H547Z"  />
<glyph unicode="z" horiz-adv-x="453" d="M139 4H241Q285 4 315 15T366 47T398 99T415 170H418V0H34V8L301 415H215Q78 415 57 252H53V419H412L139 4Z"  />
<glyph unicode="{" horiz-adv-x="355" d="M321 -199Q239 -187 189 -137T138 -9Q138 9 141 27T149 64T156 101T160 137Q160 158 151 176T127 209T92 234T49 247V251Q104 260 132 292T160 364Q160 384 157 401T149 436T142 472T138 513Q138 550 152 581T191 637T249 676T321 698V693Q211 661 211 572Q211 534 222 496T233 418Q233 361 192 318T64 249Q150 223 191 180T233 79Q233 42 222 3T211 -74Q211 -163 321 -195V-199Z"  />
<glyph unicode="|" horiz-adv-x="182" d="M97 674V-181H85V674H97Z"  />
<glyph unicode="}" horiz-adv-x="355" d="M34 698Q117 686 167 636T217 508Q217 471 206 434T195 362Q195 341 204 322T228 289T264 265T307 252V248Q252 238 224 206T195 135Q195 115 198 98T206 63T214 27T218 -14Q218 -52 204 -83T165 -138T107 -177T34 -199V-195Q145 -162 145 -73Q145 -54 142 -35T134 3T127 41T123 80Q123 137 164 181T291 250Q206 276 165 319T123 420Q123 438 126 457T134 495T141 534T145 572Q145 661 34 693V698Z"  />
<glyph unicode="~" horiz-adv-x="667" d="M479 244Q452 244 413 258T332 289T251 320T184 334Q142 334 113 312T78 245H73Q73 277 81 305T105 353T141 386T187 398Q214 398 253 384T334 353T415 322T482 308Q525 308 553 330T589 397H593Q593 365 585 337T561 289T525 256T479 244Z"  />
<glyph unicode="&#xA0;" horiz-adv-x="250" />
<glyph unicode="&#xA1;" horiz-adv-x="252" d="M128 274V246Q128 189 134 129T149 16T163 -80T170 -146Q170 -187 158 -210T126 -233Q106 -233 94 -210T82 -146Q82 -123 88 -81T103 15T117 129T124 246V274H128ZM73 393Q73 414 88 429T126 445Q148 445 163 430T179 393Q179 371 164 356T126 340Q104 340 89 355T73 393Z"  />
<glyph unicode="&#xA2;" horiz-adv-x="448" d="M406 160Q404 84 361 39T248 -6Q198 -6 152 16L62 -244H57L148 18Q96 45 64 95T32 208Q32 253 49 293T97 365T168 414T257 433Q265 433 273 432T290 429L379 684H384L295 428Q319 422 339 410T373 382T395 346T403 305Q403 279 391 262T354 245Q331 245 319 260T307 293Q307 315 316 325T336 341T356 351T365 366Q365 383 346 399T294 424L165 54Q195 0 256 0Q287 0 313 12T359 45T389 95T401 160H406ZM136 208Q136 114 162 60L289 425Q274 428 257 428Q194 428 165 376T136 208Z"  />
<glyph unicode="&#xA3;" horiz-adv-x="510" d="M248 296Q251 276 251 260Q251 211 238 164T204 76Q237 69 274 63T356 56Q404 56 432 72T463 121H466Q466 91 456 65T430 19T392 -12T349 -23Q326 -23 305 -16T265 1T226 24T188 48Q166 12 143 -4T91 -21Q67 -21 52 -8T36 29Q36 54 59 71T124 88Q138 88 154 86T187 80Q196 110 196 149Q196 187 185 222T161 296H60V300H159Q150 328 144 357T137 420Q137 466 149 508T184 582T239 633T313 653Q340 653 363 644T403 620T429 583T439 538Q439 503 422 479T375 454Q355 454 341 465T327 499Q327 519 338 531T367 543Q377 543 384 539T398 531T409 522T419 518Q425 518 430 522T435 538Q435 585 401 616T313 648Q290 648 271 638T237 611T216 570T208 521Q208 496 212 468T223 410T237 353T248 300H363V296H248ZM91 -16Q117 -16 139 2T177 54Q160 63 143 69T106 75Q74 75 57 62T40 29Q40 6 54 -5T91 -16Z"  />
<glyph unicode="&#xA4;" horiz-adv-x="677" d="M532 549L562 519L501 458Q550 396 550 319Q550 245 501 183L562 122L532 92L471 152Q408 104 333 104Q257 104 196 152L134 92L104 122L166 183Q116 245 116 320Q116 394 166 458L104 519L134 549L196 488Q258 537 333 537Q407 537 471 488L532 549ZM160 320Q160 284 173 253T210 198T265 161T333 147Q369 147 400 160T455 197T492 252T506 320Q506 356 493 387T456 443T401 480T333 494Q297 494 266 481T211 443T174 388T160 320Z"  />
<glyph unicode="&#xA5;" horiz-adv-x="660" d="M386 297L374 274V163H572V158H374V62Q374 4 424 4H493V0H139V4H224Q274 4 274 62V158H76V163H274V254L250 297H76V301H248L92 588Q81 608 67 616T30 625H2V628H294V625H240Q223 625 215 619T206 601Q206 589 214 573L373 281L480 485Q490 504 494 523T498 558Q498 588 476 606T416 625H386V628H657V625H645Q622 625 602 618T563 595T524 550T483 481L388 301H572V297H386Z"  />
<glyph unicode="&#xA6;" horiz-adv-x="182" d="M97 117V-181H85V117H97ZM85 333V674H97V333H85Z"  />
<glyph unicode="&#xA7;" horiz-adv-x="396" d="M271 98Q268 98 262 98T249 100Q296 56 319 8T342 -83Q342 -117 332 -145T304 -195T258 -228T198 -240Q175 -240 155 -233T120 -212T95 -180T86 -140Q86 -113 101 -95T139 -77Q159 -77 172 -90T185 -123Q185 -143 174 -152T149 -165T124 -173T113 -184Q113 -193 120 -202T138 -218T165 -230T199 -235Q248 -235 275 -204T303 -123Q303 -73 267 -26T174 66Q121 109 88 151T54 246Q54 288 77 318T142 348Q148 348 155 347T169 344Q76 431 76 512Q76 543 86 569T116 615T160 646T214 658Q238 658 259 651T296 630T321 599T330 559Q330 536 317 521T283 506Q263 506 249 519T235 553Q235 570 244 577T263 589T283 597T292 609Q292 626 270 639T214 653Q193 653 175 645T144 622T123 587T115 543Q115 521 123 503T146 467T182 432T230 393Q261 368 286 346T327 301T353 254T362 202Q362 154 338 126T271 98ZM142 343Q117 343 98 328T79 287Q79 264 94 241T152 181Q194 143 221 123T271 103Q305 103 319 120T334 159Q334 209 259 272Q224 303 194 323T142 343Z"  />
<glyph unicode="&#xA8;" horiz-adv-x="316" d="M11 571Q11 593 26 608T62 623Q84 623 99 608T114 571Q114 550 99 535T62 520Q41 520 26 535T11 571ZM203 571Q203 593 218 608T254 623Q275 623 290 608T305 571Q305 550 290 535T254 520Q233 520 218 535T203 571Z"  />
<glyph unicode="&#xA9;" horiz-adv-x="782" d="M561 278Q557 241 544 210T508 156T455 120T389 107Q343 107 305 128T239 182T196 254T180 330Q180 370 196 410T240 484T303 538T378 559Q421 559 450 538T499 494Q504 486 514 486Q529 486 551 559H554L560 361H557Q546 401 529 436T489 498T439 539T380 554Q346 554 324 540T289 500T270 436T264 348Q264 223 294 168T387 112Q461 112 504 159T556 278H561ZM49 335Q49 405 76 467T149 576T258 650T391 677Q462 677 524 650T632 577T706 468T733 335Q733 264 706 202T633 94T524 20T391 -7Q320 -7 258 20T150 93T76 202T49 335ZM56 335Q56 265 82 204T153 98T260 26T391 0Q461 0 522 26T628 97T700 204T727 335Q727 405 701 466T629 572T522 644T391 670Q321 670 260 644T154 573T82 466T56 335Z"  />
<glyph unicode="&#xAA;" horiz-adv-x="396" d="M303 322Q275 322 256 339T229 393Q217 358 193 340T135 321Q90 321 63 343T35 404Q35 436 58 458T136 500Q156 508 180 517T229 534V597Q229 676 163 676Q132 676 108 665T84 637Q84 629 91 626T108 619T125 608T133 585Q133 568 122 557T94 546Q74 546 61 559T47 593Q47 611 56 627T82 655T122 675T173 682Q224 682 258 659T293 585V403Q293 347 326 347Q366 347 366 422V465H371V422Q371 322 303 322ZM229 529Q202 520 177 510Q142 496 125 474T108 416Q108 333 152 333Q167 333 180 340T205 359T222 387T229 423V529Z"  />
<glyph unicode="&#xAB;" horiz-adv-x="383" d="M282 217L334 42H330L210 217L330 393H334L282 217ZM134 217L224 -6H220L49 217L220 440H224L134 217Z"  />
<glyph unicode="&#xAC;" horiz-adv-x="667" d="M71 461H595V180H591V457H71V461Z"  />
<glyph unicode="&#xAD;" horiz-adv-x="286" d="M37 270H249V241H37V270Z"  />
<glyph unicode="&#xAE;" horiz-adv-x="782" d="M49 335Q49 405 76 467T149 576T258 650T391 677Q462 677 524 650T632 577T706 468T733 335Q733 264 706 202T633 94T524 20T391 -7Q320 -7 258 20T150 93T76 202T49 335ZM56 335Q56 265 82 204T153 98T260 26T391 0Q461 0 522 26T628 97T700 204T727 335Q727 405 701 466T629 572T522 644T391 670Q321 670 260 644T154 573T82 466T56 335ZM180 560H404Q486 560 526 530T566 457Q566 419 528 389T405 350Q446 343 470 325T507 282T525 232T535 184T547 148T570 133Q593 133 607 157T622 223V245H626V223Q626 203 623 184T610 151T584 127T543 118Q508 118 485 145T461 236Q461 259 458 279T446 315T418 340T370 349H331V188Q331 159 339 146T370 132H417V128H180V132H219Q242 132 249 145T257 188V500Q257 529 250 542T219 556H180V560ZM370 556Q347 556 339 543T331 500V354H378Q405 354 425 359T460 376T481 408T488 460Q488 510 467 533T394 556H370Z"  />
<glyph unicode="&#xAF;" horiz-adv-x="316" d="M9 575H308V541H9V575Z"  />
<glyph unicode="&#xB0;" horiz-adv-x="385" d="M54 541Q54 570 65 595T94 639T138 669T192 680Q221 680 246 669T291 640T321 596T332 541Q332 512 321 487T291 443T247 413T192 402Q163 402 138 413T95 442T65 486T54 541ZM59 541Q59 513 69 489T98 446T140 418T192 407Q220 407 244 417T287 446T316 488T327 541Q327 569 317 593T288 636T245 664T192 675Q164 675 140 665T98 636T70 594T59 541Z"  />
<glyph unicode="&#xB1;" horiz-adv-x="667" d="M71 400H331V661H335V400H596V396H335V136H331V396H71V400ZM71 6H596V1H71V6Z"  />
<glyph unicode="&#xB2;" horiz-adv-x="333" d="M32 337Q78 393 121 435T187 513Q205 541 205 578Q205 619 184 644T127 670Q93 670 69 647T44 591Q44 573 54 573Q58 573 60 576T67 582T76 588T92 591Q105 591 114 580T124 555Q124 541 113 529T85 517Q65 517 52 534T38 582Q38 607 48 626T74 657T113 676T159 682Q213 682 247 654T282 583Q282 545 254 518T182 465Q151 445 128 429T89 395H259Q273 395 279 405T286 442H291L280 335H32V337Z"  />
<glyph unicode="&#xB3;" horiz-adv-x="333" d="M283 595Q283 531 157 515Q296 494 296 423Q296 400 285 383T255 353T211 335T158 328Q98 328 66 349T34 404Q34 425 47 438T78 451Q113 451 113 416Q113 386 79 382Q57 378 57 368Q57 358 78 347T132 336Q170 336 194 359T219 424Q219 439 214 454T200 482T178 503T147 511Q139 511 129 508T112 504Q108 504 108 508Q108 515 133 516Q160 519 170 523Q184 530 195 548T207 594Q207 673 135 673Q109 673 89 662T69 636Q69 629 88 628Q124 625 124 594Q124 559 90 559Q72 559 60 572T47 605Q47 638 78 660T160 682Q214 682 248 658T283 595Z"  />
<glyph unicode="&#xB4;" horiz-adv-x="316" d="M83 505H78L140 617Q162 655 176 670T210 685Q224 685 233 676T242 652Q242 638 232 626T200 596L83 505Z"  />
<glyph unicode="&#xB5;" horiz-adv-x="500" d="M140 430H214L136 157Q131 140 129 131T125 116T123 107T122 101Q122 93 123 82T128 60T143 42T172 34Q195 34 220 49T268 94Q283 113 292 126T308 154T321 190T338 245L392 430H466L384 148L374 116Q368 98 368 77Q368 36 395 36Q420 36 434 57T462 105H480Q474 85 468 71T456 46T441 27T422 11Q408 0 390 -6T357 -12Q328 -12 311 8T293 62Q293 67 293 77T296 99Q257 42 215 15T136 -12Q117 -12 104 -7T82 7T68 24T59 41Q51 15 47 -3T39 -39T34 -79T29 -134Q22 -215 -25 -215Q-41 -215 -50 -204T-60 -176Q-60 -170 -59 -165T-55 -151T-44 -127T-23 -86Q8 -27 33 63L140 430Z"  />
<glyph unicode="&#xB6;" horiz-adv-x="495" d="M485 674V669H465Q425 669 417 651Q406 634 406 567V-234H370V669H275V-234H238V292Q94 296 44 352Q-4 406 -4 483Q-4 570 54 622Q115 674 223 674H485Z"  />
<glyph unicode="&#xB7;" horiz-adv-x="281" d="M193 276Q193 254 178 239T141 223Q118 223 103 238T88 276Q88 298 103 313T141 329Q162 329 177 314T193 276Z"  />
<glyph unicode="&#xB8;" horiz-adv-x="316" d="M188 0H194L162 -42Q202 -48 225 -69T248 -115Q248 -137 233 -153T193 -181T136 -197T68 -203V-199Q92 -197 113 -194T149 -183T174 -162T183 -128Q183 -89 122 -86L188 0Z"  />
<glyph unicode="&#xB9;" horiz-adv-x="333" d="M60 674Q100 674 131 676T189 682H205V369Q205 339 233 339H279V335H60V339H103Q137 339 137 375V641Q137 669 104 669H60V674Z"  />
<glyph unicode="&#xBA;" horiz-adv-x="396" d="M198 682Q233 682 262 668T313 630T347 573T359 501Q359 462 347 429T314 372T263 334T198 320Q163 320 134 333T83 371T49 429T37 501Q37 540 49 573T82 630T133 668T198 682ZM198 325Q243 325 264 367T286 501Q286 593 265 635T198 677Q153 677 132 635T110 501Q110 409 131 367T198 325Z"  />
<glyph unicode="&#xBB;" horiz-adv-x="383" d="M101 217L49 393H53L172 217L53 42H49L101 217ZM249 217L159 440H163L334 217L163 -6H159L249 217Z"  />
<glyph unicode="&#xBC;" horiz-adv-x="718" d="M588 682H629L130 -34H89L588 682ZM60 674Q100 674 131 676T189 682H205V369Q205 339 233 339H279V335H60V339H103Q137 339 137 375V641Q137 669 104 669H60V674ZM588 349H599V110H679V88H599V30Q599 4 626 4H664V0H472V4H511Q539 4 539 30V88H411L392 108L588 349ZM539 110V281L399 110H539Z"  />
<glyph unicode="&#xBD;" horiz-adv-x="718" d="M588 682H629L130 -34H89L588 682ZM60 674Q100 674 131 676T189 682H205V369Q205 339 233 339H279V335H60V339H103Q137 339 137 375V641Q137 669 104 669H60V674ZM417 2Q463 58 506 100T571 178Q590 206 590 243Q590 284 569 309T512 335Q477 335 453 312T429 256Q429 238 438 238Q442 238 445 241T452 247T461 253T477 256Q490 256 499 245T508 220Q508 206 498 194T470 182Q450 182 436 200T422 247Q422 272 432 291T459 322T498 341T544 347Q598 347 632 319T667 248Q667 210 639 184T567 130Q535 110 513 94T474 60H644Q658 60 663 70T671 107H675L665 0H417V2Z"  />
<glyph unicode="&#xBE;" horiz-adv-x="718" d="M588 682H629L130 -34H89L588 682ZM588 349H599V110H679V88H599V30Q599 4 626 4H664V0H472V4H511Q539 4 539 30V88H411L392 108L588 349ZM539 110V281L399 110H539ZM283 595Q283 531 157 515Q296 494 296 423Q296 400 285 383T255 353T211 335T158 328Q98 328 66 349T34 404Q34 425 47 438T78 451Q113 451 113 416Q113 386 79 382Q57 378 57 368Q57 358 78 347T132 336Q170 336 194 359T219 424Q219 439 214 454T200 482T178 503T147 511Q139 511 129 508T112 504Q108 504 108 508Q108 515 133 516Q160 519 170 523Q184 530 195 548T207 594Q207 673 135 673Q109 673 89 662T69 636Q69 629 88 628Q124 625 124 594Q124 559 90 559Q72 559 60 572T47 605Q47 638 78 660T160 682Q214 682 248 658T283 595Z"  />
<glyph unicode="&#xBF;" horiz-adv-x="344" d="M308 -39Q308 -86 297 -121T266 -179T221 -213T169 -224Q142 -224 118 -214T76 -184T48 -137T37 -74Q37 -32 53 4T106 71Q121 84 139 98T173 127T199 161T210 201Q210 224 199 241T167 258Q138 258 123 238T100 175H95Q109 263 167 263Q185 263 199 254T222 231T237 197T242 157Q242 121 230 96T200 52T161 16T122 -19T92 -61T80 -116Q80 -141 88 -160T108 -193T137 -212T171 -219Q197 -219 221 -208T263 -175T292 -118T303 -39H308ZM124 395Q124 416 139 431T177 447Q199 447 214 432T229 395Q229 373 214 358T177 342Q155 342 140 357T124 395Z"  />
<glyph unicode="&#xC0;" horiz-adv-x="694" d="M187 228Q168 177 158 140T147 87Q147 53 176 29T256 4H289V0H2V4H11Q40 4 61 15T99 46T129 92T153 149L352 685H385L586 97Q607 34 622 21Q630 14 643 9T675 4H691V0H378V4H464Q484 4 493 13T502 36Q502 52 498 64L439 234H189L187 228ZM190 239H438L319 586L190 239ZM296 840Q273 857 263 869T253 896Q253 911 262 920T285 929Q305 929 319 914T355 861L417 749H413L296 840Z"  />
<glyph unicode="&#xC1;" horiz-adv-x="694" d="M187 228Q168 177 158 140T147 87Q147 53 176 29T256 4H289V0H2V4H11Q40 4 61 15T99 46T129 92T153 149L352 685H385L586 97Q607 34 622 21Q630 14 643 9T675 4H691V0H378V4H464Q484 4 493 13T502 36Q502 52 498 64L439 234H189L187 228ZM190 239H438L319 586L190 239ZM320 749H315L377 861Q399 899 413 914T447 929Q461 929 470 920T479 896Q479 882 469 870T437 840L320 749Z"  />
<glyph unicode="&#xC2;" horiz-adv-x="694" d="M187 228Q168 177 158 140T147 87Q147 53 176 29T256 4H289V0H2V4H11Q40 4 61 15T99 46T129 92T153 149L352 685H385L586 97Q607 34 622 21Q630 14 643 9T675 4H691V0H378V4H464Q484 4 493 13T502 36Q502 52 498 64L439 234H189L187 228ZM190 239H438L319 586L190 239ZM365 853L229 748H225L329 912H404L507 748H504L365 853Z"  />
<glyph unicode="&#xC3;" horiz-adv-x="694" d="M187 228Q168 177 158 140T147 87Q147 53 176 29T256 4H289V0H2V4H11Q40 4 61 15T99 46T129 92T153 149L352 685H385L586 97Q607 34 622 21Q630 14 643 9T675 4H691V0H378V4H464Q484 4 493 13T502 36Q502 52 498 64L439 234H189L187 228ZM190 239H438L319 586L190 239ZM516 880Q507 764 434 764Q419 764 402 769T365 785Q355 791 344 797T321 810T299 820T279 824Q256 824 241 809T220 764H216Q223 881 300 881Q317 881 334 875T370 857Q393 843 414 832T454 821Q473 821 492 836T513 880H516Z"  />
<glyph unicode="&#xC4;" horiz-adv-x="694" d="M187 228Q168 177 158 140T147 87Q147 53 176 29T256 4H289V0H2V4H11Q40 4 61 15T99 46T129 92T153 149L352 685H385L586 97Q607 34 622 21Q630 14 643 9T675 4H691V0H378V4H464Q484 4 493 13T502 36Q502 52 498 64L439 234H189L187 228ZM190 239H438L319 586L190 239ZM219 815Q219 837 234 852T270 867Q292 867 307 852T322 815Q322 794 307 779T270 764Q249 764 234 779T219 815ZM411 815Q411 837 426 852T462 867Q483 867 498 852T513 815Q513 794 498 779T462 764Q441 764 426 779T411 815Z"  />
<glyph unicode="&#xC5;" horiz-adv-x="694" d="M187 228Q168 177 158 140T147 87Q147 53 176 29T256 4H289V0H2V4H11Q40 4 61 15T99 46T129 92T153 149L352 685H385L586 97Q607 34 622 21Q630 14 643 9T675 4H691V0H378V4H464Q484 4 493 13T502 36Q502 52 498 64L439 234H189L187 228ZM190 239H438L319 586L190 239ZM274 840Q274 859 281 876T300 905T330 925T366 932Q385 932 401 925T430 906T450 876T458 840Q458 821 451 805T431 776T402 756T366 749Q347 749 330 756T301 775T281 804T274 840ZM279 840Q279 804 304 779T366 754Q402 754 427 779T453 840Q453 876 428 902T366 928Q330 928 305 902T279 840Z"  />
<glyph unicode="&#xC6;" horiz-adv-x="1006" d="M196 194Q187 178 178 160T162 126T151 95T146 70Q146 40 169 22T222 4H243V0H2V4Q87 7 152 123L418 600Q429 620 429 635Q429 669 377 669H290V674H952V430H948Q922 541 866 605T724 669H600Q577 669 577 637V343H612Q767 343 771 524H775V154H771Q771 246 728 292T617 338H577V38Q577 4 608 4H735Q780 4 817 22T883 72T932 148T963 244H967L961 0H375V4H427Q477 4 477 62V294H253L196 194ZM255 298H477V647Q477 669 469 669Q461 669 450 648L255 298Z"  />
<glyph unicode="&#xC7;" horiz-adv-x="623" d="M334 -16Q277 -14 225 13T132 86T68 195T44 329Q44 396 66 460T126 575T216 656T326 687Q433 687 504 571Q533 594 551 624T575 687H578V383H575Q560 441 538 495T485 591T416 658T327 683Q243 683 196 584Q179 548 172 477T164 308Q164 143 205 67T337 -12L343 -5H349L343 -12Q394 -11 436 9T510 64T560 145T582 245H586Q584 190 565 142T513 59T437 4T342 -17H339L317 -46Q357 -53 380 -73T403 -120Q403 -142 388 -158T348 -186T291 -202T223 -208V-204Q247 -202 268 -199T304 -188T328 -167T337 -133Q337 -94 277 -91L334 -16Z"  />
<glyph unicode="&#xC8;" horiz-adv-x="644" d="M12 674H589V430H586Q560 541 504 605T362 669H238Q215 669 215 637V343H250Q403 343 409 524H413V154H409Q409 246 365 292T255 338H215V38Q215 4 246 4H373Q418 4 455 22T521 72T570 148T601 244H604L599 0H12V4H64Q115 4 115 62V612Q115 669 66 669H12V674ZM353 850Q330 867 320 879T310 906Q310 921 319 930T342 939Q362 939 376 924T412 871L474 759H470L353 850Z"  />
<glyph unicode="&#xC9;" horiz-adv-x="644" d="M12 674H589V430H586Q560 541 504 605T362 669H238Q215 669 215 637V343H250Q403 343 409 524H413V154H409Q409 246 365 292T255 338H215V38Q215 4 246 4H373Q418 4 455 22T521 72T570 148T601 244H604L599 0H12V4H64Q115 4 115 62V612Q115 669 66 669H12V674ZM319 759H314L376 871Q398 909 412 924T446 939Q460 939 469 930T478 906Q478 892 468 880T436 850L319 759Z"  />
<glyph unicode="&#xCA;" horiz-adv-x="644" d="M12 674H589V430H586Q560 541 504 605T362 669H238Q215 669 215 637V343H250Q403 343 409 524H413V154H409Q409 246 365 292T255 338H215V38Q215 4 246 4H373Q418 4 455 22T521 72T570 148T601 244H604L599 0H12V4H64Q115 4 115 62V612Q115 669 66 669H12V674ZM383 863L247 758H243L347 922H422L525 758H522L383 863Z"  />
<glyph unicode="&#xCB;" horiz-adv-x="644" d="M12 674H589V430H586Q560 541 504 605T362 669H238Q215 669 215 637V343H250Q403 343 409 524H413V154H409Q409 246 365 292T255 338H215V38Q215 4 246 4H373Q418 4 455 22T521 72T570 148T601 244H604L599 0H12V4H64Q115 4 115 62V612Q115 669 66 669H12V674ZM237 825Q237 847 252 862T288 877Q310 877 325 862T340 825Q340 804 325 789T288 774Q267 774 252 789T237 825ZM429 825Q429 847 444 862T480 877Q501 877 516 862T531 825Q531 804 516 789T480 774Q459 774 444 789T429 825Z"  />
<glyph unicode="&#xCC;" horiz-adv-x="330" d="M12 4H65Q115 4 115 62V612Q115 669 65 669H12V674H317V669H265Q215 669 215 612V62Q215 4 265 4H317V0H12V4ZM95 840Q72 857 62 869T52 896Q52 911 61 920T84 929Q104 929 118 914T154 861L216 749H212L95 840Z"  />
<glyph unicode="&#xCD;" horiz-adv-x="330" d="M12 4H65Q115 4 115 62V612Q115 669 65 669H12V674H317V669H265Q215 669 215 612V62Q215 4 265 4H317V0H12V4ZM119 749H114L176 861Q198 899 212 914T246 929Q260 929 269 920T278 896Q278 882 268 870T236 840L119 749Z"  />
<glyph unicode="&#xCE;" horiz-adv-x="330" d="M12 4H65Q115 4 115 62V612Q115 669 65 669H12V674H317V669H265Q215 669 215 612V62Q215 4 265 4H317V0H12V4ZM164 853L28 748H24L128 912H203L306 748H303L164 853Z"  />
<glyph unicode="&#xCF;" horiz-adv-x="330" d="M12 4H65Q115 4 115 62V612Q115 669 65 669H12V674H317V669H265Q215 669 215 612V62Q215 4 265 4H317V0H12V4ZM18 815Q18 837 33 852T69 867Q91 867 106 852T121 815Q121 794 106 779T69 764Q48 764 33 779T18 815ZM210 815Q210 837 225 852T261 867Q282 867 297 852T312 815Q312 794 297 779T261 764Q240 764 225 779T210 815Z"  />
<glyph unicode="&#xD0;" horiz-adv-x="718" d="M24 339H115V612Q115 669 65 669H12V674H342Q412 674 473 646T580 571T652 463T679 333Q679 264 651 204T574 98T464 27T336 0H12V4H65Q115 4 115 62V335H24V339ZM242 669Q215 669 215 639V339H395V335H215V44Q215 4 244 4H339Q401 4 443 32T512 108T550 218T562 349Q562 418 552 477T515 578T443 645T329 669H242Z"  />
<glyph unicode="&#xD1;" horiz-adv-x="701" d="M194 674L576 119V463Q576 511 571 549T553 614T515 655T452 669H429V674H696V669H676Q640 669 621 650T592 601T582 535T580 463V-23H552L129 592V207Q129 156 134 118T154 55T191 17T250 4H287V0H12V4H32Q55 4 72 13T101 46T119 109T125 207V521Q125 561 122 589T109 635T82 661T35 669H12V674H194ZM478 880Q469 764 396 764Q381 764 364 769T327 785Q317 791 306 797T283 810T261 820T241 824Q218 824 203 809T182 764H178Q185 881 262 881Q279 881 296 875T332 857Q355 843 376 832T416 821Q435 821 454 836T475 880H478Z"  />
<glyph unicode="&#xD2;" horiz-adv-x="698" d="M39 330Q39 397 62 460T128 573T227 653T350 683Q417 683 473 653T571 573T635 460T659 330Q659 263 636 201T571 90T473 12T350 -17Q278 -17 221 14T123 96T61 208T39 330ZM521 551Q505 613 461 645T350 678Q284 678 237 645T175 549Q167 518 164 460T160 331Q160 259 164 203T176 115Q192 50 236 19T349 -12Q420 -12 465 22T524 123Q531 155 534 213T538 341Q538 410 534 466T521 551ZM279 840Q256 857 246 869T236 896Q236 911 245 920T268 929Q288 929 302 914T338 861L400 749H396L279 840Z"  />
<glyph unicode="&#xD3;" horiz-adv-x="698" d="M39 330Q39 397 62 460T128 573T227 653T350 683Q417 683 473 653T571 573T635 460T659 330Q659 263 636 201T571 90T473 12T350 -17Q278 -17 221 14T123 96T61 208T39 330ZM521 551Q505 613 461 645T350 678Q284 678 237 645T175 549Q167 518 164 460T160 331Q160 259 164 203T176 115Q192 50 236 19T349 -12Q420 -12 465 22T524 123Q531 155 534 213T538 341Q538 410 534 466T521 551ZM304 749H299L361 861Q383 899 397 914T431 929Q445 929 454 920T463 896Q463 882 453 870T421 840L304 749Z"  />
<glyph unicode="&#xD4;" horiz-adv-x="698" d="M39 330Q39 397 62 460T128 573T227 653T350 683Q417 683 473 653T571 573T635 460T659 330Q659 263 636 201T571 90T473 12T350 -17Q278 -17 221 14T123 96T61 208T39 330ZM521 551Q505 613 461 645T350 678Q284 678 237 645T175 549Q167 518 164 460T160 331Q160 259 164 203T176 115Q192 50 236 19T349 -12Q420 -12 465 22T524 123Q531 155 534 213T538 341Q538 410 534 466T521 551ZM348 853L212 748H208L312 912H387L490 748H487L348 853Z"  />
<glyph unicode="&#xD5;" horiz-adv-x="698" d="M39 330Q39 397 62 460T128 573T227 653T350 683Q417 683 473 653T571 573T635 460T659 330Q659 263 636 201T571 90T473 12T350 -17Q278 -17 221 14T123 96T61 208T39 330ZM521 551Q505 613 461 645T350 678Q284 678 237 645T175 549Q167 518 164 460T160 331Q160 259 164 203T176 115Q192 50 236 19T349 -12Q420 -12 465 22T524 123Q531 155 534 213T538 341Q538 410 534 466T521 551ZM500 880Q491 764 418 764Q403 764 386 769T349 785Q339 791 328 797T305 810T283 820T263 824Q240 824 225 809T204 764H200Q207 881 284 881Q301 881 318 875T354 857Q377 843 398 832T438 821Q457 821 476 836T497 880H500Z"  />
<glyph unicode="&#xD6;" horiz-adv-x="698" d="M39 330Q39 397 62 460T128 573T227 653T350 683Q417 683 473 653T571 573T635 460T659 330Q659 263 636 201T571 90T473 12T350 -17Q278 -17 221 14T123 96T61 208T39 330ZM521 551Q505 613 461 645T350 678Q284 678 237 645T175 549Q167 518 164 460T160 331Q160 259 164 203T176 115Q192 50 236 19T349 -12Q420 -12 465 22T524 123Q531 155 534 213T538 341Q538 410 534 466T521 551ZM203 815Q203 837 218 852T254 867Q276 867 291 852T306 815Q306 794 291 779T254 764Q233 764 218 779T203 815ZM395 815Q395 837 410 852T446 867Q467 867 482 852T497 815Q497 794 482 779T446 764Q425 764 410 779T395 815Z"  />
<glyph unicode="&#xD7;" horiz-adv-x="667" d="M333 324L554 545L558 542L336 320L556 100L552 97L333 317L112 97L109 101L329 320L109 541L112 544L333 324Z"  />
<glyph unicode="&#xD8;" horiz-adv-x="698" d="M39 330Q39 397 62 460T128 573T227 653T350 683Q415 683 469 655T565 579L665 692L667 689L568 577Q611 526 635 462T659 330Q659 263 636 201T571 90T473 12T350 -17Q282 -17 227 11T132 84L33 -28L30 -25L129 87Q85 138 62 202T39 330ZM521 551Q505 613 461 645T350 678Q284 678 237 645T175 549Q167 518 164 460T160 331Q160 270 163 220T172 135L525 534Q523 539 523 543T521 551ZM538 341Q538 398 535 447T526 529L173 130L176 115Q192 50 236 19T349 -12Q420 -12 465 22T524 123Q531 155 534 213T538 341Z"  />
<glyph unicode="&#xD9;" horiz-adv-x="728" d="M735 669Q613 669 613 515V253Q613 193 596 143T547 56T469 -1T363 -22Q263 -22 188 38Q115 98 115 236V612Q115 669 65 669H12V674H317V669H263Q215 669 215 608V197Q215 -11 382 -11Q436 -11 478 9T549 65T593 149T609 253V491Q609 590 571 630Q532 669 479 669H447V674H735V669ZM312 840Q289 857 279 869T269 896Q269 911 278 920T301 929Q321 929 335 914T371 861L433 749H429L312 840Z"  />
<glyph unicode="&#xDA;" horiz-adv-x="728" d="M735 669Q613 669 613 515V253Q613 193 596 143T547 56T469 -1T363 -22Q263 -22 188 38Q115 98 115 236V612Q115 669 65 669H12V674H317V669H263Q215 669 215 608V197Q215 -11 382 -11Q436 -11 478 9T549 65T593 149T609 253V491Q609 590 571 630Q532 669 479 669H447V674H735V669ZM336 749H331L393 861Q415 899 429 914T463 929Q477 929 486 920T495 896Q495 882 485 870T453 840L336 749Z"  />
<glyph unicode="&#xDB;" horiz-adv-x="728" d="M735 669Q613 669 613 515V253Q613 193 596 143T547 56T469 -1T363 -22Q263 -22 188 38Q115 98 115 236V612Q115 669 65 669H12V674H317V669H263Q215 669 215 608V197Q215 -11 382 -11Q436 -11 478 9T549 65T593 149T609 253V491Q609 590 571 630Q532 669 479 669H447V674H735V669ZM381 853L245 748H241L345 912H420L523 748H520L381 853Z"  />
<glyph unicode="&#xDC;" horiz-adv-x="728" d="M735 669Q613 669 613 515V253Q613 193 596 143T547 56T469 -1T363 -22Q263 -22 188 38Q115 98 115 236V612Q115 669 65 669H12V674H317V669H263Q215 669 215 608V197Q215 -11 382 -11Q436 -11 478 9T549 65T593 149T609 253V491Q609 590 571 630Q532 669 479 669H447V674H735V669ZM235 815Q235 837 250 852T286 867Q308 867 323 852T338 815Q338 794 323 779T286 764Q265 764 250 779T235 815ZM427 815Q427 837 442 852T478 867Q499 867 514 852T529 815Q529 794 514 779T478 764Q457 764 442 779T427 815Z"  />
<glyph unicode="&#xDD;" horiz-adv-x="723" d="M206 646Q206 634 214 618L404 269L543 530Q553 549 557 568T561 603Q561 633 539 651T479 669H418V674H721V669H708Q684 669 664 662T625 639T586 594T545 525L406 263V62Q406 4 457 4H525V0H171V4H256Q306 4 306 62V241L92 633Q81 653 67 661T30 669H2V674H327V669H240Q206 669 206 646ZM322 749H317L379 861Q401 899 415 914T449 929Q463 929 472 920T481 896Q481 882 471 870T439 840L322 749Z"  />
<glyph unicode="&#xDE;" horiz-adv-x="612" d="M12 4H65Q115 4 115 62V612Q115 669 65 669H12V674H317V669H265Q215 669 215 612V516H332Q387 516 434 505T517 472T572 415T592 334Q592 293 570 260T511 204T429 169T337 156H215V62Q215 4 265 4H317V0H12V4ZM215 512V161H314Q402 161 440 208T479 334Q479 421 439 466T319 512H215Z"  />
<glyph unicode="&#xDF;" horiz-adv-x="555" d="M12 4H59Q90 4 90 36V463Q90 524 105 566T147 634T210 673T289 685Q329 685 365 674T429 641T473 591T489 527Q489 429 314 385Q523 351 523 187Q523 150 509 116T472 54T418 11T353 -6Q315 -6 291 16T266 71Q266 92 279 106T311 120Q327 120 339 109T351 80Q351 69 346 60T334 43T322 29T316 17Q316 -1 355 -1Q379 -1 392 16T411 61T418 121T419 187Q419 228 415 263T399 325T362 365T296 380H270V385Q336 385 365 419T394 518Q394 596 370 638T291 680Q233 680 207 647T181 547V33Q181 4 208 4H247V0H12V4Z"  />
<glyph unicode="&#xE0;" horiz-adv-x="506" d="M408 -6Q370 -6 343 16T307 98Q284 44 252 19T172 -6Q108 -6 70 24T32 101Q32 133 49 153T92 187T152 209T217 223Q272 233 305 250V330Q305 375 281 400T213 426Q199 426 182 422T149 411T124 393T114 371Q114 364 122 359T140 348T158 331T166 304Q166 284 153 272T120 259Q97 259 83 275T69 312Q69 339 83 361T119 399T171 424T230 433Q395 433 395 297V91Q395 11 432 11Q467 11 482 52T497 160H501Q501 71 480 33T408 -6ZM305 245Q281 234 250 225Q222 217 200 209T162 186T138 148T129 89Q129 54 145 29T198 4Q219 4 238 15T272 46T296 89T305 139V245ZM160 596Q137 613 127 625T117 652Q117 667 126 676T149 685Q169 685 183 670T219 617L281 505H277L160 596Z"  />
<glyph unicode="&#xE1;" horiz-adv-x="506" d="M408 -6Q370 -6 343 16T307 98Q284 44 252 19T172 -6Q108 -6 70 24T32 101Q32 133 49 153T92 187T152 209T217 223Q272 233 305 250V330Q305 375 281 400T213 426Q199 426 182 422T149 411T124 393T114 371Q114 364 122 359T140 348T158 331T166 304Q166 284 153 272T120 259Q97 259 83 275T69 312Q69 339 83 361T119 399T171 424T230 433Q395 433 395 297V91Q395 11 432 11Q467 11 482 52T497 160H501Q501 71 480 33T408 -6ZM305 245Q281 234 250 225Q222 217 200 209T162 186T138 148T129 89Q129 54 145 29T198 4Q219 4 238 15T272 46T296 89T305 139V245ZM185 505H180L242 617Q264 655 278 670T312 685Q326 685 335 676T344 652Q344 638 334 626T302 596L185 505Z"  />
<glyph unicode="&#xE2;" horiz-adv-x="506" d="M408 -6Q370 -6 343 16T307 98Q284 44 252 19T172 -6Q108 -6 70 24T32 101Q32 133 49 153T92 187T152 209T217 223Q272 233 305 250V330Q305 375 281 400T213 426Q199 426 182 422T149 411T124 393T114 371Q114 364 122 359T140 348T158 331T166 304Q166 284 153 272T120 259Q97 259 83 275T69 312Q69 339 83 361T119 399T171 424T230 433Q395 433 395 297V91Q395 11 432 11Q467 11 482 52T497 160H501Q501 71 480 33T408 -6ZM305 245Q281 234 250 225Q222 217 200 209T162 186T138 148T129 89Q129 54 145 29T198 4Q219 4 238 15T272 46T296 89T305 139V245ZM229 609L93 504H89L193 668H268L371 504H368L229 609Z"  />
<glyph unicode="&#xE3;" horiz-adv-x="506" d="M408 -6Q370 -6 343 16T307 98Q284 44 252 19T172 -6Q108 -6 70 24T32 101Q32 133 49 153T92 187T152 209T217 223Q272 233 305 250V330Q305 375 281 400T213 426Q199 426 182 422T149 411T124 393T114 371Q114 364 122 359T140 348T158 331T166 304Q166 284 153 272T120 259Q97 259 83 275T69 312Q69 339 83 361T119 399T171 424T230 433Q395 433 395 297V91Q395 11 432 11Q467 11 482 52T497 160H501Q501 71 480 33T408 -6ZM305 245Q281 234 250 225Q222 217 200 209T162 186T138 148T129 89Q129 54 145 29T198 4Q219 4 238 15T272 46T296 89T305 139V245ZM380 636Q371 520 298 520Q283 520 266 525T229 541Q219 547 208 553T185 566T163 576T143 580Q120 580 105 565T84 520H80Q87 637 164 637Q181 637 198 631T234 613Q257 599 278 588T318 577Q337 577 356 592T377 636H380Z"  />
<glyph unicode="&#xE4;" horiz-adv-x="506" d="M408 -6Q370 -6 343 16T307 98Q284 44 252 19T172 -6Q108 -6 70 24T32 101Q32 133 49 153T92 187T152 209T217 223Q272 233 305 250V330Q305 375 281 400T213 426Q199 426 182 422T149 411T124 393T114 371Q114 364 122 359T140 348T158 331T166 304Q166 284 153 272T120 259Q97 259 83 275T69 312Q69 339 83 361T119 399T171 424T230 433Q395 433 395 297V91Q395 11 432 11Q467 11 482 52T497 160H501Q501 71 480 33T408 -6ZM305 245Q281 234 250 225Q222 217 200 209T162 186T138 148T129 89Q129 54 145 29T198 4Q219 4 238 15T272 46T296 89T305 139V245ZM83 571Q83 593 98 608T134 623Q156 623 171 608T186 571Q186 550 171 535T134 520Q113 520 98 535T83 571ZM275 571Q275 593 290 608T326 623Q347 623 362 608T377 571Q377 550 362 535T326 520Q305 520 290 535T275 571Z"  />
<glyph unicode="&#xE5;" horiz-adv-x="506" d="M408 -6Q370 -6 343 16T307 98Q284 44 252 19T172 -6Q108 -6 70 24T32 101Q32 133 49 153T92 187T152 209T217 223Q272 233 305 250V330Q305 375 281 400T213 426Q199 426 182 422T149 411T124 393T114 371Q114 364 122 359T140 348T158 331T166 304Q166 284 153 272T120 259Q97 259 83 275T69 312Q69 339 83 361T119 399T171 424T230 433Q395 433 395 297V91Q395 11 432 11Q467 11 482 52T497 160H501Q501 71 480 33T408 -6ZM305 245Q281 234 250 225Q222 217 200 209T162 186T138 148T129 89Q129 54 145 29T198 4Q219 4 238 15T272 46T296 89T305 139V245ZM138 596Q138 615 145 632T164 661T194 681T230 688Q249 688 265 681T294 662T314 632T322 596Q322 577 315 561T295 532T266 512T230 505Q211 505 194 512T165 531T145 560T138 596ZM143 596Q143 560 168 535T230 510Q266 510 291 535T317 596Q317 632 292 658T230 684Q194 684 169 658T143 596Z"  />
<glyph unicode="&#xE6;" horiz-adv-x="750" d="M714 160Q706 121 688 91T644 39T584 6T514 -6Q478 -6 446 4T387 32T342 74T314 128Q297 59 261 27T172 -6Q108 -6 70 24T32 101Q32 133 48 154T91 188T151 209T217 223Q272 233 305 250V330Q305 375 281 400T213 426Q199 426 182 422T149 411T124 393T114 371Q114 364 122 359T140 348T158 331T166 304Q166 284 153 272T120 259Q97 259 83 275T69 312Q69 339 83 361T119 399T171 424T230 433Q333 433 372 379Q398 404 432 418T508 433Q551 433 587 417T650 373T694 308T715 228H395V202Q395 101 429 51T522 0Q555 0 586 11T642 43T684 93T709 160H714ZM580 232Q597 232 603 241T609 283Q609 313 602 339T582 385T549 416T507 428Q457 428 426 377T395 232H580ZM305 245Q281 234 250 225Q221 217 199 209T161 186T137 148T129 89Q129 54 145 29T198 4Q219 4 238 15T272 46T296 90T305 144V245Z"  />
<glyph unicode="&#xE7;" horiz-adv-x="442" d="M239 -6Q196 -4 159 13T93 59T49 126T32 208Q32 253 49 293T97 365T168 414T257 433Q288 433 315 423T361 394T392 353T403 305Q403 279 391 262T354 245Q331 245 319 260T307 293Q307 315 316 325T336 341T356 351T365 366Q365 377 357 388T334 408T300 422T257 428Q194 428 165 376T136 208Q136 107 166 54T256 0Q287 0 313 12T359 45T389 95T401 160H406Q404 84 361 39T248 -6H245L218 -42Q258 -48 281 -69T304 -115Q304 -137 289 -153T249 -181T192 -197T124 -203V-199Q148 -197 169 -194T205 -183T229 -162T238 -128Q238 -89 178 -86L239 -6Z"  />
<glyph unicode="&#xE8;" horiz-adv-x="491" d="M456 160Q448 121 430 91T386 39T326 6T255 -6Q207 -6 166 10T96 56T49 124T32 208Q32 253 48 293T94 365T163 414T250 433Q293 433 329 417T392 373T435 308T457 228H136V202Q136 101 170 51T263 0Q296 0 327 11T383 43T426 93T451 160H456ZM321 232Q338 232 344 241T350 283Q350 313 343 339T323 385T290 416T248 428Q198 428 167 377T136 232H321ZM179 596Q156 613 146 625T136 652Q136 667 145 676T168 685Q188 685 202 670T238 617L300 505H296L179 596Z"  />
<glyph unicode="&#xE9;" horiz-adv-x="491" d="M456 160Q448 121 430 91T386 39T326 6T255 -6Q207 -6 166 10T96 56T49 124T32 208Q32 253 48 293T94 365T163 414T250 433Q293 433 329 417T392 373T435 308T457 228H136V202Q136 101 170 51T263 0Q296 0 327 11T383 43T426 93T451 160H456ZM321 232Q338 232 344 241T350 283Q350 313 343 339T323 385T290 416T248 428Q198 428 167 377T136 232H321ZM203 505H198L260 617Q282 655 296 670T330 685Q344 685 353 676T362 652Q362 638 352 626T320 596L203 505Z"  />
<glyph unicode="&#xEA;" horiz-adv-x="491" d="M456 160Q448 121 430 91T386 39T326 6T255 -6Q207 -6 166 10T96 56T49 124T32 208Q32 253 48 293T94 365T163 414T250 433Q293 433 329 417T392 373T435 308T457 228H136V202Q136 101 170 51T263 0Q296 0 327 11T383 43T426 93T451 160H456ZM321 232Q338 232 344 241T350 283Q350 313 343 339T323 385T290 416T248 428Q198 428 167 377T136 232H321ZM248 609L112 504H108L212 668H287L390 504H387L248 609Z"  />
<glyph unicode="&#xEB;" horiz-adv-x="491" d="M456 160Q448 121 430 91T386 39T326 6T255 -6Q207 -6 166 10T96 56T49 124T32 208Q32 253 48 293T94 365T163 414T250 433Q293 433 329 417T392 373T435 308T457 228H136V202Q136 101 170 51T263 0Q296 0 327 11T383 43T426 93T451 160H456ZM321 232Q338 232 344 241T350 283Q350 313 343 339T323 385T290 416T248 428Q198 428 167 377T136 232H321ZM102 571Q102 593 117 608T153 623Q175 623 190 608T205 571Q205 550 190 535T153 520Q132 520 117 535T102 571ZM294 571Q294 593 309 608T345 623Q366 623 381 608T396 571Q396 550 381 535T345 520Q324 520 309 535T294 571Z"  />
<glyph unicode="&#xEC;" horiz-adv-x="256" d="M63 596Q41 613 31 625T21 652Q21 667 29 676T52 685Q72 685 86 670T123 617L185 505H180L63 596ZM179 53Q179 27 187 16T219 4H251V0H13V4H48Q71 4 79 15T88 53V372Q88 394 76 404T41 415H10V419H48Q79 419 111 421T179 430V53Z"  />
<glyph unicode="&#xED;" horiz-adv-x="256" d="M87 505H83L145 617Q167 655 181 670T215 685Q229 685 238 676T247 652Q247 638 237 626T205 596L87 505ZM179 53Q179 27 187 16T219 4H251V0H13V4H48Q71 4 79 15T88 53V372Q88 394 76 404T41 415H10V419H48Q79 419 111 421T179 430V53Z"  />
<glyph unicode="&#xEE;" horiz-adv-x="256" d="M179 53Q179 27 187 16T219 4H251V0H13V4H48Q71 4 79 15T88 53V372Q88 394 76 404T41 415H10V419H48Q79 419 111 421T179 430V53ZM132 609L-4 504H-7L96 668H172L275 504H271L132 609Z"  />
<glyph unicode="&#xEF;" horiz-adv-x="256" d="M-13 571Q-13 593 2 608T38 623Q59 623 74 608T89 571Q89 550 74 535T38 520Q17 520 2 535T-13 571ZM178 571Q178 593 193 608T229 623Q251 623 266 608T281 571Q281 550 266 535T229 520Q208 520 193 535T178 571ZM179 53Q179 27 187 16T219 4H251V0H13V4H48Q71 4 79 15T88 53V372Q88 394 76 404T41 415H10V419H48Q79 419 111 421T179 430V53Z"  />
<glyph unicode="&#xF0;" horiz-adv-x="522" d="M269 635Q319 599 360 557T430 468T475 369T491 261Q491 216 479 169T439 82T367 19T258 -6Q210 -6 169 10T97 56T49 124T32 208Q32 253 49 293T98 365T170 414T258 433Q296 433 321 422T375 391Q367 454 338 516T255 629L139 581L137 585L251 633Q222 659 183 684L185 687Q226 665 265 638L355 676L357 672L269 635ZM136 208Q136 97 165 48T258 -1Q298 -1 323 13T362 54T382 119T387 208Q387 322 355 375T258 428Q195 428 166 376T136 208Z"  />
<glyph unicode="&#xF1;" horiz-adv-x="560" d="M179 288Q219 433 331 433Q369 433 397 421T444 386T472 332T482 263V53Q482 26 491 15T523 4H555V0H316V4H351Q374 4 383 15T392 53V292Q392 353 373 388T316 424Q285 424 260 408T216 364T189 301T179 229V53Q179 27 187 16T219 4H251V0H13V4H48Q71 4 79 15T88 53V371Q88 393 78 404T41 415H10V419H48Q80 419 113 422T179 430V288ZM436 636Q427 520 354 520Q339 520 322 525T285 541Q275 547 264 553T241 566T219 576T199 580Q176 580 161 565T140 520H136Q143 637 220 637Q237 637 254 631T290 613Q313 599 334 588T374 577Q393 577 412 592T433 636H436Z"  />
<glyph unicode="&#xF2;" horiz-adv-x="522" d="M261 -6Q212 -6 170 10T98 56T50 124T32 208Q32 253 50 293T99 365T171 414T261 433Q309 433 351 415T424 367T473 295T491 208Q491 163 473 124T424 56T351 11T261 -6ZM261 428Q195 428 166 376T136 208Q136 97 166 48T261 -1Q300 -1 324 13T363 54T382 119T387 208Q387 322 356 375T261 428ZM191 596Q168 613 158 625T148 652Q148 667 157 676T180 685Q200 685 214 670T250 617L312 505H308L191 596Z"  />
<glyph unicode="&#xF3;" horiz-adv-x="522" d="M261 -6Q212 -6 170 10T98 56T50 124T32 208Q32 253 50 293T99 365T171 414T261 433Q309 433 351 415T424 367T473 295T491 208Q491 163 473 124T424 56T351 11T261 -6ZM261 428Q195 428 166 376T136 208Q136 97 166 48T261 -1Q300 -1 324 13T363 54T382 119T387 208Q387 322 356 375T261 428ZM215 505H210L272 617Q294 655 308 670T342 685Q356 685 365 676T374 652Q374 638 364 626T332 596L215 505Z"  />
<glyph unicode="&#xF4;" horiz-adv-x="522" d="M261 -6Q212 -6 170 10T98 56T50 124T32 208Q32 253 50 293T99 365T171 414T261 433Q309 433 351 415T424 367T473 295T491 208Q491 163 473 124T424 56T351 11T261 -6ZM261 428Q195 428 166 376T136 208Q136 97 166 48T261 -1Q300 -1 324 13T363 54T382 119T387 208Q387 322 356 375T261 428ZM260 609L124 504H120L224 668H299L402 504H399L260 609Z"  />
<glyph unicode="&#xF5;" horiz-adv-x="522" d="M261 -6Q212 -6 170 10T98 56T50 124T32 208Q32 253 50 293T99 365T171 414T261 433Q309 433 351 415T424 367T473 295T491 208Q491 163 473 124T424 56T351 11T261 -6ZM261 428Q195 428 166 376T136 208Q136 97 166 48T261 -1Q300 -1 324 13T363 54T382 119T387 208Q387 322 356 375T261 428ZM411 636Q402 520 329 520Q314 520 297 525T260 541Q250 547 239 553T216 566T194 576T174 580Q151 580 136 565T115 520H111Q118 637 195 637Q212 637 229 631T265 613Q288 599 309 588T349 577Q368 577 387 592T408 636H411Z"  />
<glyph unicode="&#xF6;" horiz-adv-x="522" d="M261 -6Q212 -6 170 10T98 56T50 124T32 208Q32 253 50 293T99 365T171 414T261 433Q309 433 351 415T424 367T473 295T491 208Q491 163 473 124T424 56T351 11T261 -6ZM261 428Q195 428 166 376T136 208Q136 97 166 48T261 -1Q300 -1 324 13T363 54T382 119T387 208Q387 322 356 375T261 428ZM114 571Q114 593 129 608T165 623Q187 623 202 608T217 571Q217 550 202 535T165 520Q144 520 129 535T114 571ZM306 571Q306 593 321 608T357 623Q378 623 393 608T408 571Q408 550 393 535T357 520Q336 520 321 535T306 571Z"  />
<glyph unicode="&#xF7;" horiz-adv-x="667" d="M71 322H596V318H71V322ZM289 533Q289 551 301 564T333 577Q351 577 363 564T376 533Q376 514 364 502T333 489Q314 489 302 501T289 533ZM289 107Q289 125 301 138T333 151Q351 151 363 138T376 107Q376 89 364 76T333 63Q314 63 302 76T289 107Z"  />
<glyph unicode="&#xF8;" horiz-adv-x="522" d="M261 -6Q218 -6 181 6T114 41L55 -27L51 -24L110 44Q73 73 53 115T32 208Q32 253 50 293T99 365T171 414T261 433Q303 433 339 420T406 383L468 454L471 451L409 380Q447 348 469 304T491 208Q491 163 473 124T424 56T351 11T261 -6ZM387 208Q387 247 383 279T371 336L151 83Q165 39 192 19T261 -1Q300 -1 324 13T363 54T382 119T387 208ZM261 428Q195 428 166 376T136 208Q136 134 149 89L370 342Q340 428 261 428Z"  />
<glyph unicode="&#xF9;" horiz-adv-x="544" d="M545 4V0H507Q475 0 442 -2T376 -10V143Q354 65 319 30T220 -6Q181 -6 154 6T110 41T86 95T78 164V371Q78 393 67 404T30 415H-1V419H37Q69 419 102 422T168 430V130Q168 70 183 35T237 0Q273 0 299 19T343 70T368 138T376 211V371Q376 393 366 404T329 415H297V419H335Q367 419 400 422T467 430V49Q467 26 477 15T514 4H545ZM184 596Q161 613 151 625T141 652Q141 667 150 676T173 685Q193 685 207 670T243 617L305 505H301L184 596Z"  />
<glyph unicode="&#xFA;" horiz-adv-x="544" d="M545 4V0H507Q475 0 442 -2T376 -10V143Q354 65 319 30T220 -6Q181 -6 154 6T110 41T86 95T78 164V371Q78 393 67 404T30 415H-1V419H37Q69 419 102 422T168 430V130Q168 70 183 35T237 0Q273 0 299 19T343 70T368 138T376 211V371Q376 393 366 404T329 415H297V419H335Q367 419 400 422T467 430V49Q467 26 477 15T514 4H545ZM208 505H203L265 617Q287 655 301 670T335 685Q349 685 358 676T367 652Q367 638 357 626T325 596L208 505Z"  />
<glyph unicode="&#xFB;" horiz-adv-x="544" d="M545 4V0H507Q475 0 442 -2T376 -10V143Q354 65 319 30T220 -6Q181 -6 154 6T110 41T86 95T78 164V371Q78 393 67 404T30 415H-1V419H37Q69 419 102 422T168 430V130Q168 70 183 35T237 0Q273 0 299 19T343 70T368 138T376 211V371Q376 393 366 404T329 415H297V419H335Q367 419 400 422T467 430V49Q467 26 477 15T514 4H545ZM253 609L117 504H113L217 668H292L395 504H392L253 609Z"  />
<glyph unicode="&#xFC;" horiz-adv-x="544" d="M545 4V0H507Q475 0 442 -2T376 -10V143Q354 65 319 30T220 -6Q181 -6 154 6T110 41T86 95T78 164V371Q78 393 67 404T30 415H-1V419H37Q69 419 102 422T168 430V130Q168 70 183 35T237 0Q273 0 299 19T343 70T368 138T376 211V371Q376 393 366 404T329 415H297V419H335Q367 419 400 422T467 430V49Q467 26 477 15T514 4H545ZM107 571Q107 593 122 608T158 623Q180 623 195 608T210 571Q210 550 195 535T158 520Q137 520 122 535T107 571ZM299 571Q299 593 314 608T350 623Q371 623 386 608T401 571Q401 550 386 535T350 520Q329 520 314 535T299 571Z"  />
<glyph unicode="&#xFD;" horiz-adv-x="542" d="M547 419V415H535Q493 415 471 391T431 327L249 -111Q221 -178 188 -209T108 -240Q63 -240 36 -219T9 -163Q9 -138 23 -123T61 -108Q83 -108 96 -122T109 -157Q109 -170 104 -179T93 -195T82 -208T77 -219Q77 -235 109 -235Q154 -235 185 -205T243 -113L267 -57L102 340Q95 357 89 371T74 394T54 409T25 415H-5V419H266V415H218Q201 415 193 407T184 386Q184 380 187 374L315 62L411 292Q429 334 429 367Q429 390 414 402T370 415H327V419H547ZM251 505H246L308 617Q330 655 344 670T378 685Q392 685 401 676T410 652Q410 638 400 626T368 596L251 505Z"  />
<glyph unicode="&#xFE;" horiz-adv-x="545" d="M302 -6Q260 -6 226 23T164 121V-181Q164 -207 172 -218T204 -229H236V-234H-2V-229H33Q56 -229 64 -218T73 -181V620Q73 646 60 657T21 669H-5V674H10Q26 674 45 674T86 676T127 679T164 684V306Q183 363 218 398T304 433Q350 433 389 415T455 367T498 295T514 208Q514 163 498 124T454 56T387 11T302 -6ZM160 212Q160 171 169 133T197 65T241 17T300 -1Q355 -1 382 53T410 208Q410 322 383 375T302 428Q266 428 240 410T196 361T169 292T160 212Z"  />
<glyph unicode="&#xFF;" horiz-adv-x="542" d="M547 419V415H535Q493 415 471 391T431 327L249 -111Q221 -178 188 -209T108 -240Q63 -240 36 -219T9 -163Q9 -138 23 -123T61 -108Q83 -108 96 -122T109 -157Q109 -170 104 -179T93 -195T82 -208T77 -219Q77 -235 109 -235Q154 -235 185 -205T243 -113L267 -57L102 340Q95 357 89 371T74 394T54 409T25 415H-5V419H266V415H218Q201 415 193 407T184 386Q184 380 187 374L315 62L411 292Q429 334 429 367Q429 390 414 402T370 415H327V419H547ZM149 571Q149 593 164 608T200 623Q222 623 237 608T252 571Q252 550 237 535T200 520Q179 520 164 535T149 571ZM341 571Q341 593 356 608T392 623Q413 623 428 608T443 571Q443 550 428 535T392 520Q371 520 356 535T341 571Z"  />
<glyph unicode="&#x100;" horiz-adv-x="694" d="M187 228Q168 177 158 140T147 87Q147 53 176 29T256 4H289V0H2V4H11Q40 4 61 15T99 46T129 92T153 149L352 685H385L586 97Q607 34 622 21Q630 14 643 9T675 4H691V0H378V4H464Q484 4 493 13T502 36Q502 52 498 64L439 234H189L187 228ZM190 239H438L319 586L190 239ZM217 819H516V785H217V819Z"  />
<glyph unicode="&#x101;" horiz-adv-x="506" d="M408 -6Q370 -6 343 16T307 98Q284 44 252 19T172 -6Q108 -6 70 24T32 101Q32 133 49 153T92 187T152 209T217 223Q272 233 305 250V330Q305 375 281 400T213 426Q199 426 182 422T149 411T124 393T114 371Q114 364 122 359T140 348T158 331T166 304Q166 284 153 272T120 259Q97 259 83 275T69 312Q69 339 83 361T119 399T171 424T230 433Q395 433 395 297V91Q395 11 432 11Q467 11 482 52T497 160H501Q501 71 480 33T408 -6ZM305 245Q281 234 250 225Q222 217 200 209T162 186T138 148T129 89Q129 54 145 29T198 4Q219 4 238 15T272 46T296 89T305 139V245ZM81 575H380V541H81V575Z"  />
<glyph unicode="&#x102;" horiz-adv-x="694" d="M187 228Q168 177 158 140T147 87Q147 53 176 29T256 4H289V0H2V4H11Q40 4 61 15T99 46T129 92T153 149L352 685H385L586 97Q607 34 622 21Q630 14 643 9T675 4H691V0H378V4H464Q484 4 493 13T502 36Q502 52 498 64L439 234H189L187 228ZM190 239H438L319 586L190 239ZM237 914Q250 876 284 856T366 835Q414 835 447 855T495 914H499Q492 847 457 806T366 765Q310 765 276 806T234 914H237Z"  />
<glyph unicode="&#x103;" horiz-adv-x="506" d="M408 -6Q370 -6 343 16T307 98Q284 44 252 19T172 -6Q108 -6 70 24T32 101Q32 133 49 153T92 187T152 209T217 223Q272 233 305 250V330Q305 375 281 400T213 426Q199 426 182 422T149 411T124 393T114 371Q114 364 122 359T140 348T158 331T166 304Q166 284 153 272T120 259Q97 259 83 275T69 312Q69 339 83 361T119 399T171 424T230 433Q395 433 395 297V91Q395 11 432 11Q467 11 482 52T497 160H501Q501 71 480 33T408 -6ZM305 245Q281 234 250 225Q222 217 200 209T162 186T138 148T129 89Q129 54 145 29T198 4Q219 4 238 15T272 46T296 89T305 139V245ZM101 669Q114 631 148 611T230 590Q278 590 311 610T359 669H363Q356 602 321 561T230 520Q174 520 140 561T98 669H101Z"  />
<glyph unicode="&#x104;" horiz-adv-x="694" d="M378 0V4H464Q484 4 493 13T502 36Q502 52 498 64L439 234H189L187 228Q168 177 158 140T147 87Q147 53 176 29T256 4H289V0H2V4H11Q40 4 61 15T99 46T129 92T153 149L352 685H385L586 97Q607 34 622 21Q630 14 643 9T675 4H691V0H584L542 -31Q520 -48 512 -73T504 -149Q504 -186 518 -205T554 -224Q574 -224 589 -213T619 -175L623 -178Q605 -210 583 -225T521 -240Q473 -240 445 -218T417 -154Q417 -124 440 -102T502 -52Q525 -37 543 -24T577 0H378ZM190 239H438L319 586L190 239Z"  />
<glyph unicode="&#x105;" horiz-adv-x="506" d="M408 -6Q370 -6 343 16T307 98Q284 44 252 19T172 -6Q108 -6 70 24T32 101Q32 133 49 153T92 187T152 209T217 223Q272 233 305 250V330Q305 375 281 400T213 426Q199 426 182 422T149 411T124 393T114 371Q114 364 122 359T140 348T158 331T166 304Q166 284 153 272T120 259Q97 259 83 275T69 312Q69 339 83 361T119 399T171 424T230 433Q395 433 395 297V91Q395 11 432 11Q467 11 482 52T497 160H501Q501 88 487 50T443 0H444L402 -31Q380 -48 372 -73T364 -149Q364 -186 378 -205T414 -224Q434 -224 448 -213T479 -175L482 -178Q464 -210 442 -225T381 -240Q333 -240 305 -218T277 -154Q277 -124 300 -102T362 -52L433 -3Q421 -6 408 -6ZM305 245Q281 234 250 225Q222 217 200 209T162 186T138 148T129 89Q129 54 145 29T198 4Q219 4 238 15T272 46T296 89T305 139V245Z"  />
<glyph unicode="&#x106;" horiz-adv-x="623" d="M326 687Q433 687 504 571Q533 594 551 624T575 687H578V383H575Q560 441 538 495T485 591T416 658T327 683Q243 683 196 584Q179 548 172 477T164 308Q164 142 206 65T341 -12Q392 -12 435 8T509 63T560 144T582 245H586Q584 190 565 142T513 59T437 4T342 -17Q283 -17 230 10T135 83T69 193T44 329Q44 396 66 460T126 575T216 656T326 687ZM266 759H261L323 871Q345 909 359 924T393 939Q407 939 416 930T425 906Q425 892 415 880T383 850L266 759Z"  />
<glyph unicode="&#x107;" horiz-adv-x="442" d="M406 160Q404 84 361 39T248 -6Q204 -6 165 10T96 56T49 124T32 208Q32 253 49 293T97 365T168 414T257 433Q288 433 315 423T361 394T392 353T403 305Q403 279 391 262T354 245Q331 245 319 260T307 293Q307 315 316 325T336 341T356 351T365 366Q365 377 357 388T334 408T300 422T257 428Q194 428 165 376T136 208Q136 107 166 54T256 0Q287 0 313 12T359 45T389 95T401 160H406ZM206 505H201L263 617Q285 655 299 670T333 685Q347 685 356 676T365 652Q365 638 355 626T323 596L206 505Z"  />
<glyph unicode="&#x108;" horiz-adv-x="623" d="M326 687Q433 687 504 571Q533 594 551 624T575 687H578V383H575Q560 441 538 495T485 591T416 658T327 683Q243 683 196 584Q179 548 172 477T164 308Q164 142 206 65T341 -12Q392 -12 435 8T509 63T560 144T582 245H586Q584 190 565 142T513 59T437 4T342 -17Q283 -17 230 10T135 83T69 193T44 329Q44 396 66 460T126 575T216 656T326 687ZM325 853L189 748H185L289 912H364L467 748H464L325 853Z"  />
<glyph unicode="&#x109;" horiz-adv-x="442" d="M406 160Q404 84 361 39T248 -6Q204 -6 165 10T96 56T49 124T32 208Q32 253 49 293T97 365T168 414T257 433Q288 433 315 423T361 394T392 353T403 305Q403 279 391 262T354 245Q331 245 319 260T307 293Q307 315 316 325T336 341T356 351T365 366Q365 377 357 388T334 408T300 422T257 428Q194 428 165 376T136 208Q136 107 166 54T256 0Q287 0 313 12T359 45T389 95T401 160H406ZM250 609L114 504H110L214 668H289L392 504H389L250 609Z"  />
<glyph unicode="&#x10A;" horiz-adv-x="623" d="M326 687Q433 687 504 571Q533 594 551 624T575 687H578V383H575Q560 441 538 495T485 591T416 658T327 683Q243 683 196 584Q179 548 172 477T164 308Q164 142 206 65T341 -12Q392 -12 435 8T509 63T560 144T582 245H586Q584 190 565 142T513 59T437 4T342 -17Q283 -17 230 10T135 83T69 193T44 329Q44 396 66 460T126 575T216 656T326 687ZM284 835Q284 858 300 874T340 891Q363 891 379 875T396 835Q396 812 380 795T340 778Q317 778 301 795T284 835Z"  />
<glyph unicode="&#x10B;" horiz-adv-x="442" d="M406 160Q404 84 361 39T248 -6Q204 -6 165 10T96 56T49 124T32 208Q32 253 49 293T97 365T168 414T257 433Q288 433 315 423T361 394T392 353T403 305Q403 279 391 262T354 245Q331 245 319 260T307 293Q307 315 316 325T336 341T356 351T365 366Q365 377 357 388T334 408T300 422T257 428Q194 428 165 376T136 208Q136 107 166 54T256 0Q287 0 313 12T359 45T389 95T401 160H406ZM195 580Q195 603 211 619T251 636Q274 636 290 620T307 580Q307 557 291 540T251 523Q228 523 212 540T195 580Z"  />
<glyph unicode="&#x10C;" horiz-adv-x="623" d="M326 687Q433 687 504 571Q533 594 551 624T575 687H578V383H575Q560 441 538 495T485 591T416 658T327 683Q243 683 196 584Q179 548 172 477T164 308Q164 142 206 65T341 -12Q392 -12 435 8T509 63T560 144T582 245H586Q584 190 565 142T513 59T437 4T342 -17Q283 -17 230 10T135 83T69 193T44 329Q44 396 66 460T126 575T216 656T326 687ZM194 937L332 831L469 937H472L369 773H293L190 937H194Z"  />
<glyph unicode="&#x10D;" horiz-adv-x="442" d="M406 160Q404 84 361 39T248 -6Q204 -6 165 10T96 56T49 124T32 208Q32 253 49 293T97 365T168 414T257 433Q288 433 315 423T361 394T392 353T403 305Q403 279 391 262T354 245Q331 245 319 260T307 293Q307 315 316 325T336 341T356 351T365 366Q365 377 357 388T334 408T300 422T257 428Q194 428 165 376T136 208Q136 107 166 54T256 0Q287 0 313 12T359 45T389 95T401 160H406ZM114 683L252 577L389 683H392L289 519H213L110 683H114Z"  />
<glyph unicode="&#x10E;" horiz-adv-x="718" d="M12 674H342Q412 674 473 646T580 571T652 463T679 333Q679 264 651 204T574 98T464 27T336 0H12V4H65Q115 4 115 62V612Q115 669 65 669H12V674ZM242 669Q215 669 215 639V44Q215 4 244 4H339Q401 4 443 32T512 108T550 218T562 349Q562 418 552 477T515 578T443 645T329 669H242ZM175 927L313 821L450 927H453L350 763H274L171 927H175Z"  />
<glyph unicode="&#x10F;" horiz-adv-x="554" d="M510 0Q478 0 445 -2T379 -10V124Q360 59 324 26T239 -7Q192 -7 154 9T89 55T47 124T32 208Q32 253 47 293T90 365T156 414T241 433Q284 433 319 404T379 304V620Q379 646 366 657T326 669H278V674H316Q332 674 351 674T392 676T433 679T470 684V49Q470 26 480 15T517 4H548V0H510ZM133 208Q133 97 160 48T241 -2Q277 -2 303 16T348 63T374 130T383 208Q383 254 374 294T346 364T302 411T243 428Q188 428 161 376T133 208ZM519 470L532 589Q537 628 548 646T580 664Q594 664 603 655T612 631Q612 622 607 608T585 570L522 470H519Z"  />
<glyph unicode="&#x110;" horiz-adv-x="718" d="M24 339H115V612Q115 669 65 669H12V674H342Q412 674 473 646T580 571T652 463T679 333Q679 264 651 204T574 98T464 27T336 0H12V4H65Q115 4 115 62V335H24V339ZM242 669Q215 669 215 639V339H395V335H215V44Q215 4 244 4H339Q401 4 443 32T512 108T550 218T562 349Q562 418 552 477T515 578T443 645T329 669H242Z"  />
<glyph unicode="&#x111;" horiz-adv-x="554" d="M257 550H379V617Q379 667 326 667H278V674H316Q332 674 351 674T392 676T433 679T470 684V550H548V535H470V52Q470 29 480 18T517 7H548V0H510Q478 0 445 -2T379 -10V121Q360 59 324 26T239 -7Q192 -7 154 9T89 55T47 124T32 208Q32 253 47 293T90 365T156 414T241 433Q284 433 318 405T379 310V535H257V550ZM133 208Q133 98 160 50T241 1Q276 1 302 18T345 65T370 131T379 208Q379 254 370 293T343 362T300 408T243 425Q188 425 161 374T133 208Z"  />
<glyph unicode="&#x112;" horiz-adv-x="644" d="M12 674H589V430H586Q560 541 504 605T362 669H238Q215 669 215 637V343H250Q403 343 409 524H413V154H409Q409 246 365 292T255 338H215V38Q215 4 246 4H373Q418 4 455 22T521 72T570 148T601 244H604L599 0H12V4H64Q115 4 115 62V612Q115 669 66 669H12V674ZM235 829H534V795H235V829Z"  />
<glyph unicode="&#x113;" horiz-adv-x="491" d="M456 160Q448 121 430 91T386 39T326 6T255 -6Q207 -6 166 10T96 56T49 124T32 208Q32 253 48 293T94 365T163 414T250 433Q293 433 329 417T392 373T435 308T457 228H136V202Q136 101 170 51T263 0Q296 0 327 11T383 43T426 93T451 160H456ZM321 232Q338 232 344 241T350 283Q350 313 343 339T323 385T290 416T248 428Q198 428 167 377T136 232H321ZM100 575H399V541H100V575Z"  />
<glyph unicode="&#x114;" horiz-adv-x="644" d="M12 674H589V430H586Q560 541 504 605T362 669H238Q215 669 215 637V343H250Q403 343 409 524H413V154H409Q409 246 365 292T255 338H215V38Q215 4 246 4H373Q418 4 455 22T521 72T570 148T601 244H604L599 0H12V4H64Q115 4 115 62V612Q115 669 66 669H12V674ZM183 914Q196 876 230 856T312 835Q360 835 393 855T441 914H445Q438 847 403 806T312 765Q256 765 222 806T180 914H183Z"  />
<glyph unicode="&#x115;" horiz-adv-x="491" d="M456 160Q448 121 430 91T386 39T326 6T255 -6Q207 -6 166 10T96 56T49 124T32 208Q32 253 48 293T94 365T163 414T250 433Q293 433 329 417T392 373T435 308T457 228H136V202Q136 101 170 51T263 0Q296 0 327 11T383 43T426 93T451 160H456ZM321 232Q338 232 344 241T350 283Q350 313 343 339T323 385T290 416T248 428Q198 428 167 377T136 232H321ZM120 669Q133 631 167 611T249 590Q297 590 330 610T378 669H382Q375 602 340 561T249 520Q193 520 159 561T117 669H120Z"  />
<glyph unicode="&#x116;" horiz-adv-x="644" d="M12 674H589V430H586Q560 541 504 605T362 669H238Q215 669 215 637V343H250Q403 343 409 524H413V154H409Q409 246 365 292T255 338H215V38Q215 4 246 4H373Q418 4 455 22T521 72T570 148T601 244H604L599 0H12V4H64Q115 4 115 62V612Q115 669 66 669H12V674ZM336 835Q336 858 352 874T392 891Q415 891 431 875T448 835Q448 812 432 795T392 778Q369 778 353 795T336 835Z"  />
<glyph unicode="&#x117;" horiz-adv-x="491" d="M456 160Q448 121 430 91T386 39T326 6T255 -6Q207 -6 166 10T96 56T49 124T32 208Q32 253 48 293T94 365T163 414T250 433Q293 433 329 417T392 373T435 308T457 228H136V202Q136 101 170 51T263 0Q296 0 327 11T383 43T426 93T451 160H456ZM321 232Q338 232 344 241T350 283Q350 313 343 339T323 385T290 416T248 428Q198 428 167 377T136 232H321ZM193 580Q193 603 209 619T249 636Q272 636 288 620T305 580Q305 557 289 540T249 523Q226 523 210 540T193 580Z"  />
<glyph unicode="&#x118;" horiz-adv-x="644" d="M12 0V4H64Q115 4 115 62V612Q115 669 66 669H12V674H589V430H586Q560 541 504 605T362 669H238Q215 669 215 637V343H250Q403 343 409 524H413V154H409Q409 246 365 292T255 338H215V38Q215 4 246 4H373Q418 4 455 22T521 72T570 148T601 244H604L599 0H535L494 -31Q471 -48 464 -73T456 -149Q456 -186 469 -205T505 -224Q525 -224 540 -213T570 -175L574 -178Q556 -210 534 -225T473 -240Q425 -240 397 -218T369 -154Q369 -124 392 -102T454 -52L528 0H12Z"  />
<glyph unicode="&#x119;" horiz-adv-x="491" d="M456 160Q448 118 427 86T376 32H377L336 1Q325 -7 318 -17T306 -40T300 -73T298 -117Q298 -154 311 -172T347 -191Q367 -191 382 -181T412 -143L416 -146Q398 -178 376 -193T315 -208Q267 -208 239 -186T211 -122Q211 -92 234 -70T296 -20Q309 -11 321 -4T344 12Q303 -6 255 -6Q207 -6 166 10T96 56T49 124T32 208Q32 253 48 293T94 365T163 414T250 433Q293 433 329 417T392 373T435 308T457 228H136V202Q136 101 170 51T263 0Q296 0 327 11T383 43T426 93T451 160H456ZM321 232Q338 232 344 241T350 283Q350 313 343 339T323 385T290 416T248 428Q198 428 167 377T136 232H321Z"  />
<glyph unicode="&#x11A;" horiz-adv-x="644" d="M12 674H589V430H586Q560 541 504 605T362 669H238Q215 669 215 637V343H250Q403 343 409 524H413V154H409Q409 246 365 292T255 338H215V38Q215 4 246 4H373Q418 4 455 22T521 72T570 148T601 244H604L599 0H12V4H64Q115 4 115 62V612Q115 669 66 669H12V674ZM247 937L385 831L522 937H525L422 773H346L243 937H247Z"  />
<glyph unicode="&#x11B;" horiz-adv-x="491" d="M456 160Q448 121 430 91T386 39T326 6T255 -6Q207 -6 166 10T96 56T49 124T32 208Q32 253 48 293T94 365T163 414T250 433Q293 433 329 417T392 373T435 308T457 228H136V202Q136 101 170 51T263 0Q296 0 327 11T383 43T426 93T451 160H456ZM321 232Q338 232 344 241T350 283Q350 313 343 339T323 385T290 416T248 428Q198 428 167 377T136 232H321ZM112 683L250 577L387 683H390L287 519H211L108 683H112Z"  />
<glyph unicode="&#x11C;" horiz-adv-x="712" d="M342 683Q403 683 451 655T535 571Q555 590 569 617T591 683H594L609 370H606Q592 437 570 493T516 591T442 655T346 678Q289 678 253 651T196 574T167 459T159 313Q159 242 166 183T194 80T247 12T334 -12Q370 -12 402 -1T458 32T495 88T509 166V237Q509 270 475 270H376V274H708V270H642Q605 270 605 232V-17H603Q592 33 575 66T541 118Q499 52 453 18T337 -17Q269 -17 214 14T120 94T60 202T39 318Q39 383 62 448T127 565T224 650T342 683ZM355 863L219 758H215L319 922H394L497 758H494L355 863Z"  />
<glyph unicode="&#x11D;" horiz-adv-x="510" d="M7 -130Q7 -98 43 -81T163 -54Q95 -46 63 -24T30 46Q30 67 40 81T66 105T104 118T147 122Q157 122 167 122T188 121Q150 128 122 143T74 178T46 222T36 271Q36 308 51 338T92 389T151 421T220 433Q274 433 316 407T387 325Q387 332 386 340T385 361Q385 391 400 411T448 432Q476 432 495 416T515 372Q515 352 504 343T478 333Q462 333 452 342T441 368Q441 375 443 379T449 388T455 396T458 406Q458 414 453 419T436 425Q416 425 403 408T389 361Q389 349 392 339T398 318T404 295T407 268Q407 232 391 204T346 156T281 126T204 116Q191 116 177 117T147 118Q112 118 88 107T64 73Q64 37 134 37Q153 37 169 38T202 40T237 42T276 43Q357 43 404 10T451 -92Q451 -131 433 -159T385 -205T316 -231T233 -240Q194 -240 154 -234T81 -215T28 -181T7 -130ZM233 -235Q278 -235 315 -227T378 -202T419 -165T434 -117Q434 -79 400 -65T307 -51Q205 -51 151 -60Q111 -67 92 -86T73 -131Q73 -158 86 -178T121 -210T172 -229T233 -235ZM220 428Q125 428 125 267Q125 201 149 162T218 122Q318 122 318 278Q318 351 294 389T220 428ZM241 609L105 504H101L205 668H280L383 504H380L241 609Z"  />
<glyph unicode="&#x11E;" horiz-adv-x="712" d="M342 683Q403 683 451 655T535 571Q555 590 569 617T591 683H594L609 370H606Q592 437 570 493T516 591T442 655T346 678Q289 678 253 651T196 574T167 459T159 313Q159 242 166 183T194 80T247 12T334 -12Q370 -12 402 -1T458 32T495 88T509 166V237Q509 270 475 270H376V274H708V270H642Q605 270 605 232V-17H603Q592 33 575 66T541 118Q499 52 453 18T337 -17Q269 -17 214 14T120 94T60 202T39 318Q39 383 62 448T127 565T224 650T342 683ZM222 924Q235 886 269 866T351 845Q399 845 432 865T480 924H484Q477 857 442 816T351 775Q295 775 261 816T219 924H222Z"  />
<glyph unicode="&#x11F;" horiz-adv-x="510" d="M7 -130Q7 -98 43 -81T163 -54Q95 -46 63 -24T30 46Q30 67 40 81T66 105T104 118T147 122Q157 122 167 122T188 121Q150 128 122 143T74 178T46 222T36 271Q36 308 51 338T92 389T151 421T220 433Q274 433 316 407T387 325Q387 332 386 340T385 361Q385 391 400 411T448 432Q476 432 495 416T515 372Q515 352 504 343T478 333Q462 333 452 342T441 368Q441 375 443 379T449 388T455 396T458 406Q458 414 453 419T436 425Q416 425 403 408T389 361Q389 349 392 339T398 318T404 295T407 268Q407 232 391 204T346 156T281 126T204 116Q191 116 177 117T147 118Q112 118 88 107T64 73Q64 37 134 37Q153 37 169 38T202 40T237 42T276 43Q357 43 404 10T451 -92Q451 -131 433 -159T385 -205T316 -231T233 -240Q194 -240 154 -234T81 -215T28 -181T7 -130ZM233 -235Q278 -235 315 -227T378 -202T419 -165T434 -117Q434 -79 400 -65T307 -51Q205 -51 151 -60Q111 -67 92 -86T73 -131Q73 -158 86 -178T121 -210T172 -229T233 -235ZM220 428Q125 428 125 267Q125 201 149 162T218 122Q318 122 318 278Q318 351 294 389T220 428ZM112 669Q125 631 159 611T241 590Q289 590 322 610T370 669H374Q367 602 332 561T241 520Q185 520 151 561T109 669H112Z"  />
<glyph unicode="&#x120;" horiz-adv-x="712" d="M342 683Q403 683 451 655T535 571Q555 590 569 617T591 683H594L609 370H606Q592 437 570 493T516 591T442 655T346 678Q289 678 253 651T196 574T167 459T159 313Q159 242 166 183T194 80T247 12T334 -12Q370 -12 402 -1T458 32T495 88T509 166V237Q509 270 475 270H376V274H708V270H642Q605 270 605 232V-17H603Q592 33 575 66T541 118Q499 52 453 18T337 -17Q269 -17 214 14T120 94T60 202T39 318Q39 383 62 448T127 565T224 650T342 683ZM304 835Q304 858 320 874T360 891Q383 891 399 875T416 835Q416 812 400 795T360 778Q337 778 321 795T304 835Z"  />
<glyph unicode="&#x121;" horiz-adv-x="510" d="M7 -130Q7 -98 43 -81T163 -54Q95 -46 63 -24T30 46Q30 67 40 81T66 105T104 118T147 122Q157 122 167 122T188 121Q150 128 122 143T74 178T46 222T36 271Q36 308 51 338T92 389T151 421T220 433Q274 433 316 407T387 325Q387 332 386 340T385 361Q385 391 400 411T448 432Q476 432 495 416T515 372Q515 352 504 343T478 333Q462 333 452 342T441 368Q441 375 443 379T449 388T455 396T458 406Q458 414 453 419T436 425Q416 425 403 408T389 361Q389 349 392 339T398 318T404 295T407 268Q407 232 391 204T346 156T281 126T204 116Q191 116 177 117T147 118Q112 118 88 107T64 73Q64 37 134 37Q153 37 169 38T202 40T237 42T276 43Q357 43 404 10T451 -92Q451 -131 433 -159T385 -205T316 -231T233 -240Q194 -240 154 -234T81 -215T28 -181T7 -130ZM233 -235Q278 -235 315 -227T378 -202T419 -165T434 -117Q434 -79 400 -65T307 -51Q205 -51 151 -60Q111 -67 92 -86T73 -131Q73 -158 86 -178T121 -210T172 -229T233 -235ZM220 428Q125 428 125 267Q125 201 149 162T218 122Q318 122 318 278Q318 351 294 389T220 428ZM186 580Q186 603 202 619T242 636Q265 636 281 620T298 580Q298 557 282 540T242 523Q219 523 203 540T186 580Z"  />
<glyph unicode="&#x122;" horiz-adv-x="712" d="M342 683Q403 683 451 655T535 571Q555 590 569 617T591 683H594L609 370H606Q592 437 570 493T516 591T442 655T346 678Q289 678 253 651T196 574T167 459T159 313Q159 242 166 183T194 80T247 12T334 -12Q370 -12 402 -1T458 32T495 88T509 166V237Q509 270 475 270H376V274H708V270H642Q605 270 605 232V-17H603Q592 33 575 66T541 118Q499 52 453 18T337 -17Q269 -17 214 14T120 94T60 202T39 318Q39 383 62 448T127 565T224 650T342 683ZM303 -236Q337 -218 353 -197T370 -153Q370 -140 358 -140Q350 -140 345 -143T326 -146Q308 -146 295 -134T282 -105Q282 -84 295 -70T325 -56Q354 -56 366 -75T379 -130Q379 -168 361 -194T305 -240L303 -236Z"  />
<glyph unicode="&#x123;" horiz-adv-x="510" d="M7 -130Q7 -98 43 -81T163 -54Q95 -46 63 -24T30 46Q30 67 40 81T66 105T104 118T147 122Q157 122 167 122T188 121Q150 128 122 143T74 178T46 222T36 271Q36 308 51 338T92 389T151 421T220 433Q274 433 316 407T387 325Q387 332 386 340T385 361Q385 391 400 411T448 432Q476 432 495 416T515 372Q515 352 504 343T478 333Q462 333 452 342T441 368Q441 375 443 379T449 388T455 396T458 406Q458 414 453 419T436 425Q416 425 403 408T389 361Q389 349 392 339T398 318T404 295T407 268Q407 232 391 204T346 156T281 126T204 116Q191 116 177 117T147 118Q112 118 88 107T64 73Q64 37 134 37Q153 37 169 38T202 40T237 42T276 43Q357 43 404 10T451 -92Q451 -131 433 -159T385 -205T316 -231T233 -240Q194 -240 154 -234T81 -215T28 -181T7 -130ZM233 -235Q278 -235 315 -227T378 -202T419 -165T434 -117Q434 -79 400 -65T307 -51Q205 -51 151 -60Q111 -67 92 -86T73 -131Q73 -158 86 -178T121 -210T172 -229T233 -235ZM220 428Q125 428 125 267Q125 201 149 162T218 122Q318 122 318 278Q318 351 294 389T220 428ZM268 704Q233 685 217 664T201 621Q201 607 212 607Q221 607 226 610T244 614Q263 614 276 602T289 572Q289 551 276 537T246 523Q217 523 205 543T192 598Q192 636 209 661T265 708L268 704Z"  />
<glyph unicode="&#x124;" horiz-adv-x="730" d="M12 674H315V669H265Q215 669 215 612V352H516V612Q516 669 466 669H413V674H718V669H666Q616 669 616 612V62Q616 4 666 4H718V0H413V4H466Q516 4 516 62V347H215V62Q215 4 265 4H315V0H12V4H65Q115 4 115 62V612Q115 669 65 669H12V674ZM364 863L228 758H224L328 922H403L506 758H503L364 863Z"  />
<glyph unicode="&#x125;" horiz-adv-x="560" d="M179 288Q219 433 331 433Q369 433 397 421T444 386T472 332T482 263V53Q482 26 491 15T523 4H555V0H316V4H351Q374 4 383 15T392 53V292Q392 353 373 388T316 424Q285 424 260 408T216 364T189 301T179 229V53Q179 27 187 16T219 4H251V0H13V4H48Q71 4 79 15T88 53V625Q88 648 78 658T41 669H10V674H48Q80 674 113 676T179 684V288ZM251 853L115 748H111L215 912H290L393 748H390L251 853Z"  />
<glyph unicode="&#x126;" horiz-adv-x="730" d="M12 674H315V669H265Q215 669 215 612V513H516V612Q516 669 466 669H413V674H718V669H666Q616 669 616 612V513H682V508H616V62Q616 4 666 4H718V0H413V4H466Q516 4 516 62V347H215V62Q215 4 265 4H315V0H12V4H65Q115 4 115 62V508H48V513H115V612Q115 669 65 669H12V674ZM516 352V508H215V352H516Z"  />
<glyph unicode="&#x127;" horiz-adv-x="560" d="M179 545H301V541H179V288Q219 433 331 433Q369 433 397 421T444 386T472 332T482 263V53Q482 26 491 15T523 4H555V0H316V4H351Q374 4 383 15T392 53V292Q392 353 373 388T316 424Q285 424 260 408T216 364T189 301T179 229V53Q179 27 187 16T219 4H251V0H13V4H48Q71 4 79 15T88 53V541H10V545H88V625Q88 648 78 658T41 669H10V674H48Q80 674 113 676T179 684V545Z"  />
<glyph unicode="&#x128;" horiz-adv-x="330" d="M12 4H65Q115 4 115 62V612Q115 669 65 669H12V674H317V669H265Q215 669 215 612V62Q215 4 265 4H317V0H12V4ZM315 880Q306 764 233 764Q218 764 201 769T164 785Q154 791 143 797T120 810T98 820T78 824Q55 824 40 809T19 764H15Q22 881 99 881Q116 881 133 875T169 857Q192 843 213 832T253 821Q272 821 291 836T312 880H315Z"  />
<glyph unicode="&#x129;" horiz-adv-x="256" d="M284 636Q275 520 201 520Q186 520 170 525T133 541Q123 547 112 553T89 566T66 576T46 580Q23 580 8 565T-13 520H-16Q-10 637 68 637Q85 637 102 631T138 613Q161 599 182 588T221 577Q241 577 259 592T280 636H284ZM179 53Q179 27 187 16T219 4H251V0H13V4H48Q71 4 79 15T88 53V372Q88 394 76 404T41 415H10V419H48Q79 419 111 421T179 430V53Z"  />
<glyph unicode="&#x12A;" horiz-adv-x="330" d="M12 4H65Q115 4 115 62V612Q115 669 65 669H12V674H317V669H265Q215 669 215 612V62Q215 4 265 4H317V0H12V4ZM16 819H315V785H16V819Z"  />
<glyph unicode="&#x12B;" horiz-adv-x="256" d="M-16 575H283V541H-16V575ZM179 53Q179 27 187 16T219 4H251V0H13V4H48Q71 4 79 15T88 53V372Q88 394 76 404T41 415H10V419H48Q79 419 111 421T179 430V53Z"  />
<glyph unicode="&#x12C;" horiz-adv-x="330" d="M12 4H65Q115 4 115 62V612Q115 669 65 669H12V674H317V669H265Q215 669 215 612V62Q215 4 265 4H317V0H12V4ZM36 914Q49 876 83 856T165 835Q213 835 246 855T294 914H298Q291 847 256 806T165 765Q109 765 75 806T33 914H36Z"  />
<glyph unicode="&#x12D;" horiz-adv-x="256" d="M5 669Q18 631 52 611T134 590Q181 590 214 610T263 669H266Q260 602 225 561T134 520Q78 520 44 561T1 669H5ZM179 53Q179 27 187 16T219 4H251V0H13V4H48Q71 4 79 15T88 53V372Q88 394 76 404T41 415H10V419H48Q79 419 111 421T179 430V53Z"  />
<glyph unicode="&#x12E;" horiz-adv-x="330" d="M12 4H65Q115 4 115 62V612Q115 669 65 669H12V674H317V669H265Q215 669 215 612V62Q215 4 265 4H317V0H210L169 -31Q146 -48 139 -73T131 -149Q131 -186 144 -205T180 -224Q200 -224 215 -213T245 -175L249 -178Q231 -210 209 -225T148 -240Q100 -240 72 -218T44 -154Q44 -124 67 -102T129 -52L204 0H12V4Z"  />
<glyph unicode="&#x12F;" horiz-adv-x="256" d="M13 0V4H48Q71 4 79 15T88 53V372Q88 394 76 404T41 415H10V419H48Q79 419 111 421T179 430V53Q179 27 187 16T219 4H251V0H182L141 -31Q118 -48 111 -73T103 -149Q103 -186 116 -205T152 -224Q172 -224 187 -213T217 -175L221 -178Q203 -210 181 -225T120 -240Q72 -240 44 -218T16 -154Q16 -124 39 -102T101 -52L175 0H13ZM76 573Q76 596 92 612T132 629Q155 629 171 613T188 573Q188 550 172 534T132 517Q109 517 93 533T76 573Z"  />
<glyph unicode="&#x130;" horiz-adv-x="330" d="M12 4H65Q115 4 115 62V612Q115 669 65 669H12V674H317V669H265Q215 669 215 612V62Q215 4 265 4H317V0H12V4ZM109 825Q109 848 125 864T165 881Q188 881 204 865T221 825Q221 802 205 785T165 768Q142 768 126 785T109 825Z"  />
<glyph unicode="&#x131;" horiz-adv-x="264" d="M179 53Q179 27 187 16T219 4H251V0H13V4H48Q71 4 79 15T88 53V372Q88 394 76 404T41 415H10V419H48Q79 419 111 421T179 430V53Z"  />
<glyph unicode="&#x132;" horiz-adv-x="832" d="M12 4H65Q115 4 115 62V612Q115 669 65 669H12V674H317V669H265Q215 669 215 612V62Q215 4 265 4H317V0H12V4ZM827 674V669H775Q725 669 725 612V213Q725 162 710 119T668 45T602 -3T516 -21Q480 -21 447 -9T389 25T349 77T334 144Q334 179 351 205T401 232Q428 232 445 213T463 167Q463 139 450 125T420 101T391 86T377 67Q377 50 389 35T420 9T464 -9T515 -16Q575 -16 600 19T625 126V612Q625 669 575 669H522V674H827Z"  />
<glyph unicode="&#x133;" horiz-adv-x="523" d="M179 53Q179 27 187 16T219 4H251V0H13V4H48Q71 4 79 15T88 53V372Q88 394 76 404T41 415H10V419H48Q79 419 111 421T179 430V53ZM76 573Q76 596 92 612T132 629Q155 629 171 613T188 573Q188 550 172 534T132 517Q109 517 93 533T76 573ZM319 419Q350 419 382 421T450 430V-78Q450 -108 442 -137T416 -189T373 -226T312 -240Q294 -240 276 -235T244 -219T221 -192T212 -156Q212 -134 224 -121T260 -107Q280 -107 291 -118T302 -147Q302 -164 296 -174T281 -190T267 -201T260 -212Q260 -222 276 -228T312 -235Q340 -235 349 -219T359 -154V372Q359 394 347 404T312 415H281V419H319ZM347 573Q347 596 363 612T403 629Q426 629 442 613T459 573Q459 550 443 534T403 517Q380 517 364 533T347 573Z"  />
<glyph unicode="&#x134;" horiz-adv-x="502" d="M498 674V669H445Q395 669 395 612V213Q395 162 380 119T338 45T273 -3T187 -21Q150 -21 117 -9T59 25T20 77T5 144Q5 179 22 205T72 232Q98 232 115 213T133 167Q133 139 120 125T90 101T61 86T47 67Q47 50 59 35T90 9T134 -9T185 -16Q246 -16 270 19T295 126V612Q295 669 245 669H192V674H498ZM344 853L208 748H204L308 912H383L486 748H483L344 853Z"  />
<glyph unicode="&#x135;" horiz-adv-x="251" d="M47 419Q78 419 110 421T179 430V-78Q179 -108 171 -137T145 -189T102 -226T41 -240Q23 -240 5 -235T-27 -219T-50 -192T-59 -156Q-59 -134 -47 -121T-11 -107Q9 -107 20 -118T31 -147Q31 -164 25 -174T10 -190T-4 -201T-11 -212Q-11 -222 5 -228T41 -235Q68 -235 78 -219T88 -154V372Q88 394 75 404T41 415H9V419H47ZM125 609L-12 504H-15L88 668H164L267 504H264L125 609Z"  />
<glyph unicode="&#x136;" horiz-adv-x="763" d="M713 674V669H701Q640 669 592 642T494 564L370 440L617 90Q643 52 676 28T748 4H760V0H422V4H503Q517 4 523 10T530 27Q530 39 518 57L298 368L215 284V62Q215 4 265 4H317V0H12V4H65Q115 4 115 62V612Q115 669 65 669H12V674H317V669H265Q215 669 215 612V291L463 540Q486 562 497 582T508 619Q508 643 492 656T448 669H408V674H713ZM338 -236Q372 -218 388 -197T405 -153Q405 -140 393 -140Q385 -140 380 -143T361 -146Q343 -146 330 -134T317 -105Q317 -84 330 -70T360 -56Q389 -56 401 -75T414 -130Q414 -168 396 -194T340 -240L338 -236Z"  />
<glyph unicode="&#x137;" horiz-adv-x="549" d="M179 156L346 323Q359 336 365 347T372 374Q372 391 354 403T295 415H260V419H527V415H513Q444 415 368 338L310 280L473 51Q488 29 506 17T544 4H555V0H305V4H353Q364 4 370 8T377 22Q377 32 368 43L246 216L179 149V53Q179 27 187 16T219 4H251V0H13V4H48Q71 4 79 15T88 53V626Q88 649 76 659T41 669H10V674H48Q79 674 111 676T179 684V156ZM244 -236Q278 -218 294 -197T311 -153Q311 -140 299 -140Q291 -140 286 -143T267 -146Q249 -146 236 -134T223 -105Q223 -84 236 -70T266 -56Q295 -56 307 -75T320 -130Q320 -168 302 -194T246 -240L244 -236Z"  />
<glyph unicode="&#x138;" horiz-adv-x="549" d="M179 156L346 323Q359 336 365 347T372 374Q372 391 354 403T295 415H260V419H527V415H513Q444 415 368 338L310 280L473 51Q488 29 506 17T544 4H555V0H305V4H353Q364 4 370 8T377 22Q377 32 368 43L246 216L179 149V53Q179 27 187 16T219 4H251V0H13V4H48Q71 4 79 15T88 53V372Q88 394 76 404T41 415H10V419H48Q79 419 111 421T179 430V156Z"  />
<glyph unicode="&#x139;" horiz-adv-x="599" d="M12 4H60Q86 4 100 18T115 62V612Q115 641 101 655T60 669H14V674H310V669H265Q215 669 215 612V57Q215 4 257 4H328Q376 4 417 25T490 82T546 165T581 264H584L576 0H12V4ZM119 749H114L176 861Q198 899 212 914T246 929Q260 929 269 920T278 896Q278 882 268 870T236 840L119 749Z"  />
<glyph unicode="&#x13A;" horiz-adv-x="264" d="M179 53Q179 27 187 16T219 4H251V0H13V4H48Q71 4 79 15T88 53V626Q88 649 76 659T41 669H10V674H48Q79 674 111 676T179 684V53ZM88 749H83L145 861Q167 899 181 914T215 929Q229 929 238 920T247 896Q247 882 237 870T205 840L88 749Z"  />
<glyph unicode="&#x13B;" horiz-adv-x="599" d="M12 4H60Q86 4 100 18T115 62V612Q115 641 101 655T60 669H14V674H310V669H265Q215 669 215 612V57Q215 4 257 4H328Q376 4 417 25T490 82T546 165T581 264H584L576 0H12V4ZM266 -236Q300 -218 316 -197T333 -153Q333 -140 321 -140Q313 -140 308 -143T289 -146Q271 -146 258 -134T245 -105Q245 -84 258 -70T288 -56Q317 -56 329 -75T342 -130Q342 -168 324 -194T268 -240L266 -236Z"  />
<glyph unicode="&#x13C;" horiz-adv-x="264" d="M179 53Q179 27 187 16T219 4H251V0H13V4H48Q71 4 79 15T88 53V626Q88 649 76 659T41 669H10V674H48Q79 674 111 676T179 684V53ZM107 -236Q141 -218 157 -197T174 -153Q174 -140 162 -140Q154 -140 149 -143T130 -146Q112 -146 99 -134T86 -105Q86 -84 99 -70T129 -56Q158 -56 170 -75T183 -130Q183 -168 165 -194T109 -240L107 -236Z"  />
<glyph unicode="&#x13D;" horiz-adv-x="599" d="M12 4H60Q86 4 100 18T115 62V612Q115 641 101 655T60 669H14V674H310V669H265Q215 669 215 612V57Q215 4 257 4H328Q376 4 417 25T490 82T546 165T581 264H584L576 0H12V4ZM312 470L326 589Q331 628 342 646T374 664Q388 664 397 655T406 631Q406 622 401 608T379 570L316 470H312Z"  />
<glyph unicode="&#x13E;" horiz-adv-x="264" d="M179 53Q179 27 187 16T219 4H251V0H13V4H48Q71 4 79 15T88 53V626Q88 649 76 659T41 669H10V674H48Q79 674 111 676T179 684V53ZM228 470L241 589Q246 628 257 646T290 664Q304 664 312 655T321 631Q321 622 316 608T295 570L232 470H228Z"  />
<glyph unicode="&#x13F;" horiz-adv-x="618" d="M12 4H60Q86 4 100 18T115 62V612Q115 641 101 655T60 669H14V674H310V669H265Q215 669 215 612V57Q215 4 257 4H328Q376 4 417 25T490 82T546 165T581 264H584L576 0H12V4ZM527 443Q527 422 512 407T474 391Q452 391 437 406T421 443Q421 465 436 480T474 496Q496 496 511 481T527 443Z"  />
<glyph unicode="&#x140;" horiz-adv-x="392" d="M179 53Q179 27 187 16T219 4H251V0H13V4H48Q71 4 79 15T88 53V626Q88 649 76 659T41 669H10V674H48Q79 674 111 676T179 684V53ZM382 332Q382 310 367 295T330 279Q307 279 292 294T277 332Q277 354 292 369T330 385Q351 385 366 370T382 332Z"  />
<glyph unicode="&#x141;" horiz-adv-x="599" d="M12 4H60Q86 4 100 18T115 62V299L12 215V221L115 305V612Q115 641 101 655T60 669H14V674H310V669H265Q215 669 215 612V387L377 520V514L215 381V57Q215 4 257 4H328Q376 4 417 25T490 82T546 165T581 264H584L576 0H12V4Z"  />
<glyph unicode="&#x142;" horiz-adv-x="264" d="M179 413L243 465V459L179 407V53Q179 27 187 16T219 4H251V0H13V4H48Q71 4 79 15T88 53V333L25 282V288L88 339V626Q88 649 76 659T41 669H10V674H48Q79 674 111 676T179 684V413Z"  />
<glyph unicode="&#x143;" horiz-adv-x="701" d="M194 674L576 119V463Q576 511 571 549T553 614T515 655T452 669H429V674H696V669H676Q640 669 621 650T592 601T582 535T580 463V-23H552L129 592V207Q129 156 134 118T154 55T191 17T250 4H287V0H12V4H32Q55 4 72 13T101 46T119 109T125 207V521Q125 561 122 589T109 635T82 661T35 669H12V674H194ZM282 749H277L339 861Q361 899 375 914T409 929Q423 929 432 920T441 896Q441 882 431 870T399 840L282 749Z"  />
<glyph unicode="&#x144;" horiz-adv-x="560" d="M179 288Q219 433 331 433Q369 433 397 421T444 386T472 332T482 263V53Q482 26 491 15T523 4H555V0H316V4H351Q374 4 383 15T392 53V292Q392 353 373 388T316 424Q285 424 260 408T216 364T189 301T179 229V53Q179 27 187 16T219 4H251V0H13V4H48Q71 4 79 15T88 53V371Q88 393 78 404T41 415H10V419H48Q80 419 113 422T179 430V288ZM240 505H235L297 617Q319 655 333 670T367 685Q381 685 390 676T399 652Q399 638 389 626T357 596L240 505Z"  />
<glyph unicode="&#x145;" horiz-adv-x="701" d="M194 674L576 119V463Q576 511 571 549T553 614T515 655T452 669H429V674H696V669H676Q640 669 621 650T592 601T582 535T580 463V-23H552L129 592V207Q129 156 134 118T154 55T191 17T250 4H287V0H12V4H32Q55 4 72 13T101 46T119 109T125 207V521Q125 561 122 589T109 635T82 661T35 669H12V674H194ZM325 -236Q359 -218 375 -197T392 -153Q392 -140 380 -140Q372 -140 367 -143T348 -146Q330 -146 317 -134T304 -105Q304 -84 317 -70T347 -56Q376 -56 388 -75T401 -130Q401 -168 383 -194T327 -240L325 -236Z"  />
<glyph unicode="&#x146;" horiz-adv-x="560" d="M179 288Q219 433 331 433Q369 433 397 421T444 386T472 332T482 263V53Q482 26 491 15T523 4H555V0H316V4H351Q374 4 383 15T392 53V292Q392 353 373 388T316 424Q285 424 260 408T216 364T189 301T179 229V53Q179 27 187 16T219 4H251V0H13V4H48Q71 4 79 15T88 53V371Q88 393 78 404T41 415H10V419H48Q80 419 113 422T179 430V288ZM250 -236Q284 -218 300 -197T317 -153Q317 -140 305 -140Q297 -140 292 -143T273 -146Q255 -146 242 -134T229 -105Q229 -84 242 -70T272 -56Q301 -56 313 -75T326 -130Q326 -168 308 -194T252 -240L250 -236Z"  />
<glyph unicode="&#x147;" horiz-adv-x="701" d="M194 674L576 119V463Q576 511 571 549T553 614T515 655T452 669H429V674H696V669H676Q640 669 621 650T592 601T582 535T580 463V-23H552L129 592V207Q129 156 134 118T154 55T191 17T250 4H287V0H12V4H32Q55 4 72 13T101 46T119 109T125 207V521Q125 561 122 589T109 635T82 661T35 669H12V674H194ZM191 927L329 821L466 927H469L366 763H290L187 927H191Z"  />
<glyph unicode="&#x148;" horiz-adv-x="560" d="M179 288Q219 433 331 433Q369 433 397 421T444 386T472 332T482 263V53Q482 26 491 15T523 4H555V0H316V4H351Q374 4 383 15T392 53V292Q392 353 373 388T316 424Q285 424 260 408T216 364T189 301T179 229V53Q179 27 187 16T219 4H251V0H13V4H48Q71 4 79 15T88 53V371Q88 393 78 404T41 415H10V419H48Q80 419 113 422T179 430V288ZM149 683L287 577L424 683H427L324 519H248L145 683H149Z"  />
<glyph unicode="&#x149;" horiz-adv-x="696" d="M315 288Q355 433 467 433Q505 433 533 421T581 386T609 332T619 263V53Q619 26 627 15T659 4H691V0H452V4H487Q511 4 519 15T528 53V292Q528 353 509 388T452 424Q421 424 396 408T352 364T325 301T315 229V53Q315 27 323 16T355 4H387V0H149V4H184Q207 4 216 15T225 53V371Q225 393 214 404T177 415H146V419H184Q216 419 249 422T315 430V288ZM43 433Q143 490 143 578Q143 599 128 599Q123 599 119 597T110 591T99 585T82 582Q63 582 50 597T37 633Q37 654 50 668T84 682Q100 682 112 674T132 653T144 622T148 586Q148 536 124 498T45 429L43 433Z"  />
<glyph unicode="&#x14A;" horiz-adv-x="701" d="M194 674L576 119V463Q576 511 571 549T553 614T515 655T452 669H429V674H696V669H676Q640 669 621 650T592 601T582 535T580 463V-78Q580 -108 573 -137T550 -189T512 -226T458 -240Q440 -240 422 -235T389 -219T366 -192T357 -156Q357 -134 369 -121T404 -107Q424 -107 435 -118T447 -147Q447 -164 442 -173T429 -189T417 -201T411 -214Q411 -224 423 -229T457 -235Q484 -235 494 -219T504 -155V47L129 592V207Q129 156 134 118T154 55T191 17T250 4H287V0H12V4H32Q55 4 72 13T101 46T119 109T125 207V521Q125 561 122 589T109 635T82 661T35 669H12V674H194Z"  />
<glyph unicode="&#x14B;" horiz-adv-x="550" d="M392 292Q392 353 373 388T316 424Q285 424 260 408T216 364T189 301T179 229V53Q179 27 187 16T219 4H251V0H13V4H48Q71 4 79 15T88 53V371Q88 393 78 404T41 415H10V419H48Q80 419 113 422T179 430V288Q219 433 331 433Q369 433 397 421T444 386T472 332T482 263V-78Q482 -108 474 -137T448 -189T406 -226T345 -240Q327 -240 309 -235T277 -219T254 -192T245 -156Q245 -134 257 -121T292 -107Q312 -107 323 -118T334 -147Q334 -164 328 -174T313 -190T299 -201T292 -212Q292 -222 308 -228T344 -235Q372 -235 382 -219T392 -154V292Z"  />
<glyph unicode="&#x14C;" horiz-adv-x="698" d="M39 330Q39 397 62 460T128 573T227 653T350 683Q417 683 473 653T571 573T635 460T659 330Q659 263 636 201T571 90T473 12T350 -17Q278 -17 221 14T123 96T61 208T39 330ZM521 551Q505 613 461 645T350 678Q284 678 237 645T175 549Q167 518 164 460T160 331Q160 259 164 203T176 115Q192 50 236 19T349 -12Q420 -12 465 22T524 123Q531 155 534 213T538 341Q538 410 534 466T521 551ZM200 819H499V785H200V819Z"  />
<glyph unicode="&#x14D;" horiz-adv-x="522" d="M261 -6Q212 -6 170 10T98 56T50 124T32 208Q32 253 50 293T99 365T171 414T261 433Q309 433 351 415T424 367T473 295T491 208Q491 163 473 124T424 56T351 11T261 -6ZM261 428Q195 428 166 376T136 208Q136 97 166 48T261 -1Q300 -1 324 13T363 54T382 119T387 208Q387 322 356 375T261 428ZM112 575H411V541H112V575Z"  />
<glyph unicode="&#x14E;" horiz-adv-x="698" d="M39 330Q39 397 62 460T128 573T227 653T350 683Q417 683 473 653T571 573T635 460T659 330Q659 263 636 201T571 90T473 12T350 -17Q278 -17 221 14T123 96T61 208T39 330ZM521 551Q505 613 461 645T350 678Q284 678 237 645T175 549Q167 518 164 460T160 331Q160 259 164 203T176 115Q192 50 236 19T349 -12Q420 -12 465 22T524 123Q531 155 534 213T538 341Q538 410 534 466T521 551ZM220 914Q233 876 267 856T349 835Q397 835 430 855T478 914H482Q475 847 440 806T349 765Q293 765 259 806T217 914H220Z"  />
<glyph unicode="&#x14F;" horiz-adv-x="522" d="M261 -6Q212 -6 170 10T98 56T50 124T32 208Q32 253 50 293T99 365T171 414T261 433Q309 433 351 415T424 367T473 295T491 208Q491 163 473 124T424 56T351 11T261 -6ZM261 428Q195 428 166 376T136 208Q136 97 166 48T261 -1Q300 -1 324 13T363 54T382 119T387 208Q387 322 356 375T261 428ZM132 669Q145 631 179 611T261 590Q309 590 342 610T390 669H394Q387 602 352 561T261 520Q205 520 171 561T129 669H132Z"  />
<glyph unicode="&#x150;" horiz-adv-x="698" d="M39 330Q39 397 62 460T128 573T227 653T350 683Q417 683 473 653T571 573T635 460T659 330Q659 263 636 201T571 90T473 12T350 -17Q278 -17 221 14T123 96T61 208T39 330ZM521 551Q505 613 461 645T350 678Q284 678 237 645T175 549Q167 518 164 460T160 331Q160 259 164 203T176 115Q192 50 236 19T349 -12Q420 -12 465 22T524 123Q531 155 534 213T538 341Q538 410 534 466T521 551ZM393 749H387L447 873Q461 902 474 917T503 932Q519 932 529 922T539 896Q539 875 503 844L393 749ZM256 749H252L311 873Q325 902 338 917T368 932Q383 932 393 922T403 896Q403 874 367 844L256 749Z"  />
<glyph unicode="&#x151;" horiz-adv-x="522" d="M261 -6Q212 -6 170 10T98 56T50 124T32 208Q32 253 50 293T99 365T171 414T261 433Q309 433 351 415T424 367T473 295T491 208Q491 163 473 124T424 56T351 11T261 -6ZM261 428Q195 428 166 376T136 208Q136 97 166 48T261 -1Q300 -1 324 13T363 54T382 119T387 208Q387 322 356 375T261 428ZM305 505H299L359 629Q373 658 386 673T415 688Q431 688 441 678T451 652Q451 631 415 600L305 505ZM168 505H164L223 629Q237 658 250 673T280 688Q295 688 305 678T315 652Q315 630 279 600L168 505Z"  />
<glyph unicode="&#x152;" horiz-adv-x="1066" d="M502 0Q479 0 439 -8T350 -17Q278 -17 221 15T123 99T61 212T39 333Q39 400 62 464T128 577T227 657T350 687Q397 687 428 681T477 674H1012V430H1009Q983 541 927 605T785 669H661Q638 669 638 637V343H672Q826 343 832 524H836V154H832Q832 246 788 292T678 338H638V38Q638 4 669 4H796Q841 4 878 22T944 72T993 148T1024 244H1027L1021 0H502ZM176 127Q192 61 236 25T349 -12Q417 -12 455 9T511 74T534 185T538 344Q538 430 533 494T509 600T453 662T350 683Q284 683 237 645T174 542Q167 511 164 458T160 333Q160 264 164 211T176 127Z"  />
<glyph unicode="&#x153;" horiz-adv-x="846" d="M811 160Q803 121 785 91T741 39T681 6T610 -6Q556 -6 511 17T437 79Q407 40 361 17T261 -6Q212 -6 170 10T98 56T50 124T32 208Q32 253 50 293T99 365T171 414T261 433Q315 433 361 408T437 342Q466 383 508 408T604 433Q647 433 683 417T747 373T790 308T812 228H491V202Q491 101 525 51T618 0Q651 0 682 11T738 43T781 93T806 160H811ZM261 428Q195 428 166 376T136 208Q136 97 166 48T261 -1Q300 -1 324 13T363 54T382 119T387 208Q387 322 356 375T261 428ZM676 232Q693 232 699 241T705 283Q705 313 698 339T678 385T645 416T603 428Q553 428 522 377T491 232H676Z"  />
<glyph unicode="&#x154;" horiz-adv-x="693" d="M12 4H65Q115 4 115 62V612Q115 669 65 669H12V674H328Q381 674 428 663T510 631T566 578T587 506Q587 470 566 442T511 392T432 358T340 338Q395 327 435 308T503 259T544 184T564 79Q566 50 575 34T604 17Q628 17 646 56T664 164V218H668V179Q668 91 648 43T572 -6Q510 -6 482 35T449 145Q446 197 436 234T407 294T357 327T284 338H215V62Q215 4 265 4H317V0H12V4ZM265 669Q215 669 215 612V343H314Q389 343 430 384T472 507Q472 588 427 628T304 669H265ZM264 749H259L321 861Q343 899 357 914T391 929Q405 929 414 920T423 896Q423 882 413 870T381 840L264 749Z"  />
<glyph unicode="&#x155;" horiz-adv-x="412" d="M179 292Q200 365 235 399T310 433Q328 433 344 426T373 408T393 381T401 348Q401 321 387 306T350 290Q327 290 311 304T295 339Q295 354 301 363T314 380T328 393T334 407Q334 415 327 421T306 427Q280 427 257 411T216 367T189 301T179 219V53Q179 27 187 16T219 4H251V0H13V4H48Q71 4 79 15T88 53V372Q88 394 76 404T41 415H10V419H48Q79 419 111 421T179 430V292ZM171 505H166L228 617Q250 655 264 670T298 685Q312 685 321 676T330 652Q330 638 320 626T288 596L171 505Z"  />
<glyph unicode="&#x156;" horiz-adv-x="693" d="M12 4H65Q115 4 115 62V612Q115 669 65 669H12V674H328Q381 674 428 663T510 631T566 578T587 506Q587 470 566 442T511 392T432 358T340 338Q395 327 435 308T503 259T544 184T564 79Q566 50 575 34T604 17Q628 17 646 56T664 164V218H668V179Q668 91 648 43T572 -6Q510 -6 482 35T449 145Q446 197 436 234T407 294T357 327T284 338H215V62Q215 4 265 4H317V0H12V4ZM265 669Q215 669 215 612V343H314Q389 343 430 384T472 507Q472 588 427 628T304 669H265ZM347 -236Q381 -218 397 -197T414 -153Q414 -140 402 -140Q394 -140 389 -143T370 -146Q352 -146 339 -134T326 -105Q326 -84 339 -70T369 -56Q398 -56 410 -75T423 -130Q423 -168 405 -194T349 -240L347 -236Z"  />
<glyph unicode="&#x157;" horiz-adv-x="412" d="M179 292Q200 365 235 399T310 433Q328 433 344 426T373 408T393 381T401 348Q401 321 387 306T350 290Q327 290 311 304T295 339Q295 354 301 363T314 380T328 393T334 407Q334 415 327 421T306 427Q280 427 257 411T216 367T189 301T179 219V53Q179 27 187 16T219 4H251V0H13V4H48Q71 4 79 15T88 53V372Q88 394 76 404T41 415H10V419H48Q79 419 111 421T179 430V292ZM108 -236Q142 -218 158 -197T175 -153Q175 -140 163 -140Q155 -140 150 -143T131 -146Q113 -146 100 -134T87 -105Q87 -84 100 -70T130 -56Q159 -56 171 -75T184 -130Q184 -168 166 -194T110 -240L108 -236Z"  />
<glyph unicode="&#x158;" horiz-adv-x="693" d="M12 4H65Q115 4 115 62V612Q115 669 65 669H12V674H328Q381 674 428 663T510 631T566 578T587 506Q587 470 566 442T511 392T432 358T340 338Q395 327 435 308T503 259T544 184T564 79Q566 50 575 34T604 17Q628 17 646 56T664 164V218H668V179Q668 91 648 43T572 -6Q510 -6 482 35T449 145Q446 197 436 234T407 294T357 327T284 338H215V62Q215 4 265 4H317V0H12V4ZM265 669Q215 669 215 612V343H314Q389 343 430 384T472 507Q472 588 427 628T304 669H265ZM173 927L311 821L448 927H451L348 763H272L169 927H173Z"  />
<glyph unicode="&#x159;" horiz-adv-x="412" d="M179 292Q200 365 235 399T310 433Q328 433 344 426T373 408T393 381T401 348Q401 321 387 306T350 290Q327 290 311 304T295 339Q295 354 301 363T314 380T328 393T334 407Q334 415 327 421T306 427Q280 427 257 411T216 367T189 301T179 219V53Q179 27 187 16T219 4H251V0H13V4H48Q71 4 79 15T88 53V372Q88 394 76 404T41 415H10V419H48Q79 419 111 421T179 430V292ZM79 683L217 577L354 683H357L254 519H178L75 683H79Z"  />
<glyph unicode="&#x15A;" horiz-adv-x="569" d="M325 -17Q263 -17 213 9T122 101Q99 72 87 46T63 -14H60V295H63Q90 136 156 62T325 -12Q358 -12 385 -4T433 21T464 62T475 116Q475 151 460 177T417 224T352 262T272 295Q230 311 191 329T123 371T77 427T59 504Q59 541 73 574T113 631T172 669T245 683Q297 683 342 657T423 583Q446 607 460 630T481 677H485V416H481Q474 471 454 518T403 601T332 657T245 678Q218 678 193 669T149 642T117 603T105 555Q105 527 119 506T158 467T219 434T297 403Q347 385 388 365T458 319T504 256T520 169Q520 126 506 92T465 33T403 -4T325 -17ZM215 749H210L272 861Q294 899 308 914T342 929Q356 929 365 920T374 896Q374 882 364 870T332 840L215 749Z"  />
<glyph unicode="&#x15B;" horiz-adv-x="395" d="M229 -6Q194 -6 159 7T95 55Q78 44 66 27T47 -6H44V179H47Q66 91 110 45T229 -1Q268 -1 294 18T321 79Q321 97 312 109T285 132T244 150T192 167Q158 177 131 189T84 218T55 259T45 314Q45 339 55 361T82 399T123 424T175 433Q210 433 240 416T291 374Q310 386 320 399T335 428H338V260H335Q330 296 316 326T280 379T232 415T175 428Q139 428 111 407T83 347Q83 315 115 298T203 264Q239 252 268 240T319 210T351 169T363 115Q363 58 325 26T229 -6ZM146 505H141L203 617Q225 655 239 670T273 685Q287 685 296 676T305 652Q305 638 295 626T263 596L146 505Z"  />
<glyph unicode="&#x15C;" horiz-adv-x="569" d="M325 -17Q263 -17 213 9T122 101Q99 72 87 46T63 -14H60V295H63Q90 136 156 62T325 -12Q358 -12 385 -4T433 21T464 62T475 116Q475 151 460 177T417 224T352 262T272 295Q230 311 191 329T123 371T77 427T59 504Q59 541 73 574T113 631T172 669T245 683Q297 683 342 657T423 583Q446 607 460 630T481 677H485V416H481Q474 471 454 518T403 601T332 657T245 678Q218 678 193 669T149 642T117 603T105 555Q105 527 119 506T158 467T219 434T297 403Q347 385 388 365T458 319T504 256T520 169Q520 126 506 92T465 33T403 -4T325 -17ZM260 853L124 748H120L224 912H299L402 748H399L260 853Z"  />
<glyph unicode="&#x15D;" horiz-adv-x="395" d="M229 -6Q194 -6 159 7T95 55Q78 44 66 27T47 -6H44V179H47Q66 91 110 45T229 -1Q268 -1 294 18T321 79Q321 97 312 109T285 132T244 150T192 167Q158 177 131 189T84 218T55 259T45 314Q45 339 55 361T82 399T123 424T175 433Q210 433 240 416T291 374Q310 386 320 399T335 428H338V260H335Q330 296 316 326T280 379T232 415T175 428Q139 428 111 407T83 347Q83 315 115 298T203 264Q239 252 268 240T319 210T351 169T363 115Q363 58 325 26T229 -6ZM191 609L55 504H51L155 668H230L333 504H330L191 609Z"  />
<glyph unicode="&#x15E;" horiz-adv-x="569" d="M312 -17Q255 -15 208 12T122 101Q99 72 87 46T63 -14H60V295H63Q89 139 153 65T316 -12L322 -5H328L322 -12H325Q358 -12 385 -4T433 21T464 62T475 116Q475 151 460 177T417 224T352 262T272 295Q230 311 191 329T123 371T77 427T59 504Q59 541 73 574T113 631T172 669T245 683Q297 683 342 657T423 583Q446 607 460 630T481 677H485V416H481Q474 471 454 518T403 601T332 657T245 678Q218 678 193 669T149 642T117 603T105 555Q105 527 119 506T158 467T219 434T297 403Q347 385 388 365T458 319T504 256T520 169Q520 126 506 92T465 33T403 -4T325 -17H318L295 -46Q336 -53 358 -73T381 -120Q381 -142 366 -158T327 -186T270 -202T202 -208V-204Q226 -202 247 -199T283 -188T307 -167T316 -133Q316 -94 255 -91L312 -17Z"  />
<glyph unicode="&#x15F;" horiz-adv-x="395" d="M220 -6Q187 -4 154 9T95 55Q78 44 66 27T47 -6H44V179H47Q65 92 108 47T224 -1L225 0H231L230 -1Q268 0 294 18T321 79Q321 97 312 109T285 132T244 150T192 167Q158 177 131 189T84 218T55 259T45 314Q45 339 55 361T82 399T123 424T175 433Q210 433 240 416T291 374Q310 386 320 399T335 428H338V260H335Q330 296 316 326T280 379T232 415T175 428Q139 428 111 407T83 347Q83 315 115 298T203 264Q239 252 268 240T319 210T351 169T363 115Q363 58 325 26T229 -6H226L199 -42Q239 -48 262 -69T285 -115Q285 -137 270 -153T230 -181T173 -197T105 -203V-199Q129 -197 150 -194T186 -183T210 -162T219 -128Q219 -89 159 -86L220 -6Z"  />
<glyph unicode="&#x160;" horiz-adv-x="569" d="M325 -17Q263 -17 213 9T122 101Q99 72 87 46T63 -14H60V295H63Q90 136 156 62T325 -12Q358 -12 385 -4T433 21T464 62T475 116Q475 151 460 177T417 224T352 262T272 295Q230 311 191 329T123 371T77 427T59 504Q59 541 73 574T113 631T172 669T245 683Q297 683 342 657T423 583Q446 607 460 630T481 677H485V416H481Q474 471 454 518T403 601T332 657T245 678Q218 678 193 669T149 642T117 603T105 555Q105 527 119 506T158 467T219 434T297 403Q347 385 388 365T458 319T504 256T520 169Q520 126 506 92T465 33T403 -4T325 -17ZM124 927L262 821L399 927H402L299 763H223L120 927H124Z"  />
<glyph unicode="&#x161;" horiz-adv-x="395" d="M229 -6Q194 -6 159 7T95 55Q78 44 66 27T47 -6H44V179H47Q66 91 110 45T229 -1Q268 -1 294 18T321 79Q321 97 312 109T285 132T244 150T192 167Q158 177 131 189T84 218T55 259T45 314Q45 339 55 361T82 399T123 424T175 433Q210 433 240 416T291 374Q310 386 320 399T335 428H338V260H335Q330 296 316 326T280 379T232 415T175 428Q139 428 111 407T83 347Q83 315 115 298T203 264Q239 252 268 240T319 210T351 169T363 115Q363 58 325 26T229 -6ZM55 683L193 577L330 683H333L230 519H154L51 683H55Z"  />
<glyph unicode="&#x162;" horiz-adv-x="650" d="M328 0H142V4H227Q276 4 276 62V638Q276 654 266 661T228 669Q178 669 144 649T86 595T49 516T28 421H24V674H625V421H622Q614 476 600 521T563 600T507 651T425 669Q398 669 387 663T376 638V62Q376 4 427 4H496V0H333L301 -42Q341 -48 364 -69T387 -115Q387 -137 372 -153T333 -181T276 -197T208 -203V-199Q232 -197 253 -194T289 -183T313 -162T322 -128Q322 -89 261 -86L328 0Z"  />
<glyph unicode="&#x163;" horiz-adv-x="374" d="M210 -6Q154 -4 124 26T93 111V415H5V418Q76 434 122 484T180 615H184V419H323V415H184V89Q184 54 198 30T245 5Q296 5 324 59T352 226H356Q356 108 326 51T219 -6H216L189 -42Q229 -48 252 -69T275 -115Q275 -137 260 -153T220 -181T163 -197T95 -203V-199Q119 -197 140 -194T176 -183T200 -162T209 -128Q209 -89 149 -86L210 -6Z"  />
<glyph unicode="&#x164;" horiz-adv-x="650" d="M622 421Q614 476 600 521T563 600T507 651T425 669Q398 669 387 663T376 638V62Q376 4 427 4H496V0H142V4H227Q276 4 276 62V638Q276 654 266 661T228 669Q178 669 144 649T86 595T49 516T28 421H24V674H625V421H622ZM190 927L328 821L465 927H468L365 763H289L186 927H190Z"  />
<glyph unicode="&#x165;" horiz-adv-x="374" d="M184 615V419H323V415H184V89Q184 54 198 30T245 5Q296 5 324 59T352 226H356Q356 108 326 51T219 -6Q159 -6 126 24T93 111V415H5V418Q76 434 122 484T180 615H184ZM247 470L260 589Q265 628 276 646T309 664Q323 664 331 655T340 631Q340 622 335 608T314 570L251 470H247Z"  />
<glyph unicode="&#x166;" horiz-adv-x="650" d="M622 421Q614 476 600 521T563 600T507 651T425 669Q398 669 387 663T376 638V339H511V335H376V62Q376 4 427 4H496V0H142V4H227Q276 4 276 62V335H142V339H276V638Q276 654 266 661T228 669Q178 669 144 649T86 595T49 516T28 421H24V674H625V421H622Z"  />
<glyph unicode="&#x167;" horiz-adv-x="374" d="M184 615V419H323V415H184V266H307V261H184V89Q184 54 198 30T245 5Q296 5 324 59T352 226H356Q356 108 326 51T219 -6Q159 -6 126 24T93 111V261H15V266H93V415H5V418Q76 434 122 484T180 615H184Z"  />
<glyph unicode="&#x168;" horiz-adv-x="728" d="M735 669Q613 669 613 515V253Q613 193 596 143T547 56T469 -1T363 -22Q263 -22 188 38Q115 98 115 236V612Q115 669 65 669H12V674H317V669H263Q215 669 215 608V197Q215 -11 382 -11Q436 -11 478 9T549 65T593 149T609 253V491Q609 590 571 630Q532 669 479 669H447V674H735V669ZM532 880Q523 764 450 764Q435 764 418 769T381 785Q371 791 360 797T337 810T315 820T295 824Q272 824 257 809T236 764H232Q239 881 316 881Q333 881 350 875T386 857Q409 843 430 832T470 821Q489 821 508 836T529 880H532Z"  />
<glyph unicode="&#x169;" horiz-adv-x="544" d="M545 4V0H507Q475 0 442 -2T376 -10V143Q354 65 319 30T220 -6Q181 -6 154 6T110 41T86 95T78 164V371Q78 393 67 404T30 415H-1V419H37Q69 419 102 422T168 430V130Q168 70 183 35T237 0Q273 0 299 19T343 70T368 138T376 211V371Q376 393 366 404T329 415H297V419H335Q367 419 400 422T467 430V49Q467 26 477 15T514 4H545ZM404 636Q395 520 322 520Q307 520 290 525T253 541Q243 547 232 553T209 566T187 576T167 580Q144 580 129 565T108 520H104Q111 637 188 637Q205 637 222 631T258 613Q281 599 302 588T342 577Q361 577 380 592T401 636H404Z"  />
<glyph unicode="&#x16A;" horiz-adv-x="728" d="M735 669Q613 669 613 515V253Q613 193 596 143T547 56T469 -1T363 -22Q263 -22 188 38Q115 98 115 236V612Q115 669 65 669H12V674H317V669H263Q215 669 215 608V197Q215 -11 382 -11Q436 -11 478 9T549 65T593 149T609 253V491Q609 590 571 630Q532 669 479 669H447V674H735V669ZM232 819H531V785H232V819Z"  />
<glyph unicode="&#x16B;" horiz-adv-x="544" d="M545 4V0H507Q475 0 442 -2T376 -10V143Q354 65 319 30T220 -6Q181 -6 154 6T110 41T86 95T78 164V371Q78 393 67 404T30 415H-1V419H37Q69 419 102 422T168 430V130Q168 70 183 35T237 0Q273 0 299 19T343 70T368 138T376 211V371Q376 393 366 404T329 415H297V419H335Q367 419 400 422T467 430V49Q467 26 477 15T514 4H545ZM104 575H403V541H104V575Z"  />
<glyph unicode="&#x16C;" horiz-adv-x="728" d="M735 669Q613 669 613 515V253Q613 193 596 143T547 56T469 -1T363 -22Q263 -22 188 38Q115 98 115 236V612Q115 669 65 669H12V674H317V669H263Q215 669 215 608V197Q215 -11 382 -11Q436 -11 478 9T549 65T593 149T609 253V491Q609 590 571 630Q532 669 479 669H447V674H735V669ZM253 914Q266 876 300 856T382 835Q430 835 463 855T511 914H515Q508 847 473 806T382 765Q326 765 292 806T250 914H253Z"  />
<glyph unicode="&#x16D;" horiz-adv-x="544" d="M545 4V0H507Q475 0 442 -2T376 -10V143Q354 65 319 30T220 -6Q181 -6 154 6T110 41T86 95T78 164V371Q78 393 67 404T30 415H-1V419H37Q69 419 102 422T168 430V130Q168 70 183 35T237 0Q273 0 299 19T343 70T368 138T376 211V371Q376 393 366 404T329 415H297V419H335Q367 419 400 422T467 430V49Q467 26 477 15T514 4H545ZM125 669Q138 631 172 611T254 590Q302 590 335 610T383 669H387Q380 602 345 561T254 520Q198 520 164 561T122 669H125Z"  />
<glyph unicode="&#x16E;" horiz-adv-x="728" d="M735 669Q613 669 613 515V253Q613 193 596 143T547 56T469 -1T363 -22Q263 -22 188 38Q115 98 115 236V612Q115 669 65 669H12V674H317V669H263Q215 669 215 608V197Q215 -11 382 -11Q436 -11 478 9T549 65T593 149T609 253V491Q609 590 571 630Q532 669 479 669H447V674H735V669ZM289 840Q289 859 296 876T315 905T345 925T381 932Q400 932 416 925T445 906T465 876T473 840Q473 821 466 805T446 776T417 756T381 749Q362 749 345 756T316 775T296 804T289 840ZM294 840Q294 804 319 779T381 754Q417 754 442 779T468 840Q468 876 443 902T381 928Q345 928 320 902T294 840Z"  />
<glyph unicode="&#x16F;" horiz-adv-x="544" d="M545 4V0H507Q475 0 442 -2T376 -10V143Q354 65 319 30T220 -6Q181 -6 154 6T110 41T86 95T78 164V371Q78 393 67 404T30 415H-1V419H37Q69 419 102 422T168 430V130Q168 70 183 35T237 0Q273 0 299 19T343 70T368 138T376 211V371Q376 393 366 404T329 415H297V419H335Q367 419 400 422T467 430V49Q467 26 477 15T514 4H545ZM161 596Q161 615 168 632T187 661T217 681T253 688Q272 688 288 681T317 662T337 632T345 596Q345 577 338 561T318 532T289 512T253 505Q234 505 217 512T188 531T168 560T161 596ZM166 596Q166 560 191 535T253 510Q289 510 314 535T340 596Q340 632 315 658T253 684Q217 684 192 658T166 596Z"  />
<glyph unicode="&#x170;" horiz-adv-x="728" d="M735 669Q613 669 613 515V253Q613 193 596 143T547 56T469 -1T363 -22Q263 -22 188 38Q115 98 115 236V612Q115 669 65 669H12V674H317V669H263Q215 669 215 608V197Q215 -11 382 -11Q436 -11 478 9T549 65T593 149T609 253V491Q609 590 571 630Q532 669 479 669H447V674H735V669ZM425 749H419L479 873Q493 902 506 917T535 932Q551 932 561 922T571 896Q571 875 535 844L425 749ZM288 749H284L343 873Q357 902 370 917T400 932Q415 932 425 922T435 896Q435 874 399 844L288 749Z"  />
<glyph unicode="&#x171;" horiz-adv-x="544" d="M545 4V0H507Q475 0 442 -2T376 -10V143Q354 65 319 30T220 -6Q181 -6 154 6T110 41T86 95T78 164V371Q78 393 67 404T30 415H-1V419H37Q69 419 102 422T168 430V130Q168 70 183 35T237 0Q273 0 299 19T343 70T368 138T376 211V371Q376 393 366 404T329 415H297V419H335Q367 419 400 422T467 430V49Q467 26 477 15T514 4H545ZM297 505H291L351 629Q365 658 378 673T407 688Q423 688 433 678T443 652Q443 631 407 600L297 505ZM160 505H156L215 629Q229 658 242 673T272 688Q287 688 297 678T307 652Q307 630 271 600L160 505Z"  />
<glyph unicode="&#x172;" horiz-adv-x="728" d="M735 669Q613 669 613 515V253Q613 163 577 97T472 0L431 -31Q408 -48 401 -73T393 -149Q393 -186 406 -205T442 -224Q462 -224 477 -213T507 -175L511 -178Q493 -210 471 -225T410 -240Q362 -240 334 -218T306 -154Q306 -124 329 -102T391 -52Q410 -39 426 -28T456 -6Q435 -14 412 -18T363 -22Q263 -22 188 38Q115 98 115 236V612Q115 669 65 669H12V674H317V669H263Q215 669 215 608V197Q215 -11 382 -11Q436 -11 478 9T549 65T593 149T609 253V491Q609 590 571 630Q532 669 479 669H447V674H735V669Z"  />
<glyph unicode="&#x173;" horiz-adv-x="544" d="M545 4V0H507H469L428 -31Q405 -48 398 -73T390 -149Q390 -186 404 -205T439 -224Q459 -224 474 -213T504 -175L508 -178Q490 -210 468 -225T407 -240Q359 -240 331 -218T303 -154Q303 -124 326 -102T388 -52Q409 -37 427 -25T462 -1Q418 -3 376 -10V143Q354 65 319 30T220 -6Q181 -6 154 6T110 41T86 95T78 164V371Q78 393 67 404T30 415H-1V419H37Q69 419 102 422T168 430V130Q168 70 183 35T237 0Q273 0 299 19T343 70T368 138T376 211V371Q376 393 366 404T329 415H297V419H335Q367 419 400 422T467 430V49Q467 26 477 15T514 4H545Z"  />
<glyph unicode="&#x174;" horiz-adv-x="1009" d="M197 636Q197 628 200 619L349 108L491 520L468 602Q457 639 444 654T406 669H352V674H671V669H604Q560 669 560 636Q560 631 560 628T562 619L711 109L838 485Q848 513 851 536T855 582Q855 620 833 644T763 669H736V674H1006V669H995Q970 669 948 654T907 615T873 560T846 495L672 -21H648L494 513L310 -21H286L105 610Q88 669 38 669H2V674H291V669H254Q197 669 197 636ZM509 853L373 748H369L473 912H548L651 748H648L509 853Z"  />
<glyph unicode="&#x175;" horiz-adv-x="706" d="M420 396Q420 387 423 375L514 84L605 317Q619 353 619 375Q619 392 607 403T570 415H543V419H710V415H708Q648 415 615 331L482 -10H450L359 283L240 -10H209L89 328Q81 350 75 366T60 393T42 409T15 415H-5V419H216V415H189Q162 415 162 398Q162 388 166 376L271 79L357 290L327 388Q322 402 314 408T285 415H260V419H494V415H451Q420 415 420 396ZM370 609L234 504H230L334 668H409L512 504H509L370 609Z"  />
<glyph unicode="&#x176;" horiz-adv-x="723" d="M206 646Q206 634 214 618L404 269L543 530Q553 549 557 568T561 603Q561 633 539 651T479 669H418V674H721V669H708Q684 669 664 662T625 639T586 594T545 525L406 263V62Q406 4 457 4H525V0H171V4H256Q306 4 306 62V241L92 633Q81 653 67 661T30 669H2V674H327V669H240Q206 669 206 646ZM367 853L231 748H227L331 912H406L509 748H506L367 853Z"  />
<glyph unicode="&#x177;" horiz-adv-x="542" d="M547 419V415H535Q493 415 471 391T431 327L249 -111Q221 -178 188 -209T108 -240Q63 -240 36 -219T9 -163Q9 -138 23 -123T61 -108Q83 -108 96 -122T109 -157Q109 -170 104 -179T93 -195T82 -208T77 -219Q77 -235 109 -235Q154 -235 185 -205T243 -113L267 -57L102 340Q95 357 89 371T74 394T54 409T25 415H-5V419H266V415H218Q201 415 193 407T184 386Q184 380 187 374L315 62L411 292Q429 334 429 367Q429 390 414 402T370 415H327V419H547ZM295 609L159 504H155L259 668H334L437 504H434L295 609Z"  />
<glyph unicode="&#x178;" horiz-adv-x="723" d="M206 646Q206 634 214 618L404 269L543 530Q553 549 557 568T561 603Q561 633 539 651T479 669H418V674H721V669H708Q684 669 664 662T625 639T586 594T545 525L406 263V62Q406 4 457 4H525V0H171V4H256Q306 4 306 62V241L92 633Q81 653 67 661T30 669H2V674H327V669H240Q206 669 206 646ZM221 815Q221 837 236 852T272 867Q294 867 309 852T324 815Q324 794 309 779T272 764Q251 764 236 779T221 815ZM413 815Q413 837 428 852T464 867Q485 867 500 852T515 815Q515 794 500 779T464 764Q443 764 428 779T413 815Z"  />
<glyph unicode="&#x179;" horiz-adv-x="648" d="M161 4H354Q385 4 420 18T487 62T546 140T588 257H591L585 0H37L489 669H304Q255 669 216 649T148 597T101 522T75 435H71L76 674H611L161 4ZM279 749H274L336 861Q358 899 372 914T406 929Q420 929 429 920T438 896Q438 882 428 870T396 840L279 749Z"  />
<glyph unicode="&#x17A;" horiz-adv-x="453" d="M139 4H241Q285 4 315 15T366 47T398 99T415 170H418V0H34V8L301 415H215Q78 415 57 252H53V419H412L139 4ZM185 505H180L242 617Q264 655 278 670T312 685Q326 685 335 676T344 652Q344 638 334 626T302 596L185 505Z"  />
<glyph unicode="&#x17B;" horiz-adv-x="648" d="M161 4H354Q385 4 420 18T487 62T546 140T588 257H591L585 0H37L489 669H304Q255 669 216 649T148 597T101 522T75 435H71L76 674H611L161 4ZM269 825Q269 848 285 864T325 881Q348 881 364 865T381 825Q381 802 365 785T325 768Q302 768 286 785T269 825Z"  />
<glyph unicode="&#x17C;" horiz-adv-x="453" d="M139 4H241Q285 4 315 15T366 47T398 99T415 170H418V0H34V8L301 415H215Q78 415 57 252H53V419H412L139 4ZM174 580Q174 603 190 619T230 636Q253 636 269 620T286 580Q286 557 270 540T230 523Q207 523 191 540T174 580Z"  />
<glyph unicode="&#x17D;" horiz-adv-x="648" d="M161 4H354Q385 4 420 18T487 62T546 140T588 257H591L585 0H37L489 669H304Q255 669 216 649T148 597T101 522T75 435H71L76 674H611L161 4ZM188 927L326 821L463 927H466L363 763H287L184 927H188Z"  />
<glyph unicode="&#x17E;" horiz-adv-x="453" d="M139 4H241Q285 4 315 15T366 47T398 99T415 170H418V0H34V8L301 415H215Q78 415 57 252H53V419H412L139 4ZM93 683L231 577L368 683H371L268 519H192L89 683H93Z"  />
<glyph unicode="&#x192;" horiz-adv-x="490" d="M85 -229Q100 -229 112 -218T137 -172T164 -77T197 85L253 389H167L170 403Q195 405 210 406T231 410Q245 415 256 432T281 491Q297 537 312 568T343 618T378 645T420 653Q458 653 481 636T504 594Q504 577 495 567T471 556Q459 556 450 564T440 584Q440 598 447 604T454 619Q454 648 420 648Q392 648 380 621T357 533L335 403H422L418 389H333L281 140Q256 21 232 -52T183 -166T134 -220T85 -234Q50 -234 30 -219T9 -179Q9 -162 21 -152T47 -142Q59 -142 69 -151T79 -171Q79 -179 76 -185T70 -197T63 -206T60 -215Q60 -229 85 -229Z"  />
<glyph unicode="&#x218;" horiz-adv-x="569" d="M325 -17Q263 -17 213 9T122 101Q99 72 87 46T63 -14H60V295H63Q90 136 156 62T325 -12Q358 -12 385 -4T433 21T464 62T475 116Q475 151 460 177T417 224T352 262T272 295Q230 311 191 329T123 371T77 427T59 504Q59 541 73 574T113 631T172 669T245 683Q297 683 342 657T423 583Q446 607 460 630T481 677H485V416H481Q474 471 454 518T403 601T332 657T245 678Q218 678 193 669T149 642T117 603T105 555Q105 527 119 506T158 467T219 434T297 403Q347 385 388 365T458 319T504 256T520 169Q520 126 506 92T465 33T403 -4T325 -17ZM292 -241Q326 -223 342 -202T359 -158Q359 -145 347 -145Q339 -145 334 -148T315 -151Q297 -151 284 -139T271 -110Q271 -89 284 -75T314 -61Q343 -61 355 -80T368 -135Q368 -173 350 -199T294 -245L292 -241Z"  />
<glyph unicode="&#x219;" horiz-adv-x="395" d="M229 -6Q194 -6 159 7T95 55Q78 44 66 27T47 -6H44V179H47Q66 91 110 45T229 -1Q268 -1 294 18T321 79Q321 97 312 109T285 132T244 150T192 167Q158 177 131 189T84 218T55 259T45 314Q45 339 55 361T82 399T123 424T175 433Q210 433 240 416T291 374Q310 386 320 399T335 428H338V260H335Q330 296 316 326T280 379T232 415T175 428Q139 428 111 407T83 347Q83 315 115 298T203 264Q239 252 268 240T319 210T351 169T363 115Q363 58 325 26T229 -6ZM195 -236Q229 -218 245 -197T262 -153Q262 -140 250 -140Q242 -140 237 -143T218 -146Q200 -146 187 -134T174 -105Q174 -84 187 -70T217 -56Q246 -56 258 -75T271 -130Q271 -168 253 -194T197 -240L195 -236Z"  />
<glyph unicode="&#x21A;" horiz-adv-x="650" d="M622 421Q614 476 600 521T563 600T507 651T425 669Q398 669 387 663T376 638V62Q376 4 427 4H496V0H142V4H227Q276 4 276 62V638Q276 654 266 661T228 669Q178 669 144 649T86 595T49 516T28 421H24V674H625V421H622ZM298 -236Q332 -218 348 -197T365 -153Q365 -140 353 -140Q345 -140 340 -143T321 -146Q303 -146 290 -134T276 -105Q276 -84 289 -70T320 -56Q349 -56 361 -75T374 -130Q374 -168 356 -194T300 -240L298 -236Z"  />
<glyph unicode="&#x21B;" horiz-adv-x="374" d="M184 615V419H323V415H184V89Q184 54 198 30T245 5Q296 5 324 59T352 226H356Q356 108 326 51T219 -6Q159 -6 126 24T93 111V415H5V418Q76 434 122 484T180 615H184ZM186 -236Q220 -218 236 -197T252 -153Q252 -140 241 -140Q232 -140 227 -143T209 -146Q191 -146 178 -134T164 -105Q164 -84 177 -70T208 -56Q237 -56 249 -75T261 -130Q261 -168 244 -194T188 -240L186 -236Z"  />
<glyph unicode="&#x237;" horiz-adv-x="251" d="M47 419Q78 419 110 421T179 430V-78Q179 -108 171 -137T145 -189T102 -226T41 -240Q23 -240 5 -235T-27 -219T-50 -192T-59 -156Q-59 -134 -47 -121T-11 -107Q9 -107 20 -118T31 -147Q31 -164 25 -174T10 -190T-4 -201T-11 -212Q-11 -222 5 -228T41 -235Q68 -235 78 -219T88 -154V372Q88 394 75 404T41 415H9V419H47Z"  />
<glyph unicode="&#x2C6;" horiz-adv-x="316" d="M157 609L21 504H17L121 668H196L299 504H296L157 609Z"  />
<glyph unicode="&#x2C7;" horiz-adv-x="316" d="M21 683L159 577L296 683H299L196 519H120L17 683H21Z"  />
<glyph unicode="&#x2C9;" horiz-adv-x="316" d="M9 575H308V541H9V575Z"  />
<glyph unicode="&#x2D8;" horiz-adv-x="316" d="M29 669Q42 631 76 611T158 590Q206 590 239 610T287 669H291Q284 602 249 561T158 520Q102 520 68 561T26 669H29Z"  />
<glyph unicode="&#x2D9;" horiz-adv-x="316" d="M102 580Q102 603 118 619T158 636Q181 636 197 620T214 580Q214 557 198 540T158 523Q135 523 119 540T102 580Z"  />
<glyph unicode="&#x2DA;" horiz-adv-x="316" d="M66 596Q66 615 73 632T92 661T122 681T158 688Q177 688 193 681T222 662T242 632T250 596Q250 577 243 561T223 532T194 512T158 505Q139 505 122 512T93 531T73 560T66 596ZM71 596Q71 560 96 535T158 510Q194 510 219 535T245 596Q245 632 220 658T158 684Q122 684 97 658T71 596Z"  />
<glyph unicode="&#x2DB;" horiz-adv-x="316" d="M178 0L136 -31Q113 -48 106 -73T98 -149Q98 -186 112 -205T147 -224Q167 -224 182 -213T212 -175L216 -178Q198 -210 176 -225T115 -240Q67 -240 39 -218T11 -154Q11 -124 34 -102T96 -52L171 0H178Z"  />
<glyph unicode="&#x2DC;" horiz-adv-x="316" d="M308 636Q299 520 226 520Q211 520 194 525T157 541Q147 547 136 553T113 566T91 576T71 580Q48 580 33 565T12 520H8Q15 637 92 637Q109 637 126 631T162 613Q185 599 206 588T246 577Q265 577 284 592T305 636H308Z"  />
<glyph unicode="&#x2DD;" horiz-adv-x="316" d="M158 505H152L212 629Q226 658 239 673T268 688Q284 688 294 678T304 652Q304 631 268 600L158 505ZM21 505H17L76 629Q90 658 103 673T133 688Q148 688 158 678T168 652Q168 630 132 600L21 505Z"  />
<glyph unicode="&#x3A9;" horiz-adv-x="667" d="M538 0H330V15Q353 43 386 80T452 162T513 258T557 367Q578 445 575 500T552 589T501 639T432 655Q392 655 351 639T273 587T205 496T153 362Q138 307 138 258T146 166T167 86T191 16L180 0H-23L-11 119L6 121Q7 96 10 81T18 58T33 47T55 44H158Q143 64 125 94T94 165T79 257T92 368Q111 440 147 497T230 595T331 657T440 679Q497 679 539 659T605 599T634 504T620 376Q606 322 578 274T515 183T445 106T378 44H481Q496 44 506 46T526 56T546 79T571 121L590 119L538 0Z"  />
<glyph unicode="&#x3BC;" horiz-adv-x="500" d="M140 430H214L136 157Q131 140 129 131T125 116T123 107T122 101Q122 93 123 82T128 60T143 42T172 34Q195 34 220 49T268 94Q283 113 292 126T308 154T321 190T338 245L392 430H466L384 148L374 116Q368 98 368 77Q368 36 395 36Q420 36 434 57T462 105H480Q474 85 468 71T456 46T441 27T422 11Q408 0 390 -6T357 -12Q328 -12 311 8T293 62Q293 67 293 77T296 99Q257 42 215 15T136 -12Q117 -12 104 -7T82 7T68 24T59 41Q51 15 47 -3T39 -39T34 -79T29 -134Q22 -215 -25 -215Q-41 -215 -50 -204T-60 -176Q-60 -170 -59 -165T-55 -151T-44 -127T-23 -86Q8 -27 33 63L140 430Z"  />
<glyph unicode="&#x3C0;" horiz-adv-x="513" d="M527 445Q513 419 501 405T478 378Q466 376 448 376T409 375Q401 354 392 322T373 254T354 183T338 122Q327 80 329 56T358 31Q373 31 386 39T417 65L425 50Q398 15 372 2T322 -11Q305 -11 293 -6T275 12T270 49T281 108Q299 175 321 245T364 377Q319 379 275 379T201 379L194 356Q172 273 147 210T100 103T61 35T38 5Q28 0 13 -5T-14 -11L-15 2Q20 34 49 82T103 184T144 289T173 380Q147 380 128 376T94 366T65 351T38 332L30 348Q42 358 58 371T94 397T141 417T201 425Q226 425 254 425T313 423Q344 422 377 422T445 421Q466 421 479 427T510 454L527 445Z"  />
<glyph unicode="&#x1E80;" horiz-adv-x="1009" d="M197 636Q197 628 200 619L349 108L491 520L468 602Q457 639 444 654T406 669H352V674H671V669H604Q560 669 560 636Q560 631 560 628T562 619L711 109L838 485Q848 513 851 536T855 582Q855 620 833 644T763 669H736V674H1006V669H995Q970 669 948 654T907 615T873 560T846 495L672 -21H648L494 513L310 -21H286L105 610Q88 669 38 669H2V674H291V669H254Q197 669 197 636ZM440 840Q417 857 407 869T397 896Q397 911 406 920T429 929Q449 929 463 914T499 861L561 749H557L440 840Z"  />
<glyph unicode="&#x1E81;" horiz-adv-x="706" d="M420 396Q420 387 423 375L514 84L605 317Q619 353 619 375Q619 392 607 403T570 415H543V419H710V415H708Q648 415 615 331L482 -10H450L359 283L240 -10H209L89 328Q81 350 75 366T60 393T42 409T15 415H-5V419H216V415H189Q162 415 162 398Q162 388 166 376L271 79L357 290L327 388Q322 402 314 408T285 415H260V419H494V415H451Q420 415 420 396ZM301 596Q278 613 268 625T258 652Q258 667 267 676T290 685Q310 685 324 670T360 617L422 505H418L301 596Z"  />
<glyph unicode="&#x1E82;" horiz-adv-x="1009" d="M197 636Q197 628 200 619L349 108L491 520L468 602Q457 639 444 654T406 669H352V674H671V669H604Q560 669 560 636Q560 631 560 628T562 619L711 109L838 485Q848 513 851 536T855 582Q855 620 833 644T763 669H736V674H1006V669H995Q970 669 948 654T907 615T873 560T846 495L672 -21H648L494 513L310 -21H286L105 610Q88 669 38 669H2V674H291V669H254Q197 669 197 636ZM464 749H459L521 861Q543 899 557 914T591 929Q605 929 614 920T623 896Q623 882 613 870T581 840L464 749Z"  />
<glyph unicode="&#x1E83;" horiz-adv-x="706" d="M420 396Q420 387 423 375L514 84L605 317Q619 353 619 375Q619 392 607 403T570 415H543V419H710V415H708Q648 415 615 331L482 -10H450L359 283L240 -10H209L89 328Q81 350 75 366T60 393T42 409T15 415H-5V419H216V415H189Q162 415 162 398Q162 388 166 376L271 79L357 290L327 388Q322 402 314 408T285 415H260V419H494V415H451Q420 415 420 396ZM326 505H321L383 617Q405 655 419 670T453 685Q467 685 476 676T485 652Q485 638 475 626T443 596L326 505Z"  />
<glyph unicode="&#x1E84;" horiz-adv-x="1009" d="M197 636Q197 628 200 619L349 108L491 520L468 602Q457 639 444 654T406 669H352V674H671V669H604Q560 669 560 636Q560 631 560 628T562 619L711 109L838 485Q848 513 851 536T855 582Q855 620 833 644T763 669H736V674H1006V669H995Q970 669 948 654T907 615T873 560T846 495L672 -21H648L494 513L310 -21H286L105 610Q88 669 38 669H2V674H291V669H254Q197 669 197 636ZM363 815Q363 837 378 852T414 867Q436 867 451 852T466 815Q466 794 451 779T414 764Q393 764 378 779T363 815ZM555 815Q555 837 570 852T606 867Q627 867 642 852T657 815Q657 794 642 779T606 764Q585 764 570 779T555 815Z"  />
<glyph unicode="&#x1E85;" horiz-adv-x="706" d="M420 396Q420 387 423 375L514 84L605 317Q619 353 619 375Q619 392 607 403T570 415H543V419H710V415H708Q648 415 615 331L482 -10H450L359 283L240 -10H209L89 328Q81 350 75 366T60 393T42 409T15 415H-5V419H216V415H189Q162 415 162 398Q162 388 166 376L271 79L357 290L327 388Q322 402 314 408T285 415H260V419H494V415H451Q420 415 420 396ZM225 571Q225 593 240 608T276 623Q298 623 313 608T328 571Q328 550 313 535T276 520Q255 520 240 535T225 571ZM417 571Q417 593 432 608T468 623Q489 623 504 608T519 571Q519 550 504 535T468 520Q447 520 432 535T417 571Z"  />
<glyph unicode="&#x1EF2;" horiz-adv-x="723" d="M206 646Q206 634 214 618L404 269L543 530Q553 549 557 568T561 603Q561 633 539 651T479 669H418V674H721V669H708Q684 669 664 662T625 639T586 594T545 525L406 263V62Q406 4 457 4H525V0H171V4H256Q306 4 306 62V241L92 633Q81 653 67 661T30 669H2V674H327V669H240Q206 669 206 646ZM297 840Q274 857 264 869T254 896Q254 911 263 920T286 929Q306 929 320 914T356 861L418 749H414L297 840Z"  />
<glyph unicode="&#x1EF3;" horiz-adv-x="542" d="M547 419V415H535Q493 415 471 391T431 327L249 -111Q221 -178 188 -209T108 -240Q63 -240 36 -219T9 -163Q9 -138 23 -123T61 -108Q83 -108 96 -122T109 -157Q109 -170 104 -179T93 -195T82 -208T77 -219Q77 -235 109 -235Q154 -235 185 -205T243 -113L267 -57L102 340Q95 357 89 371T74 394T54 409T25 415H-5V419H266V415H218Q201 415 193 407T184 386Q184 380 187 374L315 62L411 292Q429 334 429 367Q429 390 414 402T370 415H327V419H547ZM226 596Q203 613 193 625T183 652Q183 667 192 676T215 685Q235 685 249 670T285 617L347 505H343L226 596Z"  />
<glyph unicode="&#x2013;" horiz-adv-x="494" d="M5 257H489V253H5V257Z"  />
<glyph unicode="&#x2014;" horiz-adv-x="1000" d="M5 257H995V253H5V257Z"  />
<glyph unicode="&#x2018;" horiz-adv-x="185" d="M142 678Q91 649 67 612T42 533Q42 512 57 512Q62 512 66 514T75 520T87 526T104 529Q122 529 135 514T148 478Q148 457 135 443T101 429Q84 429 72 437T53 458T41 489T37 525Q37 575 61 613T140 682L142 678Z"  />
<glyph unicode="&#x2019;" horiz-adv-x="185" d="M43 433Q143 490 143 578Q143 599 128 599Q123 599 119 597T110 591T99 585T82 582Q63 582 50 597T37 633Q37 654 50 668T84 682Q100 682 112 674T132 653T144 622T148 586Q148 536 124 498T45 429L43 433Z"  />
<glyph unicode="&#x201A;" horiz-adv-x="195" d="M48 -158Q99 -128 123 -92T147 -12Q147 9 133 9Q128 9 124 7T115 1T103 -5T86 -8Q68 -8 55 7T42 43Q42 64 55 78T89 92Q105 92 117 84T137 62T149 31T153 -4Q153 -54 129 -92T50 -162L48 -158Z"  />
<glyph unicode="&#x201C;" horiz-adv-x="363" d="M142 678Q91 649 67 612T42 533Q42 512 57 512Q62 512 66 514T75 520T87 526T104 529Q122 529 135 514T148 478Q148 457 135 443T101 429Q84 429 72 437T53 458T41 489T37 525Q37 575 61 613T140 682L142 678ZM320 678Q269 649 245 612T221 533Q221 512 235 512Q245 512 253 520T282 529Q300 529 313 514T327 478Q327 457 314 443T279 429Q262 429 250 437T231 458T219 489T215 525Q215 575 239 613T318 682L320 678Z"  />
<glyph unicode="&#x201D;" horiz-adv-x="363" d="M43 433Q143 490 143 578Q143 599 128 599Q123 599 119 597T110 591T99 585T82 582Q63 582 50 597T37 633Q37 654 50 668T84 682Q100 682 112 674T132 653T144 622T148 586Q148 536 124 498T45 429L43 433ZM221 433Q273 462 297 498T321 578Q321 599 306 599Q301 599 297 597T288 591T277 585T260 582Q241 582 228 597T215 633Q215 654 228 668T263 682Q279 682 291 674T311 653T323 622T327 586Q327 488 223 429L221 433Z"  />
<glyph unicode="&#x201E;" horiz-adv-x="368" d="M221 -155Q273 -126 297 -89T321 -10Q321 11 306 11Q301 11 297 9T288 3T277 -3T260 -6Q241 -6 228 9T215 45Q215 66 228 80T263 94Q279 94 291 86T311 65T323 34T327 -2Q327 -100 223 -159L221 -155ZM48 -158Q99 -128 123 -92T147 -12Q147 9 133 9Q128 9 124 7T115 1T103 -5T86 -8Q68 -8 55 7T42 43Q42 64 55 78T89 92Q105 92 117 84T137 62T149 31T153 -4Q153 -54 129 -92T50 -162L48 -158Z"  />
<glyph unicode="&#x2020;" horiz-adv-x="508" d="M256 -232H251V-170Q251 -120 248 -56T238 75T224 204T204 310Q246 351 251 419Q228 419 208 414T169 402T134 390T102 384Q79 384 64 394T49 421Q49 438 64 448T102 459Q117 459 133 454T169 442T208 430T251 424Q251 451 245 475T230 520T216 562T209 602Q209 632 223 651T254 670Q271 670 285 651T299 602Q299 583 293 563T278 521T263 475T256 424Q278 424 299 429T338 441T374 453T406 459Q429 459 444 449T459 421Q459 405 444 395T406 384Q391 384 374 389T339 401T299 413T256 419Q262 350 304 310Q293 266 284 204T269 76T260 -55T256 -170V-232Z"  />
<glyph unicode="&#x2021;" horiz-adv-x="468" d="M234 -238Q218 -238 206 -221T194 -182Q194 -169 200 -152T212 -115T225 -75T231 -36Q211 -36 194 -41T160 -52T130 -64T103 -69Q79 -69 64 -60T49 -34Q49 -17 64 -8T103 1Q116 1 130 -4T160 -15T193 -26T231 -31Q228 20 191 55Q231 117 231 217Q231 318 191 380Q228 414 231 466Q211 466 194 461T160 450T130 438T103 433Q80 433 65 442T49 468Q49 485 64 494T103 504Q116 504 130 499T160 488T193 476T231 471Q231 489 225 509T213 549T200 586T194 617Q194 639 206 655T234 672Q250 672 262 656T274 617Q274 604 268 587T255 550T242 510T236 471Q257 471 274 476T308 487T338 499T365 504Q389 504 404 495T419 468Q419 451 404 442T365 433Q352 433 338 438T308 449T275 461T236 466Q241 412 277 380Q236 319 236 217Q236 116 277 55Q241 22 236 -31Q257 -31 274 -26T308 -15T338 -4T365 1Q388 1 403 -8T419 -34Q419 -50 404 -59T365 -69Q352 -69 338 -64T308 -53T275 -41T236 -36Q236 -54 242 -74T255 -114T268 -151T274 -182Q274 -204 262 -221T234 -238Z"  />
<glyph unicode="&#x2022;" horiz-adv-x="354" d="M55 331Q55 356 64 378T90 417T129 443T177 453Q202 453 224 444T264 418T290 379T300 331Q300 305 291 283T264 244T225 218T177 208Q151 208 129 217T91 244T65 283T55 331Z"  />
<glyph unicode="&#x2026;" horiz-adv-x="1005" d="M220 39Q220 17 205 2T167 -14Q145 -14 130 1T115 39Q115 61 130 76T167 92Q189 92 204 77T220 39ZM555 39Q555 17 540 2T502 -14Q480 -14 465 1T450 39Q450 61 465 76T502 92Q524 92 539 77T555 39ZM890 39Q890 17 875 2T837 -14Q815 -14 800 1T785 39Q785 61 800 76T837 92Q859 92 874 77T890 39Z"  />
<glyph unicode="&#x2030;" horiz-adv-x="1042" d="M181 682Q215 682 241 667T286 627T314 570T324 505Q324 472 315 440T287 384T242 344T181 328Q147 328 120 343T75 383T47 440T37 505Q37 538 46 570T74 626T120 666T181 682ZM247 564Q247 677 181 677Q115 677 115 564V448Q115 333 181 333Q247 333 247 448V564ZM586 682H627L128 -34H87L586 682ZM532 324Q566 324 593 309T638 268T666 211T676 146Q676 113 667 82T639 25T593 -15T532 -31Q498 -31 472 -16T427 25T399 81T389 146Q389 179 398 211T426 268T471 308T532 324ZM598 206Q598 319 532 319Q466 319 466 206V89Q466 -26 532 -26Q598 -26 598 89V206ZM865 324Q899 324 925 309T970 268T998 211T1008 146Q1008 113 999 82T971 25T926 -15T865 -31Q831 -31 804 -16T759 25T731 81T721 146Q721 179 730 211T758 268T804 308T865 324ZM931 206Q931 319 865 319Q799 319 799 206V89Q799 -26 865 -26Q931 -26 931 89V206Z"  />
<glyph unicode="&#x2039;" horiz-adv-x="273" d="M134 217L224 -6H220L49 217L220 440H224L134 217Z"  />
<glyph unicode="&#x203A;" horiz-adv-x="273" d="M49 440H53L224 217L53 -6H49L139 217L49 440Z"  />
<glyph unicode="&#x2044;" horiz-adv-x="51" d="M255 682H295L-204 -34H-244L255 682Z"  />
<glyph unicode="&#x2082;" horiz-adv-x="333" d="M32 2Q78 58 121 100T187 178Q205 206 205 243Q205 284 184 309T127 335Q93 335 69 312T44 256Q44 238 54 238Q58 238 60 241T67 247T76 253T92 256Q105 256 114 245T124 220Q124 206 113 194T85 182Q65 182 52 200T38 247Q38 272 48 291T74 322T113 341T159 347Q213 347 247 319T282 248Q282 210 254 184T182 130Q151 110 128 94T89 60H259Q273 60 279 70T286 107H291L280 0H32V2Z"  />
<glyph unicode="&#x2084;" horiz-adv-x="333" d="M203 349H214V110H294V88H214V30Q214 4 241 4H279V0H87V4H126Q154 4 154 30V88H26L7 108L203 349ZM154 110V281L14 110H154Z"  />
<glyph unicode="&#x20AC;" horiz-adv-x="589" d="M83 251Q81 266 80 281T79 312Q79 326 80 339T83 366H26L27 371H83Q91 427 113 478T168 568T241 630T327 653Q420 653 484 538Q508 561 522 590T542 653H545V364H542Q530 418 511 469T466 560T405 624T328 648Q292 648 267 626T222 560Q211 534 206 484T199 371H435L434 366H199V251H411L409 247H199Q201 187 210 135T233 59Q253 26 279 7T342 -12Q385 -12 422 6T486 57T530 134T549 228H553Q551 176 534 132T489 54T424 2T343 -17Q297 -17 254 3T177 58T118 141T84 247H6L8 251H83Z"  />
<glyph unicode="&#x2113;" horiz-adv-x="360" d="M289 84Q215 -9 124 -9Q66 -9 48 28Q38 48 39 79T56 166L80 257L11 211L4 228L87 287L119 405Q136 469 149 513T176 587T204 637T239 675Q279 712 314 712Q332 712 343 702T359 675T363 636T355 589Q343 544 321 504T270 426T208 357T140 295L113 193Q100 144 98 113T102 63T123 37T157 30Q190 30 220 49T277 97L289 84ZM150 331Q179 359 206 391T255 456T294 523T319 589Q330 631 326 658T298 686Q269 686 243 634T186 465L150 331Z"  />
<glyph unicode="&#x2122;" horiz-adv-x="890" d="M546 674L631 414L716 674H854V669H821Q798 669 791 656T783 613V375Q783 346 790 333T821 319H853V315H646V319H683Q706 319 714 332T722 375V662H717L604 315H601L487 662H482V395Q482 356 493 338T540 319H559V315H407V319H419Q454 319 466 337T478 395V610Q478 634 468 651T431 669H407V674H546ZM256 669Q234 669 234 647V375Q234 346 242 333T273 319H318V315H89V319H135Q158 319 165 332T173 375V647Q173 669 151 669H130Q116 669 110 668T95 657Q78 640 63 603T40 528H37V674H371V528H368Q360 566 345 603T313 657Q304 666 298 667T278 669H256Z"  />
<glyph unicode="&#x2126;" horiz-adv-x="667" d="M538 0H330V15Q353 43 386 80T452 162T513 258T557 367Q578 445 575 500T552 589T501 639T432 655Q392 655 351 639T273 587T205 496T153 362Q138 307 138 258T146 166T167 86T191 16L180 0H-23L-11 119L6 121Q7 96 10 81T18 58T33 47T55 44H158Q143 64 125 94T94 165T79 257T92 368Q111 440 147 497T230 595T331 657T440 679Q497 679 539 659T605 599T634 504T620 376Q606 322 578 274T515 183T445 106T378 44H481Q496 44 506 46T526 56T546 79T571 121L590 119L538 0Z"  />
<glyph unicode="&#x212E;" horiz-adv-x="942" d="M285 326Q280 326 280 322V133Q280 122 288 112Q334 64 394 37T524 9Q599 9 663 40T772 124H828Q776 63 697 27T523 -10Q443 -10 374 17T252 91T169 200T139 335Q139 407 169 470T251 580T373 654T523 681Q603 681 673 654T795 580T878 470T909 335V326H285ZM767 540Q767 552 758 563Q712 608 653 634T524 661Q455 661 395 634T289 559Q280 550 280 536V350Q280 348 281 346T285 344H763Q765 344 766 346T767 350V540Z"  />
<glyph unicode="&#x2202;" horiz-adv-x="475" d="M274 415Q308 415 341 398T388 341Q396 365 404 389T420 442Q431 480 435 520T436 599Q434 618 427 638T406 674T375 700T332 711Q297 711 263 697T199 663Q188 661 184 676T189 706Q217 723 252 734T325 746Q388 746 421 710T469 610Q475 583 475 553T472 493T464 437T452 389Q445 363 435 332T411 268T380 201T343 140Q297 74 243 33T126 -9Q52 -9 22 42T15 186Q29 236 55 275T110 343Q142 373 186 394T273 415H274ZM278 383Q211 383 150 325Q120 292 99 250T64 160Q56 133 56 107T65 61T89 28T131 16Q152 16 172 24T211 47T246 80T276 118Q292 140 305 161T329 205T350 251T372 304Q370 315 364 328T345 354T317 374T279 383H278Z"  />
<glyph unicode="&#x2206;" horiz-adv-x="572" d="M-43 0L-38 16L374 670L400 678L466 16L462 0H-43ZM352 587L7 35H405L352 587Z"  />
<glyph unicode="&#x220F;" horiz-adv-x="713" d="M686 648Q656 646 640 644T615 636T605 621T603 596V-2Q603 -21 605 -33T615 -51T639 -61T683 -66V-85H471V-66Q499 -64 515 -62T539 -53T550 -35T552 -2V614Q552 633 546 637T520 642H294Q274 642 269 638T263 617V-2Q263 -21 264 -32T272 -50T294 -60T338 -66V-85H133V-66Q160 -64 175 -61T199 -52T210 -34T212 -2V596Q212 612 210 621T200 635T175 643T129 648V668H686V648Z"  />
<glyph unicode="&#x2211;" horiz-adv-x="603" d="M543 -85H130V-68L343 286L136 651V668H544L555 526L534 522Q529 557 522 579T507 615Q503 622 498 627T482 636T455 640T411 642H206L392 318L183 -37H435Q464 -37 482 -35T513 -21T536 13T560 78L581 72L543 -85Z"  />
<glyph unicode="&#x2212;" horiz-adv-x="667" d="M71 323H595V318H71V323Z"  />
<glyph unicode="&#x2215;" horiz-adv-x="51" d="M255 682H295L-204 -34H-244L255 682Z"  />
<glyph unicode="&#x2219;" horiz-adv-x="281" d="M193 276Q193 254 178 239T141 223Q118 223 103 238T88 276Q88 298 103 313T141 329Q162 329 177 314T193 276Z"  />
<glyph unicode="&#x221A;" horiz-adv-x="608" d="M440 -131L427 -140L222 395L142 355L133 381L259 442L428 -11H430L558 877L587 868L440 -131Z"  />
<glyph unicode="&#x221E;" horiz-adv-x="734" d="M689 278Q689 246 678 220T648 176T605 148T553 138Q509 138 472 165T386 246Q368 226 350 207T310 172T266 148T214 138Q187 138 163 148T120 177T92 221T81 275Q81 305 91 330T120 375T164 404T220 415Q246 415 269 406T312 381T352 346T389 305Q407 326 425 345T464 380T508 405T560 415Q619 415 654 377T689 279V278ZM220 175Q242 175 262 185T301 209T335 241T365 274Q350 292 334 311T299 345T259 369T213 379Q191 379 174 371T145 348T127 314T121 274Q121 232 148 204T219 175H220ZM554 379Q531 379 510 368T471 340T437 307T409 277Q432 252 451 233T487 201T520 182T556 175Q578 175 595 183T625 206T643 239T649 275Q649 326 623 352T555 379H554Z"  />
<glyph unicode="&#x222B;" horiz-adv-x="435" d="M239 437Q234 555 242 630T268 747T311 804T366 820Q381 820 396 811T412 784Q412 769 404 762T382 754Q372 754 367 759T358 770T349 781T336 786Q328 786 319 779T301 752T289 700T286 614L303 233Q309 98 301 17T274 -108T230 -165T178 -179Q156 -179 144 -168T131 -142Q130 -128 140 -119T167 -109Q176 -109 181 -114T190 -125T198 -137T211 -142Q234 -142 247 -96T257 29L239 437Z"  />
<glyph unicode="&#x2248;" horiz-adv-x="534" d="M492 230Q475 195 448 170T378 145Q350 145 328 155T273 183Q252 195 232 204T189 214Q157 214 136 194T99 145L72 165Q92 206 124 228T194 251Q228 251 252 238T296 214Q318 201 337 192T381 182Q409 182 428 199T467 251L492 230ZM492 379Q475 344 448 319T378 294Q351 294 328 304T273 332Q252 344 232 353T188 363Q157 363 137 343T99 294L72 314Q92 355 124 377T194 400Q227 400 252 386T296 362Q319 349 337 340T381 331Q408 331 427 348T467 400L492 379Z"  />
<glyph unicode="&#x2260;" horiz-adv-x="555" d="M366 377H509V338H350L288 205H509V166H272L224 61L193 75L235 166H99V205H252L312 338H99V377H328L376 481L407 467L366 377Z"  />
<glyph unicode="&#x2264;" horiz-adv-x="574" d="M123 306V345L526 551V504L166 327V325L526 146V99L123 306ZM118 21V61H528V21H118Z"  />
<glyph unicode="&#x2265;" horiz-adv-x="574" d="M526 345V306L124 99V146L483 324V326L124 504V551L526 345ZM119 21V61H528V21H119Z"  />
<glyph unicode="&#x25CA;" horiz-adv-x="614" d="M383 -64H339L154 324L340 715H383L568 324L383 -64ZM363 669H360L198 326L361 -20H363L524 324L363 669Z"  />
<glyph unicode="&#xF6C3;" horiz-adv-x="316" d="M125 -236Q159 -218 175 -197T192 -153Q192 -140 180 -140Q172 -140 167 -143T148 -146Q130 -146 117 -134T104 -105Q104 -84 117 -70T147 -56Q176 -56 188 -75T201 -130Q201 -168 183 -194T127 -240L125 -236Z"  />
<glyph unicode="&#xFB00;" horiz-adv-x="619" d="M364 4Q387 4 396 15T405 53V415H205V53Q205 27 213 16T245 4H277V0H38V4H73Q96 4 105 15T114 53V415H17V419H114V438Q114 553 167 614T318 675Q357 675 392 662T447 620Q498 685 594 685Q617 685 639 681T678 667T706 643T717 610Q717 585 702 572T668 558Q644 558 631 573T618 605Q618 619 623 628T635 643T646 653T652 661Q652 669 640 674T598 680Q576 680 558 673T526 651T504 612T496 553V419H587V415H496V53Q496 27 504 16T536 4H568V0H329V4H364ZM405 419V468Q405 479 405 489T407 509Q387 512 377 526T366 557Q366 574 374 584T393 600T413 612T422 625Q422 642 394 656T320 670Q270 670 238 635T205 516V419H405Z"  />
<glyph unicode="&#xFB01;" horiz-adv-x="580" d="M496 53Q496 27 504 16T536 4H568V0H329V4H364Q387 4 396 15T405 53V372Q405 394 392 404T357 415H205V53Q205 27 213 16T245 4H277V0H38V4H73Q96 4 105 15T114 53V415H17V419H114V453Q114 565 173 625T337 685Q367 685 395 679T445 661T480 630T494 586Q494 561 480 547T445 533Q422 533 409 548T395 581Q395 596 401 605T413 622T426 634T432 648Q432 659 411 669T341 680Q311 680 286 672T243 646T215 600T205 531V419H364Q395 419 427 421T496 430V53Z"  />
<glyph unicode="&#xFB02;" horiz-adv-x="580" d="M496 53Q496 27 504 16T536 4H568V0H329V4H364Q387 4 396 15T405 53V631Q405 651 385 665T330 680Q275 680 240 646T205 531V419H296V415H205V53Q205 27 213 16T245 4H277V0H38V4H73Q96 4 105 15T114 53V415H17V419H114V453Q114 565 170 625T326 685Q362 685 393 674Q417 675 442 677T496 684V53Z"  />
<glyph unicode="&#xFB03;" horiz-adv-x="871" d="M787 53Q787 27 795 16T827 4H859V0H620V4H655Q678 4 687 15T696 53V372Q696 394 683 404T648 415H496V53Q496 27 504 16T536 4H568V0H329V4H364Q387 4 396 15T405 53V415H205V53Q205 27 213 16T245 4H277V0H38V4H73Q96 4 105 15T114 53V415H17V419H114V438Q114 553 167 614T318 675Q360 675 397 660T453 612Q482 647 526 666T628 685Q658 685 686 679T736 661T771 630T785 586Q785 561 771 547T736 533Q713 533 700 548T686 581Q686 596 692 605T704 622T717 634T723 648Q723 659 702 669T632 680Q602 680 577 672T534 646T506 600T496 531V419H655Q686 419 718 421T787 430V53ZM205 419H405V453Q405 468 406 482T409 509Q388 511 377 525T366 557Q366 574 374 584T393 600T413 612T422 625Q422 642 394 656T320 670Q270 670 238 635T205 516V419Z"  />
<glyph unicode="&#xFB04;" horiz-adv-x="871" d="M364 4Q387 4 396 15T405 53V415H205V53Q205 27 213 16T245 4H277V0H38V4H73Q96 4 105 15T114 53V415H17V419H114V438Q114 553 167 614T318 675Q360 675 396 660T452 613Q507 685 617 685Q653 685 684 674Q708 675 733 677T787 684V53Q787 27 795 16T827 4H859V0H620V4H655Q678 4 687 15T696 53V633Q694 652 675 666T621 680Q566 680 531 646T496 531V419H587V415H496V53Q496 27 504 16T536 4H568V0H329V4H364ZM205 419H405V453Q405 468 406 482T409 509Q388 512 377 526T366 557Q366 574 374 584T393 600T413 612T422 625Q422 642 394 656T320 670Q270 670 238 635T205 516V419Z"  />

</font>
</defs>
</svg>
